<svg width="45" height="33" viewBox="0 0 45 33" fill="none" xmlns="http://www.w3.org/2000/svg">
<path d="M27.2251 13.9416C26.3251 13.0416 24.9751 13.0416 24.0751 13.9416L22.5001 15.5166L20.9251 13.9416C20.0251 13.0416 18.6751 13.0416 17.7751 13.9416C16.8751 14.8416 16.8751 16.1916 17.7751 17.0916L19.3501 18.6666L17.7751 20.2416C16.8751 21.1416 16.8751 22.4916 17.7751 23.3916C18.2251 23.8416 18.9001 24.0666 19.3501 24.0666C19.8001 24.0666 20.4751 23.8416 20.9251 23.3916L22.5001 21.8166L24.0751 23.3916C24.5251 23.8416 25.2001 24.0666 25.6501 24.0666C26.1001 24.0666 26.7751 23.8416 27.2251 23.3916C28.1251 22.4916 28.1251 21.1416 27.2251 20.2416L25.6501 18.6666L27.2251 17.0916C28.1251 16.1916 28.1251 14.8416 27.2251 13.9416Z" fill="#F20000"/>
<path d="M39.6 13.2665C38.925 11.6915 38.025 10.1165 36.675 8.9915C34.425 6.7415 31.275 5.3915 27.9 5.3915H26.325C26.1 4.9415 25.65 4.7165 25.425 4.4915C23.4 2.0165 20.25 0.666504 16.875 0.666504C13.5 0.666504 10.35 2.0165 8.1 4.2665C5.85 6.5165 4.5 9.6665 4.5 13.0415V13.7165C4.05 14.1665 3.375 14.3915 2.925 15.0665C0.9 16.8665 0 19.5665 0 22.2665C0 27.6665 4.5 32.1665 10.125 32.1665H34.875C37.575 32.1665 40.05 31.0415 42.075 29.2415C44.1 27.4415 45 24.7415 45 22.0415C45 18.2165 42.975 14.8415 39.6 13.2665ZM38.925 26.0915C37.8 27.2165 36.45 27.6665 34.875 27.6665H10.125C6.975 27.6665 4.5 25.1915 4.5 22.0415C4.5 20.4665 5.175 19.1165 6.075 17.9915C6.525 17.5415 7.2 17.0915 7.65 16.8665C8.55 16.4165 9.225 15.5165 9 14.3915V13.0415C9 11.0165 9.9 8.9915 11.25 7.4165C12.825 5.8415 14.625 5.1665 16.875 5.1665C19.125 5.1665 20.925 6.0665 22.5 7.4165C22.95 7.8665 23.4 8.3165 23.625 8.9915C24.075 9.8915 25.2 10.1165 26.1 9.8915C26.775 9.6665 27.45 9.6665 28.125 9.6665C30.15 9.6665 32.175 10.5665 33.75 11.9165C34.65 12.8165 35.325 13.9415 35.775 15.2915C36 15.9665 36.45 16.4165 37.125 16.8665C39.15 17.7665 40.5 19.7915 40.5 22.0415C40.5 23.6165 39.825 24.9665 38.925 26.0915Z" fill="#2269A6"/>
</svg>
