<svg width="45" height="45" viewBox="0 0 45 45" fill="none" xmlns="http://www.w3.org/2000/svg">
<path fill-rule="evenodd" clip-rule="evenodd" d="M6.13596 4.09139C5.00686 4.09139 4.09123 5.00706 4.09123 6.1362V38.8638C4.09123 39.9929 5.00686 40.9086 6.13596 40.9086H38.8623C39.9914 40.9086 40.907 39.9929 40.907 38.8638V29.6595H44.9982V38.8638C44.9982 42.253 42.2513 45 38.8623 45H6.13596C2.74689 45 0 42.253 0 38.8638V6.1362C0 2.747 2.74689 0 6.13596 0H15.3399V4.09139H6.13596Z" fill="#2269A6"/>
<path fill-rule="evenodd" clip-rule="evenodd" d="M16.8607 28.9944C14.4931 26.0798 10.0843 25.9563 7.55797 28.7368L0.532838 36.4662C-0.142858 37.2107 -0.178143 38.3345 0.44992 39.1197L4.54115 44.2326C4.92928 44.7178 5.51676 45 6.13777 45H25.5689C26.3575 45 27.0773 44.5466 27.416 43.8338C27.7548 43.1211 27.6542 42.2777 27.1567 41.6655L16.8625 28.9944H16.8607Z" fill="#2269A6"/>
<path fill-rule="evenodd" clip-rule="evenodd" d="M42.3554 40.4853L35.856 33.9874C33.5731 31.7027 29.9088 31.5809 27.4777 33.7087L22.1763 38.347C21.4759 38.9592 21.2765 39.9684 21.6929 40.8011L22.7161 42.8459C23.0619 43.5393 23.7711 43.9768 24.5456 43.9768H40.9088C41.7362 43.9768 42.4824 43.4793 42.7982 42.7136C43.114 41.9497 42.9394 41.071 42.3554 40.4853Z" fill="#2269A6"/>
<path fill-rule="evenodd" clip-rule="evenodd" d="M29.6583 0C21.1865 0 14.3184 6.86838 14.3184 15.3405C14.3184 23.8126 21.1865 30.681 29.6583 30.681C38.1301 30.681 44.9999 23.8126 44.9999 15.3405C44.9999 6.86838 38.1318 0 29.6583 0ZM31.1049 22.9234C30.3057 23.7226 29.0108 23.7226 28.2116 22.9234L22.0756 16.7872L24.969 13.8938L27.6135 16.5385V7.15773H31.7048V16.5385L34.3493 13.8938L37.2409 16.7872L31.1049 22.9234Z" fill="#F5A545"/>
</svg>
