<svg width="47" height="37" viewBox="0 0 47 37" fill="none" xmlns="http://www.w3.org/2000/svg">
<path d="M38.0867 6.25109C38.6178 6.25109 39.0484 5.82095 39.0484 5.28937L39.0484 4.00974C42.9319 7.98482 45.0766 13.2179 45.0766 18.7845C45.0766 24.4355 42.8756 29.7484 38.8794 33.7447C38.5037 34.1203 38.5037 34.7289 38.8794 35.1046C39.2551 35.4803 39.8636 35.4803 40.2393 35.1046C44.599 30.7459 47 24.9492 47 18.7845C47 12.7035 44.6598 6.98342 40.4119 2.64463L41.6932 2.64463C42.2243 2.64463 42.6549 2.21448 42.6549 1.68291C42.6549 1.15134 42.2243 0.721191 41.6932 0.721191L38.0867 0.721191C37.5556 0.721191 37.125 1.15134 37.125 1.68291L37.125 5.28936C37.125 5.82095 37.5556 6.25109 38.0867 6.25109ZM10.7378 35.9921L10.7378 32.3857C10.7378 31.8541 10.3072 31.4239 9.77605 31.4239C9.24494 31.4239 8.81433 31.8541 8.81433 32.3857L8.81433 33.5869C4.91368 29.6085 2.76084 24.3639 2.76084 18.7845C2.76084 13.1334 4.96135 7.81952 8.95756 3.82331C9.33323 3.44763 9.33323 2.83904 8.95756 2.46338C8.58188 2.08771 7.97329 2.0877 7.59763 2.46338C3.23795 6.82305 0.837402 12.6197 0.837402 18.7845C0.837401 24.915 3.21329 30.6801 7.52695 35.0304L6.1696 35.0304C5.63848 35.0304 5.20787 35.4605 5.20787 35.9921C5.20787 36.5237 5.63848 36.9538 6.1696 36.9538L9.77605 36.9538C10.3072 36.9538 10.7378 36.5237 10.7378 35.9921Z" fill="#F20000"/>
<path d="M20.6511 34.0216C20.7473 34.4543 21.132 34.7621 21.5841 34.7621L26.3638 34.7621C26.8062 34.7621 27.1909 34.4543 27.2966 34.0216L27.9602 31.2517C28.643 31.0404 29.3162 30.7518 29.9799 30.4055L32.3842 31.8769C32.7592 32.1077 33.2496 32.05 33.5575 31.7424L36.9427 28.3764C37.2601 28.0589 37.3177 27.5588 37.0869 27.1836L35.577 24.7507C35.904 24.1062 36.1829 23.433 36.3945 22.7598L39.1642 22.1059C39.5971 22.0001 39.9048 21.6155 39.9048 21.1729L39.9048 16.4028C39.9048 15.9508 39.5971 15.5662 39.1642 15.4603L36.356 14.8064C36.1444 14.1236 35.8655 13.4505 35.529 12.8156L37.01 10.4113C37.2408 10.0363 37.1832 9.54582 36.8657 9.22838L33.4901 5.86236C33.1824 5.54491 32.6919 5.48739 32.3168 5.71819L29.874 7.20867C29.2201 6.88184 28.5373 6.6029 27.8449 6.38172L27.1909 3.65998C27.0851 3.21762 26.7004 2.91943 26.2579 2.91943L21.4782 2.91943C21.0359 2.91943 20.6415 3.21762 20.5454 3.65998L19.8818 6.42023C19.1894 6.64141 18.5162 6.92035 17.8621 7.26643L15.4578 5.78534C15.0829 5.55477 14.5924 5.6123 14.2749 5.92974L10.8897 9.30539C10.5723 9.62284 10.5147 10.1131 10.7551 10.4883L12.2553 12.9215C11.9284 13.5754 11.6591 14.2389 11.4475 14.9217L8.67777 15.5662C8.24493 15.6719 7.93722 16.0567 7.93722 16.5087L7.93722 21.2691C7.93722 21.7115 8.24493 22.0963 8.67777 22.202L11.4764 22.8751C11.6976 23.5485 11.9765 24.2121 12.313 24.8563L10.8224 27.2606C10.582 27.6358 10.6396 28.136 10.957 28.4532L14.3423 31.8192C14.6596 32.127 15.1501 32.1848 15.5252 31.954L17.9584 30.4536C18.6123 30.8 19.2951 31.0786 19.9971 31.2902L20.6511 34.0216ZM16.4388 18.8359C16.4388 14.7198 19.7952 11.373 23.921 11.373C28.0468 11.373 31.4032 14.7198 31.4032 18.836C31.4032 22.9521 28.0468 26.2989 23.921 26.2989C19.7952 26.2989 16.4388 22.9521 16.4388 18.8359Z" fill="#2269A6"/>
</svg>
