<svg width="88" height="96" viewBox="0 0 88 96" fill="none" xmlns="http://www.w3.org/2000/svg">
<path d="M43.5042 56.6092C33.6142 56.6092 23.7243 56.6092 13.855 56.6092C13.4412 56.6092 13.0067 56.6092 12.5929 56.6299C11.7032 56.7126 11.1446 57.2088 10.9998 58.098C10.9377 58.5115 10.917 58.9458 10.917 59.3593C10.917 64.7148 10.917 70.091 10.917 75.4465C10.917 76.6252 10.8963 76.6458 9.69626 76.6458C7.39964 76.6665 5.20647 76.377 3.30296 74.8882C1.27531 73.3374 0.0752766 71.311 0.0545864 68.809C-0.0281748 59.0285 -0.00748452 49.2273 0.0545864 39.4467C0.0752766 35.6834 3.75815 32.0441 7.52378 31.9407C10.5239 31.8373 13.5447 31.858 16.5654 31.8167C17.7034 31.8167 17.7241 31.796 17.7241 30.6587C17.7241 25.572 17.7241 20.4853 17.7241 15.3779C17.7241 13.2068 17.931 13 20.0828 13C34.2763 13 48.4699 13 62.6634 13C64.2979 13 65.9118 13 67.5463 13C68.974 13 69.3671 13.4549 69.3671 14.8403C69.3671 20.1131 69.3671 25.3859 69.3464 30.6587C69.3464 31.5892 69.6567 31.8373 70.5464 31.8373C73.5258 31.8373 76.5052 31.8373 79.4846 31.9201C83.002 32.0234 86.54 35.3319 86.8917 38.8264C86.9952 39.7569 87.0366 40.6874 87.0366 41.6179C87.0366 50.3232 87.0366 59.0285 87.0366 67.7338C87.0366 70.6493 86.1055 73.11 83.7261 74.9089C81.595 76.5218 79.1329 76.7699 76.588 76.6045C76.4225 76.6045 76.1328 76.1703 76.1328 75.9221C76.1328 70.4632 76.1328 65.025 76.1328 59.5661C76.1328 59.2559 76.1328 58.9664 76.1328 58.6563C76.0914 57.2915 75.4086 56.6092 74.0431 56.6092C70.7947 56.6092 67.5256 56.6092 64.2772 56.6092C57.346 56.6092 50.4148 56.6092 43.4835 56.6092H43.5042ZM20.5587 15.8949C20.538 16.3291 20.4966 16.6599 20.4966 16.9908C20.4966 25.2205 20.4966 33.4295 20.4966 41.6592C20.4966 42.9413 20.538 42.9619 21.8208 42.9619C36.3247 42.9619 50.8079 42.9619 65.3118 42.9619C66.5739 42.9619 66.5739 42.9619 66.5739 41.7213C66.5739 33.595 66.5739 25.4686 66.5739 17.3216C66.5739 16.3567 66.0911 15.8742 65.1255 15.8742C50.6217 15.8742 36.1385 15.8742 21.6346 15.8742C21.3035 15.8742 20.9725 15.8742 20.5587 15.8742V15.8949Z" fill="#2269A6"/>
<path d="M43.5663 57.6432C53.5597 57.6432 63.5738 57.6432 73.5672 57.6432C75.0983 57.6432 75.1397 57.6639 75.1397 59.1734C75.1397 64.6323 75.1397 70.1119 75.181 75.5708C75.181 76.3565 74.7672 76.646 74.0431 76.646C72.781 76.646 71.5189 76.646 70.2567 76.646C69.6153 76.646 69.3464 76.8735 69.3464 77.5351C69.3671 82.932 69.3464 88.3082 69.3878 93.7051C69.3878 94.863 68.9739 95.38 67.8153 95.442C67.5049 95.442 67.2153 95.442 66.9049 95.442C51.3251 95.442 35.7453 95.442 20.1656 95.442C19.8966 95.442 19.6276 95.442 19.3586 95.442C18.0758 95.4006 17.7034 95.0284 17.7034 93.7464C17.7034 88.453 17.7034 83.1388 17.7034 77.8453C17.7034 76.6667 17.7034 76.646 16.4827 76.646C15.3033 76.646 14.124 76.646 12.9653 76.646C12.2412 76.646 11.9308 76.3358 11.9308 75.6121C11.9308 69.9878 11.9308 64.3428 11.9308 58.7185C11.9308 57.7053 12.5101 57.6226 13.2757 57.6226C21.0139 57.6226 28.7727 57.6226 36.5109 57.6226C38.8696 57.6226 41.2076 57.6226 43.5663 57.6226V57.6432ZM43.5456 92.5678C50.8286 92.5678 58.1322 92.5678 65.4152 92.5678C66.2428 92.5678 66.5739 92.3404 66.5739 91.4512C66.5532 83.3869 66.5532 75.3226 66.5739 67.2377C66.5739 66.4106 66.3049 66.1418 65.4773 66.1418C50.8699 66.1418 36.2626 66.1624 21.6346 66.1418C20.7242 66.1418 20.4552 66.4312 20.4552 67.3411C20.4759 75.3226 20.4552 83.3042 20.4552 91.2858C20.4552 92.5058 20.4966 92.5471 21.738 92.5471C29.0003 92.5471 36.2626 92.5471 43.5249 92.5471L43.5456 92.5678Z" fill="#29568C"/>
<path d="M42.6766 88.763C37.6074 88.763 32.559 88.763 27.4899 88.763C26.8692 88.763 25.9588 88.9698 25.9795 87.9772C26.0002 87.0674 26.8899 87.2949 27.4899 87.2949C37.6488 87.2949 47.7871 87.2949 57.946 87.2949C58.546 87.2949 59.4771 87.0468 59.4564 88.06C59.415 88.9698 58.546 88.763 57.946 88.763C52.8562 88.763 47.7664 88.763 42.6766 88.763Z" fill="#29568C"/>
<path d="M42.6766 83.0352C37.5868 83.0352 32.497 83.0352 27.4071 83.0352C27.0968 83.0352 26.7657 83.0972 26.5175 82.9938C26.2899 82.8904 26.0002 82.6216 26.0002 82.4148C26.0002 82.1874 26.2485 81.8979 26.4761 81.7738C26.683 81.6498 26.9933 81.7118 27.283 81.7118C37.5454 81.7118 47.8285 81.7118 58.0908 81.7118C58.2357 81.7118 58.4012 81.7118 58.546 81.7118C59.0219 81.7118 59.4978 81.7738 59.4771 82.4148C59.4771 83.0352 58.9598 83.0765 58.5046 83.0765C53.2286 83.0765 47.9733 83.0765 42.6973 83.0765L42.6766 83.0352Z" fill="#29568C"/>
<path d="M34.5867 71.9935C32.1452 71.9935 29.7038 71.9935 27.283 71.9935C26.9933 71.9935 26.6623 71.9935 26.3933 71.8901C26.1864 71.7867 25.9795 71.4972 25.9795 71.2905C25.9795 71.0837 26.1864 70.7528 26.3726 70.6701C26.7244 70.5461 27.1382 70.5254 27.5106 70.5254C32.228 70.5254 36.966 70.5254 41.6834 70.5254C41.7455 70.5254 41.8076 70.5254 41.8696 70.5254C42.4076 70.5461 43.0697 70.484 43.0904 71.2491C43.1111 72.0349 42.449 71.9935 41.911 71.9935C39.4696 71.9935 37.0281 71.9935 34.6074 71.9935H34.5867Z" fill="#29568C"/>
<path d="M34.5867 76.0877C36.9247 76.0877 39.2834 76.0877 41.6214 76.0877C41.911 76.0877 42.2628 76.0463 42.511 76.1704C42.7593 76.2944 43.049 76.6253 43.049 76.8527C43.049 77.0802 42.7386 77.3697 42.4697 77.5144C42.2628 77.6385 41.9317 77.5765 41.6627 77.5765C36.904 77.5765 32.1659 77.5765 27.4071 77.5765C27.283 77.5765 27.1588 77.5765 27.0554 77.5765C26.5174 77.5765 25.9381 77.5144 25.9588 76.8114C25.9588 76.1084 26.5795 76.0877 27.0968 76.0877C29.6003 76.0877 32.0831 76.0877 34.5867 76.0877Z" fill="#29568C"/>
<rect x="27.0366" width="32" height="39" fill="#F6AA50"/>
<path d="M45.9945 28.7818C45.0858 28.8561 44.2669 28.9257 43.3581 29C43.3082 28.61 43.2283 28.2478 43.2233 27.8903C43.2233 27.4121 43.0485 27.2356 42.4843 27.1892C41.5356 27.1056 40.6018 26.8781 39.6082 26.7017C39.7929 25.6384 39.9527 24.7145 40.1275 23.7023C40.437 23.7998 40.6867 23.888 40.9414 23.9669C42.0299 24.3105 43.1484 24.5194 44.2768 24.2362C44.6264 24.148 45.0558 23.8416 45.1706 23.5444C45.3554 23.0708 44.881 22.7969 44.4466 22.6483C43.9173 22.4672 43.3481 22.3836 42.8338 22.1747C41.955 21.8218 40.9813 21.5432 40.2723 20.9861C38.4847 19.5792 38.6844 17.1184 40.5619 15.8091C40.5818 15.7951 40.6018 15.7858 40.6218 15.7719C41.0961 15.4701 41.7702 15.2612 41.9949 14.8387C42.2146 14.4347 41.97 13.8172 41.925 13.2229C42.7988 13.1486 43.6577 13.0789 44.5814 13C44.6513 13.5525 44.7113 14.0679 44.7712 14.5369C45.635 14.6901 46.4389 14.834 47.2428 14.9733C47.6273 15.0429 47.8021 15.2055 47.7122 15.6094C47.5474 16.3569 47.4326 17.1138 47.3077 17.8241C46.3291 17.6941 45.4103 17.5409 44.4816 17.4666C44.0971 17.4341 43.6777 17.527 43.3132 17.6523C43.1134 17.722 42.8887 17.9867 42.8787 18.1724C42.8687 18.3535 43.0685 18.6413 43.2582 18.7156C43.8774 18.971 44.5365 19.1567 45.1806 19.3703C45.7149 19.5467 46.2692 19.6767 46.7735 19.9042C48.1816 20.5403 49.0005 21.5572 49.0354 23.0569C49.0704 24.5519 48.3064 25.6849 46.9482 26.321C46.0145 26.7574 45.7099 27.2403 45.9546 28.1271C46.0045 28.3128 45.9845 28.5125 45.9995 28.7818H45.9945Z" fill="white"/>
</svg>
