<svg width="95" height="99" viewBox="0 0 95 99" fill="none" xmlns="http://www.w3.org/2000/svg">
<path d="M62.6979 0.00778534C53.2387 11.2887 43.8262 22.5074 34.3826 33.765C34.6551 33.9285 34.8497 34.0608 35.0522 34.1698C37.995 35.8203 40.9534 37.4475 43.873 39.1291C46.2397 40.4915 47.4776 42.6014 47.3374 45.3262C47.0961 50.0286 42.5105 52.8157 38.4621 51.4455C35.5894 50.4801 32.6932 49.5926 29.8048 48.6739C29.3222 48.5182 28.8317 48.3703 28.3412 48.2224C28.3256 48.2613 28.3101 48.2924 28.2945 48.3314C34.9821 53.9368 41.6619 59.55 48.3962 65.1944C61.0863 50.0675 73.7219 34.9951 86.3965 19.8915C78.4788 13.2506 70.6156 6.64868 62.6979 0V0.00778534Z" fill="#29568C"/>
<path d="M94.9993 89.0642C94.7579 89.2977 94.5244 89.5313 94.283 89.7571C93.4266 89.8427 92.5936 89.9206 91.7606 89.9984C88.2961 90.3254 84.8316 90.6446 81.3671 90.9638C78.689 91.2129 76.0108 91.4699 73.3327 91.6878C73.1069 91.7034 72.7799 91.501 72.632 91.2986C71.4175 89.6092 69.8682 88.4491 67.7817 88.1377C66.9409 88.0132 66.0845 87.9587 65.2281 87.9587C60.2689 87.9353 55.3096 87.8419 50.3504 87.9742C45.9672 88.091 42.1446 86.7052 38.758 84.0738C36.7027 82.4778 34.8108 80.6716 32.8489 78.9588C30.5756 76.9813 28.3257 74.9805 26.0368 73.0186C24.2461 71.4849 23.9347 69.0092 25.3439 67.164C26.7063 65.389 29.2288 65.0542 31.1439 66.3777C35.0444 69.0792 38.9371 71.7885 42.8531 74.4589C44.9396 75.8758 47.2907 76.5531 49.8054 76.5687C54.8736 76.6076 59.9341 76.5843 65.0024 76.5765C65.921 76.5765 66.5439 76.0393 66.5283 75.2919C66.5205 74.5367 65.921 74.0307 64.9946 73.9996C64.8 73.9996 64.6131 73.9996 64.4185 73.9996C61.4289 73.9996 58.4315 74.0151 55.442 73.9996C53.8304 73.9918 52.6548 73.1899 52.0009 71.7496C51.3391 70.3015 51.4481 68.869 52.4758 67.5922C53.1998 66.6969 54.1885 66.222 55.333 66.2142C61.9817 66.1987 68.6226 66.1519 75.2712 66.2298C78.1674 66.2609 81.0168 66.7203 83.5393 68.3474C85.8982 69.8655 87.4553 72.061 88.7944 74.4511C90.6784 77.8144 92.0408 81.4112 93.4033 85.008C93.9093 86.3471 94.4387 87.6784 94.9837 89.0798L94.9993 89.0642Z" fill="#2269A6"/>
<path d="M43.5226 18.5058C42.3548 19.8993 41.2415 21.2384 40.1126 22.5775C38.1897 24.8664 36.2745 27.163 34.3359 29.4364C34.1491 29.6544 33.7832 29.8178 33.4873 29.8412C32.6154 29.8957 31.7356 29.8568 30.8637 29.8646C29.6725 29.8723 28.6682 30.612 28.4113 31.6552C28.1388 32.7529 28.6059 33.7884 29.6881 34.3956C33.9311 36.7857 38.1819 39.1602 42.4171 41.5503C44.5347 42.7415 45.1653 45.334 43.8418 47.2804C42.8609 48.7206 41.1092 49.3435 39.373 48.7985C35.4648 47.5684 31.5721 46.2994 27.6717 45.0537C27.0177 44.8435 26.3715 44.6333 25.7176 44.4465C23.3897 43.777 21.4278 42.5079 19.9331 40.6239C18.5395 38.8566 16.9435 38.2961 14.7636 39.0746C13.1287 39.6663 11.3925 39.9933 9.70312 40.4293C9.53963 40.4682 9.37614 40.4915 9.13479 40.5305C9.11922 40.2813 9.08808 40.0789 9.08808 39.8765C9.08808 33.7417 9.08808 27.6146 9.07251 21.4798C9.07251 20.9192 9.22043 20.7012 9.78876 20.7635C10.9643 20.8881 12.0621 20.5689 13.1754 20.2419C17.0836 19.0974 21.0152 18.0231 24.9157 16.8631C27.6483 16.0456 30.381 16.1001 33.1526 16.6061C36.508 17.2212 39.8713 17.7973 43.2346 18.389C43.2968 18.3968 43.3513 18.4357 43.5148 18.5058H43.5226Z" fill="#2269A6"/>
<path d="M0.0103804 18.42C0.220585 18.4044 0.384077 18.3811 0.547569 18.3811C2.16692 18.3811 3.79405 18.3966 5.4134 18.3655C5.92724 18.3577 6.06737 18.5212 6.05959 19.0273C6.03623 21.0748 6.0518 23.1301 6.0518 25.1777C6.0518 31.3904 6.0518 37.6108 6.0518 43.8235C6.0518 44.4568 5.72482 44.7734 5.07085 44.7734C4.44802 44.7734 3.82519 44.7266 3.21794 44.7889C2.56397 44.859 2.35377 44.5709 2.31484 43.9793C2.20585 42.5312 2.07349 41.0909 1.93336 39.6428C1.50516 35.0339 1.07697 30.425 0.648778 25.8161C0.438574 23.5895 0.220585 21.3629 0.0103804 19.1362C-0.0129756 18.9105 0.0103804 18.6769 0.0103804 18.42Z" fill="#2269A6"/>
<path d="M90.4137 93.1282C87.9769 95.0823 85.3844 96.8573 82.6595 98.43H71.472V94.8877C77.7859 94.3038 84.092 93.7199 90.4137 93.1282Z" fill="#2269A6"/>
<path d="M61.3496 37.7272C60.259 37.8201 59.2764 37.9071 58.1858 38C58.1259 37.5125 58.03 37.0598 58.0241 36.6129C58.0241 36.0151 57.8143 35.7945 57.1373 35.7365C55.9988 35.632 54.8783 35.3476 53.6859 35.1271C53.9076 33.798 54.0994 32.6431 54.3091 31.3778C54.6806 31.4997 54.9802 31.61 55.2858 31.7086C56.592 32.1381 57.9342 32.3993 59.2883 32.0453C59.7078 31.935 60.2231 31.5519 60.3609 31.1805C60.5826 30.5885 60.0134 30.2461 59.4921 30.0604C58.8569 29.834 58.1739 29.7295 57.5567 29.4684C56.5021 29.0273 55.3337 28.679 54.4828 27.9826C52.3377 26.224 52.5774 23.148 54.8304 21.5113C54.8543 21.4939 54.8783 21.4823 54.9023 21.4649C55.4715 21.0876 56.2804 20.8265 56.55 20.2983C56.8137 19.7934 56.5201 19.0215 56.4662 18.2786C57.5147 18.1857 58.5453 18.0987 59.6539 18C59.7377 18.6907 59.8096 19.3349 59.8815 19.9211C60.9181 20.1126 61.8828 20.2925 62.8475 20.4666C63.3089 20.5537 63.5186 20.7568 63.4108 21.2618C63.213 22.1962 63.0752 23.1422 62.9254 24.0302C61.751 23.8677 60.6485 23.6761 59.534 23.5833C59.0726 23.5427 58.5693 23.6587 58.1319 23.8154C57.8922 23.9025 57.6226 24.2333 57.6106 24.4655C57.5986 24.6918 57.8383 25.0517 58.066 25.1445C58.809 25.4637 59.5999 25.6959 60.3729 25.9629C61.014 26.1834 61.6791 26.3459 62.2843 26.6303C63.974 27.4254 64.9567 28.6965 64.9986 30.5711C65.0406 32.4399 64.1238 33.8561 62.494 34.6512C61.3735 35.1967 61.008 35.8003 61.3016 36.9089C61.3615 37.141 61.3376 37.3906 61.3555 37.7272H61.3496Z" fill="white"/>
<path d="M62.6979 0.00778534C53.2387 11.2887 43.8262 22.5074 34.3826 33.765C34.6551 33.9285 34.8497 34.0608 35.0522 34.1698C37.995 35.8203 40.9534 37.4475 43.873 39.1291C46.2397 40.4915 47.4776 42.6014 47.3374 45.3262C47.0961 50.0286 42.5105 52.8157 38.4621 51.4455C35.5894 50.4801 32.6932 49.5926 29.8048 48.6739C29.3222 48.5182 28.8317 48.3703 28.3412 48.2224C28.3256 48.2613 28.3101 48.2924 28.2945 48.3314C34.9821 53.9368 41.6619 59.55 48.3962 65.1944C61.0863 50.0675 73.7219 34.9951 86.3965 19.8915C78.4788 13.2506 70.6156 6.64868 62.6979 0V0.00778534Z" fill="#F6AA50"/>
<path d="M61.3496 37.7272C60.259 37.8201 59.2764 37.9071 58.1858 38C58.1259 37.5125 58.03 37.0598 58.0241 36.6129C58.0241 36.0151 57.8143 35.7945 57.1373 35.7365C55.9988 35.632 54.8783 35.3476 53.6859 35.1271C53.9076 33.798 54.0994 32.6431 54.3091 31.3778C54.6806 31.4997 54.9802 31.61 55.2858 31.7086C56.592 32.1381 57.9342 32.3993 59.2883 32.0453C59.7078 31.935 60.2231 31.5519 60.3609 31.1805C60.5826 30.5885 60.0134 30.2461 59.4921 30.0604C58.8569 29.834 58.1739 29.7295 57.5567 29.4684C56.5021 29.0273 55.3337 28.679 54.4828 27.9826C52.3377 26.224 52.5774 23.148 54.8304 21.5113C54.8543 21.4939 54.8783 21.4823 54.9023 21.4649C55.4715 21.0876 56.2804 20.8265 56.55 20.2983C56.8137 19.7934 56.5201 19.0215 56.4662 18.2786C57.5147 18.1857 58.5453 18.0987 59.6539 18C59.7377 18.6907 59.8096 19.3349 59.8815 19.9211C60.9181 20.1126 61.8828 20.2925 62.8475 20.4666C63.3089 20.5537 63.5186 20.7568 63.4108 21.2618C63.213 22.1962 63.0752 23.1422 62.9254 24.0302C61.751 23.8677 60.6485 23.6761 59.534 23.5833C59.0726 23.5427 58.5693 23.6587 58.1319 23.8154C57.8922 23.9025 57.6226 24.2333 57.6106 24.4655C57.5986 24.6918 57.8383 25.0517 58.066 25.1445C58.809 25.4637 59.5999 25.6959 60.3729 25.9629C61.014 26.1834 61.6791 26.3459 62.2843 26.6303C63.974 27.4254 64.9567 28.6965 64.9986 30.5711C65.0406 32.4399 64.1238 33.8561 62.494 34.6512C61.3735 35.1967 61.008 35.8003 61.3016 36.9089C61.3615 37.141 61.3376 37.3906 61.3555 37.7272H61.3496Z" fill="white"/>
</svg>
