<svg width="97" height="97" viewBox="0 0 97 97" fill="none" xmlns="http://www.w3.org/2000/svg">
<g clip-path="url(#clip0_36_69)">
<path d="M12.5577 70.3239C12.5762 51.4852 12.5947 32.6403 12.6071 13.8017C12.6195 5.23749 17.8081 -0.00625933 26.3137 5.60745e-06C39.0752 0.0125355 51.8367 0.0501251 64.5983 0.0814498C61.7445 1.20914 59.7988 3.1638 59.7556 6.39024C59.6814 12.7805 59.7803 19.177 59.805 25.5672C59.7864 44.4059 59.7679 63.2508 59.7556 82.0895C59.7494 90.5471 54.5546 95.8974 46.2713 95.8911C33.4357 95.8911 20.6 95.841 7.76439 95.8159C10.6243 94.6945 12.5639 92.7336 12.6071 89.5071C12.6812 83.1169 12.5824 76.7204 12.5577 70.3302V70.3239ZM36.1844 31.9011C43.1273 31.9011 48.8162 26.2751 48.8656 19.3649C48.9212 12.3419 43.1952 6.42783 36.2956 6.38397C29.3527 6.34012 23.5155 12.154 23.5032 19.1331C23.4847 26.2 29.1489 31.9073 36.1782 31.9073L36.1844 31.9011ZM36.3388 44.5938C30.6005 44.5938 24.8621 44.6251 19.1238 44.5688C17.7525 44.5562 17.1101 44.8319 17.1224 46.4169C17.1348 47.933 17.8019 48.1147 19.0373 48.1147C30.4399 48.0834 41.8425 48.0771 53.2513 48.1147C54.6102 48.1147 55.2464 47.8766 55.2526 46.2728C55.2588 44.5061 54.3075 44.5688 53.1154 44.575C47.5252 44.6001 41.9351 44.5876 36.345 44.5876L36.3388 44.5938ZM36.1782 57.3555C30.514 57.3555 24.8498 57.3743 19.1855 57.3367C17.9193 57.3304 17.1039 57.4056 17.1163 59.1034C17.1224 60.7887 17.9193 60.8701 19.1917 60.8701C30.5202 60.8388 41.8487 60.8388 53.171 60.8701C54.4434 60.8701 55.2464 60.7887 55.2464 59.1034C55.2464 57.4119 54.4372 57.3304 53.1648 57.3367C47.5005 57.3743 41.8363 57.3555 36.1721 57.3555H36.1782ZM36.0732 73.5754C41.7436 73.5754 47.4141 73.5691 53.0845 73.5817C54.2457 73.5817 55.2711 73.732 55.2341 71.9215C55.2032 70.2675 54.2952 70.3552 53.1957 70.3552C41.8548 70.3678 30.5202 70.3678 19.1793 70.3552C18.086 70.3552 17.1718 70.2613 17.141 71.9152C17.1039 73.7258 18.1231 73.5817 19.2905 73.5817C24.8868 73.5629 30.4831 73.5754 36.0732 73.5754ZM36.1968 86.3183C41.8672 86.3183 47.5376 86.312 53.208 86.3246C54.3013 86.3246 55.2341 86.4436 55.2341 84.7709C55.2341 83.2171 54.5114 83.1044 53.3069 83.1044C41.8919 83.1294 30.4769 83.1357 19.0558 83.1044C17.8328 83.1044 17.1471 83.2485 17.141 84.7834C17.141 86.4749 18.1046 86.3246 19.1793 86.3246C24.8498 86.312 30.5202 86.3246 36.1906 86.3246L36.1968 86.3183ZM45.5733 41.7119C48.3344 41.7119 51.1017 41.6681 53.8628 41.7307C55.2464 41.7621 55.197 40.9163 55.2093 39.9578C55.2217 38.9679 55.1846 38.2036 53.8319 38.2161C48.3838 38.2662 42.9296 38.2788 37.4816 38.2161C35.9744 38.1973 36.0485 39.0681 36.0176 40.1144C35.9868 41.2233 36.2709 41.7809 37.5125 41.7433C40.1994 41.6681 42.8864 41.7182 45.5733 41.7182V41.7119ZM26.8511 50.9778C24.2382 50.9778 21.6254 51.0279 19.0126 50.959C17.7401 50.9277 17.1101 51.2033 17.1286 52.6944C17.1471 54.0852 17.5795 54.5175 18.9446 54.5049C24.1703 54.4423 29.396 54.436 34.6155 54.5049C36.0423 54.5237 36.3821 53.985 36.3759 52.6505C36.3697 51.3662 35.962 50.9214 34.6896 50.959C32.0768 51.0342 29.4639 50.9841 26.8511 50.9841V50.9778ZM45.598 67.204C48.2788 67.204 50.9658 67.1601 53.6466 67.2228C54.8078 67.2478 55.2341 66.8406 55.2032 65.6565C55.1723 64.5476 55.0796 63.7395 53.6836 63.7457C48.3159 63.7771 42.9543 63.7771 37.5866 63.7457C36.2091 63.7332 36.0423 64.4975 36.0238 65.6252C36.0053 66.7717 36.345 67.2541 37.5495 67.2228C40.2303 67.1539 42.9173 67.204 45.598 67.204ZM26.6164 79.9469C29.291 79.9469 31.9718 79.8967 34.6464 79.9656C35.8694 79.997 36.3883 79.6336 36.3574 78.3117C36.3265 77.159 35.9806 76.7079 34.807 76.7204C29.4516 76.7643 24.0962 76.7643 18.747 76.7204C17.6166 76.7141 17.178 77.065 17.1657 78.2678C17.1533 79.5334 17.5301 80.0032 18.8149 79.9656C21.4154 79.8842 24.0221 79.9406 26.6225 79.9406L26.6164 79.9469ZM25.1277 41.6869C26.4866 41.95 26.987 41.3924 26.9376 39.9828C26.9005 38.8238 26.7337 38.1472 25.3563 38.2036C24.1827 38.2474 23.3549 38.2913 23.4229 39.8575C23.4785 41.0917 23.5958 41.9876 25.1277 41.6869ZM31.6135 41.6618C33.096 42.0878 33.1824 41.1105 33.2195 39.8889C33.2627 38.6171 32.8242 38.1911 31.5579 38.1973C30.2731 38.1973 29.6801 38.4918 29.7048 39.9515C29.7295 41.3047 30.094 41.9688 31.6135 41.6681V41.6618ZM41.0148 54.4235C42.4416 54.8307 42.5961 53.9348 42.664 52.6756C42.7381 51.1783 42.0401 50.959 40.7924 50.9465C39.5014 50.9277 39.1432 51.4163 39.1493 52.6693C39.1493 53.9787 39.4458 54.7367 41.021 54.4298L41.0148 54.4235ZM47.2905 54.4486C48.8718 54.743 48.878 53.7532 48.9459 52.5691C49.0386 50.9527 48.1059 51.0091 46.9817 50.9527C45.561 50.8838 45.493 51.6669 45.4374 52.7758C45.3633 54.2356 45.9872 54.6804 47.2905 54.4486ZM20.5939 39.9076C20.7792 38.3665 19.8588 38.26 18.6667 38.2036C17.2089 38.1347 17.1966 38.9554 17.1533 40.0392C17.1039 41.3047 17.5116 41.7683 18.8026 41.7495C20.1306 41.7307 20.7915 41.311 20.6 39.9076H20.5939ZM55.1599 52.5127C55.4688 51.291 54.8017 50.9715 53.5725 50.9527C52.2197 50.9339 51.7379 51.4289 51.7317 52.8009C51.7317 54.2982 52.4915 54.4799 53.7022 54.5112C55.129 54.5551 55.3144 53.7907 55.1599 52.519V52.5127ZM25.0845 63.7645C23.7132 63.5014 23.4723 64.3534 23.4291 65.6189C23.3797 66.9784 23.9788 67.2541 25.1648 67.2416C26.3075 67.229 26.9808 67.0473 26.9376 65.6503C26.9005 64.3973 26.6658 63.5515 25.0907 63.7645H25.0845ZM31.4652 67.1914C32.6636 67.3857 33.2442 66.9972 33.2257 65.6377C33.2071 64.3472 32.8921 63.6956 31.4714 63.7019C30.0631 63.7019 29.7234 64.3284 29.711 65.6315C29.6986 66.991 30.2607 67.3857 31.4652 67.1914ZM19.0311 67.1601C20.3221 67.4608 20.5692 66.6527 20.6062 65.4748C20.6433 64.2156 20.18 63.7332 18.9137 63.7207C17.5054 63.7019 17.1595 64.3158 17.1471 65.6377C17.1348 67.0285 17.7401 67.3606 19.0249 67.1601H19.0311ZM40.9159 76.7705C39.9029 76.5888 39.1246 76.7517 39.1555 78.1989C39.174 79.3266 39.3099 80.0659 40.6936 79.9844C41.7931 79.9218 42.732 80.022 42.6578 78.3994C42.6084 77.1777 42.2996 76.5325 40.9159 76.7705ZM47.2844 79.9343C48.5197 80.1536 48.9336 79.6148 48.9459 78.3368C48.9521 77.0149 48.4209 76.7204 47.2349 76.6954C45.9069 76.6703 45.4251 77.0963 45.4313 78.4809C45.4436 79.9218 46.1849 80.0659 47.2844 79.9343ZM55.1414 78.3054C55.4688 77.0462 54.8017 76.7141 53.5663 76.7141C52.4297 76.7141 51.9973 77.0838 51.9788 78.2741C51.9603 79.5522 52.3803 80.0032 53.6466 79.9719C54.7646 79.9469 55.3761 79.6587 55.1414 78.2992V78.3054Z" fill="#2269A6"/>
<path d="M59.8112 25.5609C59.7864 19.1706 59.6876 12.7741 59.7617 6.3839C59.7988 3.15746 61.7507 1.2028 64.6044 0.0751092C69.8054 -0.169223 72.3194 2.25531 72.3256 7.52412C72.3256 12.6488 72.2453 17.7673 72.3688 22.892C72.4183 24.878 71.992 25.6862 69.8363 25.5671C66.5069 25.3792 63.1529 25.5483 59.8112 25.5671V25.5609Z" fill="#29568C"/>
<path d="M12.5577 70.3238C12.5824 76.714 12.6874 83.1105 12.6071 89.5008C12.57 92.721 10.6243 94.6881 7.76439 95.8096C2.56342 96.0539 0.0494135 93.6294 0.0432365 88.3606C0.0432365 83.2358 0.123537 78.1174 -1.93971e-06 72.9927C-0.0494173 71.0067 0.37679 70.1985 2.53254 70.3175C5.8619 70.5055 9.21597 70.3363 12.5577 70.3175V70.3238Z" fill="#29568C"/>
<path d="M36.1844 31.901C29.1551 31.901 23.4908 26.1937 23.5094 19.1268C23.5217 12.1477 29.3589 6.33383 36.3018 6.37769C43.2014 6.42154 48.9274 12.3356 48.8718 19.3586C48.8162 26.2751 43.1273 31.8948 36.1906 31.8948L36.1844 31.901ZM36.3327 21.6453C36.1474 22.0275 35.9188 22.4974 35.6964 22.9735C35.2393 23.9446 34.4055 24.7465 36.1226 25.6173C37.7534 26.4443 37.9943 25.5108 38.4761 24.4771C38.9887 23.387 39.5261 22.3157 40.0573 21.2318C41.5027 18.2811 41.1568 17.642 37.8892 17.7047C36.1288 17.736 35.4494 17.3789 36.5303 15.6373C36.728 15.3178 36.8392 14.9481 37.0368 14.6286C37.7225 13.5322 36.9318 13.2002 36.1721 12.7992C35.3999 12.3983 34.7328 12.0161 34.214 13.1877C33.4542 14.9043 32.5462 16.5582 31.7617 18.2685C31.0699 19.7721 31.7803 20.5803 33.2318 20.8121C33.9607 20.9311 34.7205 20.8309 35.4617 20.856C35.8941 20.8685 36.4068 20.8246 36.3327 21.6391V21.6453Z" fill="white"/>
<path d="M36.3327 21.6453C36.413 20.8309 35.8941 20.8747 35.4617 20.8622C34.7205 20.8371 33.9607 20.9311 33.2319 20.8183C31.7803 20.5865 31.0699 19.7784 31.7617 18.2748C32.5462 16.5644 33.4481 14.9105 34.214 13.1939C34.7329 12.0224 35.4 12.4108 36.1721 12.8055C36.938 13.2002 37.7287 13.5322 37.0368 14.6348C36.8392 14.9544 36.728 15.324 36.5303 15.6435C35.4494 17.3851 36.1288 17.7485 37.8893 17.7109C41.1569 17.6483 41.4966 18.2873 40.0574 21.2381C39.5323 22.3219 38.9888 23.3932 38.4761 24.4833C37.9943 25.5108 37.7472 26.4442 36.1227 25.6235C34.4055 24.7527 35.2394 23.9445 35.6965 22.9797C35.9188 22.5036 36.1474 22.0337 36.3327 21.6516V21.6453Z" fill="#1261A5"/>
</g>
<g clip-path="url(#clip1_36_69)">
<path d="M91.0726 71.6041C91.503 71.252 91.9268 70.8999 92.3572 70.5542C93.6679 69.4979 95.0503 70.1239 95.735 71.0564C95.7676 71.089 95.7611 71.1737 95.8458 71.1411H95.8328C96.0545 71.7606 96.1719 72.3801 95.911 73.0256C95.7219 73.4951 95.3763 73.8538 95.0633 74.2385C95.0242 74.2907 94.9786 74.3298 94.9329 74.3755C94.0526 75.2884 94.0591 75.3601 94.946 76.2404C95.0633 76.3578 95.122 76.3187 95.2198 76.2274C95.4611 76.0057 95.7024 75.7774 95.9567 75.5688C96.3284 75.2623 96.4914 75.3014 96.9022 75.7644C97.0652 75.947 97.0326 76.3969 96.8435 76.586C95.8393 77.5381 94.8742 78.5357 93.9091 79.5269C92.8528 80.6094 91.7899 81.6788 90.7205 82.7547C90.5053 82.9699 90.2705 83.1525 89.951 83.2046C89.4033 83.2894 89.0968 82.9503 89.2728 82.4221C89.4033 82.0309 89.7228 81.7831 89.9901 81.5027C91.2552 80.2116 92.5202 78.927 93.8048 77.6619C94.0656 77.4011 94.033 77.2577 93.7722 77.0294C93.1462 76.4686 92.931 76.4491 92.3376 77.0359C90.6879 78.6792 89.0446 80.3224 87.4079 81.9722C86.7623 82.6243 86.1363 83.2829 85.5103 83.948C85.3669 84.098 85.2821 84.1176 85.1191 83.9611C84.2127 83.0873 83.3715 82.1548 82.4194 81.3266C82.0152 80.9745 82.0282 80.6289 82.4129 80.2507C83.5215 79.1617 84.6561 78.1054 85.732 76.9968C87.4927 75.184 89.2663 73.3843 91.0726 71.6041Z" fill="#F5A545"/>
<path d="M70.0559 91.4599C70.5972 91.2122 71.1319 90.9904 71.647 90.7296C72.5078 90.2927 73.2577 90.4623 73.9489 91.0817C74.0206 91.1469 74.0989 91.2122 74.1836 91.2904C74.3532 91.1535 74.3336 90.9448 74.3858 90.7753C75.0183 88.7082 76.192 86.9606 77.6136 85.363C78.6569 84.1892 79.7459 83.0481 80.8088 81.8874C80.9588 81.7244 81.024 81.7244 81.1805 81.8743C82.2564 82.9046 83.3389 83.9219 84.4344 84.9522C83.2737 86.1063 82.1977 87.0975 81.1087 88.0691C79.8241 89.2168 78.4482 90.2275 76.8832 90.9513C76.2312 91.2578 75.553 91.5121 74.8879 91.7795C74.6466 91.8773 74.4379 92.0012 74.2423 92.1642C74.0206 92.3533 73.7598 92.3729 73.5707 92.1577C72.7882 91.2708 72.4556 91.2448 71.1188 92.1707C70.8254 92.3729 70.5059 92.5294 70.1538 92.575C69.3778 92.6728 68.8822 91.9751 69.1169 91.1469C69.2734 90.5862 69.4234 90.0254 69.5799 89.4646C69.6908 89.0668 69.7103 88.5451 69.4039 88.3821C69.1365 88.2387 68.7126 88.5647 68.4323 88.8321C67.728 89.4972 67.428 90.4036 67.0238 91.2448C66.9781 91.3361 66.939 91.4273 66.8933 91.5186C66.7825 91.7469 66.5999 91.9164 66.3521 91.799C66.0913 91.6817 65.9478 91.3947 66.0587 91.1274C66.4825 90.0971 66.939 89.0733 67.5911 88.1669C67.9106 87.7235 68.3997 87.4692 68.8887 87.2605C69.3908 87.0453 69.8734 87.1823 70.2646 87.5344C70.6754 87.8996 70.9167 88.3756 70.7798 88.9233C70.5972 89.6732 70.3429 90.4036 70.1081 91.1404C70.0755 91.2382 70.0364 91.323 70.069 91.4665L70.0559 91.4599Z" fill="#F5A545"/>
<path d="M74.5488 77.7793C76.7594 77.7793 78.9764 77.7793 81.187 77.7793C81.487 77.7793 81.8652 77.7793 81.9891 78.001C82.0934 78.1836 81.7804 78.4444 81.6174 78.6466C81.0305 79.3639 80.235 79.6508 79.3351 79.6508C78.0766 79.6508 76.818 79.6116 75.566 79.6051C73.0099 79.6051 70.4537 79.5986 67.8976 79.6116C66.9781 79.6116 66.7368 78.9661 66.9129 78.3075C67.0172 77.9162 67.2259 77.7858 67.7606 77.7858C69.5669 77.7858 71.3732 77.7858 73.1794 77.7858H74.5553L74.5488 77.7793Z" fill="#F5A545"/>
<path d="M77.0006 83.3089C76.5833 83.7915 76.2377 84.2936 75.8073 84.7239C75.566 84.9652 75.2661 84.9978 74.9661 84.9913C72.5599 84.9783 70.1538 84.9652 67.7476 84.9326C66.9716 84.9261 66.5738 84.2088 66.952 83.5372C67.0498 83.3611 67.2324 83.2959 67.4281 83.2633C68.1127 83.172 68.7974 83.2176 69.4821 83.2111C71.7188 83.1981 73.9554 83.2111 76.192 83.2111C76.4464 83.2111 76.7007 83.2111 77.0006 83.3024V83.3089Z" fill="#F5A545"/>
<path d="M71.0928 74.1081C69.9125 74.1081 68.7257 74.1081 67.5454 74.1081C67.0499 74.1081 66.8934 73.9777 66.7825 73.5016C66.6717 73.0321 66.8412 72.667 67.2325 72.4844C67.4737 72.3735 67.728 72.3735 67.9758 72.3735C70.0951 72.3735 72.2209 72.3801 74.3401 72.3866C74.4901 72.3866 74.6466 72.3866 74.7901 72.4257C75.4487 72.6148 75.866 73.0321 75.4617 73.7625C75.2987 74.0624 75.0314 74.1016 74.751 74.1016C73.5316 74.1081 72.3122 74.1016 71.0863 74.1016L71.0928 74.1081Z" fill="#F5A545"/>
</g>
<defs>
<clipPath id="clip0_36_69">
<rect width="84" height="97" fill="white"/>
</clipPath>
<clipPath id="clip1_36_69">
<rect width="31" height="22.5816" fill="white" transform="translate(66 70)"/>
</clipPath>
</defs>
</svg>
