<?xml version="1.0" encoding="UTF-8"?>
<svg version="1.1" xmlns="http://www.w3.org/2000/svg" width="48" height="48">
<path d="M0 0 C3.609375 -0.185625 7.21875 -0.37125 10.9375 -0.5625 C12.05632568 -0.64443604 13.17515137 -0.72637207 14.32788086 -0.81079102 C20.00889208 -0.95089551 23.75966487 -0.17791383 28.21875 3.46875 C34.0077009 10.09973012 32.97672855 17.76693181 32.5625 26.0625 C32.2840625 33.9515625 32.2840625 33.9515625 32 42 C21.44 42 10.88 42 0 42 C0 28.14 0 14.28 0 0 Z " fill="#1A64C8" transform="translate(8,3)"/>
<path d="M0 0 C3.74785043 2.08213913 4.79482295 3.2947039 6 7.4375 C6 11.40316899 5.44976383 12.93779521 3 16 C-0.51253146 18.34168764 -1.86469356 18.49623677 -6 18 C-8.69990662 16.20006226 -10.5418865 14.916227 -12 12 C-12.43023798 8.12785818 -12.31669086 6.47503629 -10.125 3.1875 C-6.82233621 -0.21230096 -4.68601439 -0.45941318 0 0 Z " fill="#E5EDF8" transform="translate(27,20)"/>
<path d="M0 0 C3.34009923 0.2783416 4.81319624 0.83777568 7.375 3.0625 C9.65720288 7.18802058 8.92677798 9.4433416 8 14 C5 14 5 14 2.3125 12.625 C-0.81403218 9.07596347 -0.40719471 6.62224975 -0.17578125 2.046875 C-0.11777344 1.37140625 -0.05976563 0.6959375 0 0 Z " fill="#F2A629" transform="translate(24,20)"/>
<path d="M0 0 C6.75 5.625 6.75 5.625 9 9 C6.03 9 3.06 9 0 9 C0 6.03 0 3.06 0 0 Z " fill="#DCF1FC" transform="translate(29,5)"/>
<path d="M0 0 C2.97 0 5.94 0 9 0 C8.34 1.98 7.68 3.96 7 6 C5.83054208 5.19152271 4.66449539 4.37810888 3.5 3.5625 C2.8503125 3.11003906 2.200625 2.65757813 1.53125 2.19140625 C1.0259375 1.79824219 0.520625 1.40507812 0 1 C0 0.67 0 0.34 0 0 Z " fill="#A13821" transform="translate(24,29)"/>
</svg>
