<svg width="83" height="83" viewBox="0 0 83 83" fill="none" xmlns="http://www.w3.org/2000/svg">
<path d="M74.3549 24.2068C79.1951 24.2068 83 20.4018 83 15.5617V8.64506C83 3.80495 79.1951 1.90342e-06 74.3549 1.90342e-06H8.64506C3.80494 -0.00310671 0 3.80184 0 8.64195V15.5586C0 20.4018 3.80494 24.2037 8.64506 24.2037H31.1234V27.6605H8.64506C3.80494 27.6605 0 31.4654 0 36.3055V43.2222C0 48.0623 3.80494 51.8672 8.64506 51.8672H31.1234V55.324H29.3951C28.3568 55.324 27.6667 56.0172 27.6667 57.0524V58.7808H25.9383C24.9 58.7808 24.2099 59.474 24.2099 60.5092V62.2376H8.64506C7.60678 62.2376 6.91667 62.9308 6.91667 63.966C6.91667 65.0011 7.60989 65.6944 8.64506 65.6944H24.2068V67.4227C24.2068 68.461 24.8969 69.1511 25.9352 69.1511H39.7685C40.8068 69.1511 41.4969 68.4579 41.4969 67.4227V60.5061C41.4969 59.4678 40.8068 58.7777 39.7685 58.7777H38.0401V57.0493C38.0401 56.011 37.35 55.3209 36.3117 55.3209H34.5833V51.8641H44.2667C44.9568 51.8641 45.3049 51.5191 45.65 51.174C48.0716 47.7172 51.5284 44.9475 55.3333 43.2191V36.3024C55.3333 35.2641 56.0266 34.574 57.0617 34.574C58.0969 34.574 58.7901 35.2641 58.7901 36.3024V42.1808C59.8284 41.8357 61.2117 41.8357 62.2469 41.4907V36.3024C62.2469 35.2641 62.9401 34.574 63.9753 34.574C65.0104 34.574 65.7037 35.2641 65.7037 36.3024V41.4907C66.7419 41.4907 68.1253 41.8357 69.1604 42.1808V36.3024C69.1604 35.2641 69.8537 34.574 70.8888 34.574C71.924 34.574 72.6172 35.2641 72.6172 36.3024V43.2191C75.0388 44.2573 77.4573 45.6407 79.1888 47.7141C79.5339 48.0592 80.2271 48.4042 80.5722 48.0592C81.2654 48.0592 81.6105 47.7141 81.9555 47.0209C82.6487 45.6376 82.9938 44.5993 82.9938 43.216V36.2993C82.9938 31.4592 79.1888 27.6542 74.3487 27.6542H34.5771V24.1975H74.3487L74.3549 24.2068ZM69.1667 8.64195C69.1667 7.60367 69.8599 6.91356 70.8951 6.91356C71.9302 6.91356 72.6234 7.60678 72.6234 8.64195V15.5586C72.6234 16.5969 71.9302 17.287 70.8951 17.287C69.8599 17.287 69.1667 16.5969 69.1667 15.5586V8.64195ZM62.25 8.64195C62.25 7.60367 62.9432 6.91356 63.9784 6.91356C65.0136 6.91356 65.7068 7.60678 65.7068 8.64195V15.5586C65.7068 16.5969 65.0136 17.287 63.9784 17.287C62.9432 17.287 62.25 16.5969 62.25 15.5586V8.64195ZM55.3333 8.64195C55.3333 7.60367 56.0266 6.91356 57.0617 6.91356C58.0969 6.91356 58.7901 7.60678 58.7901 8.64195V15.5586C58.7901 16.5969 58.0969 17.287 57.0617 17.287C56.0266 17.287 55.3333 16.5969 55.3333 15.5586V8.64195ZM48.4167 8.64195C48.4167 7.60367 49.1068 6.91356 50.1451 6.91356C51.1833 6.91356 51.8734 7.60678 51.8734 8.64195V15.5586C51.8734 16.5969 51.1833 17.287 50.1451 17.287C49.1068 17.287 48.4167 16.5969 48.4167 15.5586V8.64195ZM12.1049 17.287C9.33828 17.287 6.91667 14.8654 6.91667 12.0987C6.91667 9.33206 9.33828 6.91045 12.1049 6.91045C14.8716 6.91045 17.2932 9.33206 17.2932 12.0987C17.2932 14.8654 14.8716 17.287 12.1049 17.287ZM12.1049 44.9537C9.33828 44.9537 6.91667 42.5321 6.91667 39.7654C6.91667 36.9987 9.33828 34.5771 12.1049 34.5771C14.8716 34.5771 17.2932 36.9987 17.2932 39.7654C17.2932 42.5321 14.8716 44.9537 12.1049 44.9537ZM48.4167 36.3086C48.4167 35.2703 49.1068 34.5802 50.1451 34.5802C51.1833 34.5802 51.8734 35.2703 51.8734 36.3086V43.2253C51.8734 44.2636 51.1833 44.9537 50.1451 44.9537C49.1068 44.9537 48.4167 44.2636 48.4167 43.2253V36.3086Z" fill="#1261A5"/>
<path d="M63.9784 44.9536C53.6018 44.9536 44.9568 53.6018 44.9568 63.9752C44.9568 74.3487 53.6018 82.9968 63.9784 82.9968C74.355 82.9968 83 74.3518 83 63.9752C83 53.5987 74.3518 44.9536 63.9784 44.9536ZM72.2784 61.9018C71.9333 62.2468 71.2401 62.2468 70.8951 62.2468C70.55 62.2468 69.8568 62.2468 69.5117 61.9018L65.7068 57.7518V74.3518C65.7068 75.3869 65.0167 76.0802 63.9784 76.0802C62.9401 76.0802 62.25 75.3869 62.25 74.3518V57.7518L58.4451 61.5536C57.7518 62.2468 56.7167 62.2468 56.0235 61.5536C55.3333 60.8635 55.3333 59.8252 56.0235 59.1351L62.9401 52.2184C62.9401 52.2184 63.2852 51.8703 63.6333 51.8703C63.9784 51.5252 64.6685 51.5252 65.0167 51.8703C65.3617 51.8703 65.3617 52.2184 65.7068 52.2184L72.6235 59.1351C72.6235 59.8252 72.6235 61.2086 72.2784 61.9018Z" fill="#F6AA50"/>
</svg>
