<svg width="98" height="103" viewBox="0 0 98 103" fill="none" xmlns="http://www.w3.org/2000/svg">
<g clip-path="url(#clip0_36_193)">
<path d="M74.9752 13.7424C74.9752 13.476 74.8895 13.1367 74.7119 12.959C70.4081 8.62985 66.0853 4.31968 61.7624 0H13.1105V38.9437H17.2399V4.24039H58.9238V16.1496H70.868V35.4645C71.9209 35.2584 73.0056 35.1505 74.1125 35.1442H74.1886C74.4582 35.1442 74.7246 35.1505 74.9879 35.1632V30.2917C74.9879 24.7795 74.9879 19.2578 74.9752 13.7424ZM63.0818 11.979V7.37391C64.5946 8.90261 66.1392 10.4662 67.6361 11.979H63.0818Z" fill="#1261A5"/>
<path d="M62.7487 20.1616H25.3622C24.249 20.1616 23.3483 21.0623 23.3483 22.1756V22.2009C23.3483 23.3142 24.249 24.2149 25.3622 24.2149H62.7487C63.862 24.2149 64.7627 23.3142 64.7627 22.2009V22.1756C64.7627 21.0623 63.862 20.1616 62.7487 20.1616Z" fill="#1261A5"/>
<path d="M62.7487 27.5134H25.3622C24.249 27.5134 23.3483 28.4142 23.3483 29.5274V29.5464C23.3483 30.6596 24.249 31.5604 25.3622 31.5604H62.7487C63.862 31.5604 64.7627 30.6596 64.7627 29.5464V29.5274C64.7627 28.4142 63.862 27.5134 62.7487 27.5134Z" fill="#1261A5"/>
<path d="M44.0555 12.8164H25.3496C24.2363 12.8164 23.3356 13.7171 23.3356 14.8304V14.8367C23.3356 15.9499 24.2363 16.8506 25.3496 16.8506H44.0555C45.1687 16.8506 46.0694 15.9499 46.0694 14.8367V14.8304C46.0694 13.7171 45.1687 12.8164 44.0555 12.8164Z" fill="#1261A5"/>
<path d="M40.9347 34.865H25.34C24.2268 34.865 23.3261 35.7657 23.3261 36.8789V36.9043C23.3261 38.0175 24.2268 38.9183 25.34 38.9183H40.9347C42.0479 38.9183 42.9486 38.0175 42.9486 36.9043V36.8789C42.9486 35.7657 42.0479 34.865 40.9347 34.865Z" fill="#1261A5"/>
<path d="M67.6361 11.9792H63.0849V7.38037C64.5946 8.91224 66.1392 10.4663 67.6361 11.9792Z" fill="#1261A5"/>
<path d="M54.0111 60.6277C51.0932 60.6277 48.1849 60.6468 45.267 60.6151C43.0279 60.5897 41.5722 58.8739 41.8195 56.6252V56.0163L41.8259 56.0099C41.6419 53.1397 41.7529 50.2599 41.772 47.3833C41.7815 46.435 41.5309 46.14 40.5572 46.1463C34.2966 46.1844 28.0391 46.1654 21.7784 46.1654C19.8437 46.1654 19.5932 46.4286 19.5868 48.376C19.5868 49.4511 19.5678 50.5168 19.5551 51.5888V52.7908C19.5614 60.5833 19.5805 68.3791 19.5805 76.1684C19.5805 79.1117 19.5614 82.0549 19.5488 84.9981C19.5614 88.915 19.5678 92.8414 19.5805 96.7583C19.5868 98.2711 19.9611 98.6422 21.4898 98.6422H47.5411C47.5379 97.3006 47.522 95.9464 47.503 94.6207C45.8316 94.6207 44.1602 94.6143 42.4919 94.6143L42.4856 94.608C39.536 94.608 36.5928 94.6207 33.6432 94.6016C32.7076 94.5953 32.086 94.0244 32.0606 93.2601C32.0352 92.3688 32.5046 91.9058 33.5703 91.7884C33.8399 91.7631 34.1063 91.7028 34.3695 91.7092C38.7336 91.8328 43.1009 91.8646 47.4649 91.7916C47.4364 88.9879 47.4396 86.1272 47.5981 83.2918C47.6172 82.9746 47.6394 82.6607 47.6743 82.3498H35.0229C34.5535 82.3498 34.0809 82.3625 33.6178 82.3372C32.7076 82.2832 32.0733 81.6965 32.0733 80.9353C32.0733 80.0473 32.622 79.5367 33.6686 79.5367C36.6118 79.5303 39.5614 79.5303 42.5046 79.5303V79.5367H48.1341C48.242 79.0768 48.3625 78.6201 48.502 78.1729C46.5039 78.1729 44.5027 78.1729 42.5046 78.1729V78.1602H33.8652C32.7076 78.1602 32.105 77.7098 32.0733 76.8598C32.0416 75.9686 32.7139 75.366 33.8272 75.366C39.0761 75.3534 44.3346 75.3597 49.5899 75.366C50.3986 73.6597 51.4484 72.0739 52.7171 70.6404C53.7637 69.4606 54.9372 68.414 56.2185 67.5101C56.2216 65.8957 56.2248 64.2846 56.228 62.6702C56.1455 61.3096 55.4066 60.6309 54.0111 60.6309V60.6277ZM24.6106 50.9544C28.4228 50.8942 32.2382 50.8498 36.0504 50.8086C36.3517 50.8022 36.653 50.8498 36.948 50.9005C37.8297 51.0591 38.2103 51.6205 38.1056 52.4831C38.0073 53.2951 37.4681 53.6217 36.7038 53.6217H30.5763V53.6281C28.6004 53.6281 26.6245 53.6408 24.6486 53.6281C23.6877 53.6217 23.0407 53.0984 23.028 52.3594C23.0089 51.5222 23.6084 50.9671 24.6106 50.9544ZM26.5008 83.7612C23.7289 83.7485 21.3407 81.3413 21.3914 78.6074C21.4517 75.7942 23.7923 73.5012 26.5738 73.5329C29.3933 73.5646 31.6864 75.9718 31.6229 78.8231C31.5563 81.4808 29.1681 83.7739 26.5008 83.7612ZM26.4628 72.1057C23.7543 72.0739 21.3661 69.6921 21.3914 67.0375C21.42 64.1799 23.7479 61.8456 26.5548 61.8647C29.314 61.8837 31.6737 64.2846 31.6293 67.0248C31.5817 69.8031 29.2157 72.1342 26.4628 72.1057ZM24.7755 57.8082C24.0936 57.8082 23.5259 57.6243 23.1834 56.9709C22.9233 56.454 23.066 56.0036 23.342 55.5532C23.6496 55.0489 24.1412 55.0014 24.655 55.0014H30.6873V54.9823C32.6283 54.9823 34.5725 54.995 36.5135 54.9823C37.3984 54.976 38.0327 55.2519 38.112 56.2383C38.1817 57.1358 37.7123 57.6591 36.634 57.7575C35.8031 57.8336 34.9594 57.7955 34.1221 57.7955C31.0076 57.8019 27.8868 57.8082 24.7755 57.8082ZM51.4675 70.0473C51.1725 70.079 50.8649 70.0663 50.5636 70.0663H34.1856C33.8843 70.0663 33.5703 70.0981 33.2848 70.0283C32.5237 69.838 32.0225 69.3527 32.0796 68.5281C32.1399 67.7257 32.6029 67.2658 33.4656 67.2658C36.4818 67.2722 39.4979 67.2658 42.5141 67.2658L42.5046 67.2722C45.4573 67.2722 48.4005 67.2532 51.3501 67.2722C52.3618 67.2785 52.9137 67.7701 52.9327 68.5757C52.9518 69.3527 52.3745 69.9426 51.4675 70.0473ZM52.9264 64.662C52.7805 65.5151 52.2382 65.8989 51.3691 65.8989C48.4576 65.8926 45.5398 65.8989 42.6315 65.8989L42.6378 65.8862C39.8246 65.8862 37.0114 65.8926 34.1982 65.8862C33.8335 65.8862 33.4593 65.8672 33.1072 65.7815C32.4539 65.6325 32.0543 65.2265 32.0669 64.5066C32.0796 63.7549 32.53 63.3426 33.1865 63.146C33.4942 63.054 33.8462 63.0857 34.1792 63.0857H50.7539C51.0171 63.0857 51.2899 63.0794 51.5531 63.1206C52.4602 63.2633 53.0501 63.904 52.9264 64.662Z" fill="#F6AA50"/>
<path d="M17.3762 86.6061C17.3762 86.6061 17.3572 86.679 17.3318 86.6981C17.1764 86.8344 17.2018 86.679 17.1828 86.6061C16.2345 82.3689 15.2925 78.1348 14.3442 73.8976C13.0026 67.9382 11.6484 61.9788 10.3036 56.0226C10.1387 55.1726 9.97695 54.3227 9.79934 53.4727C9.51073 52.0677 10.0531 51.3921 11.5183 51.3858C13.1263 51.3794 14.7311 51.4175 16.3391 51.3731C17.1035 51.3477 17.3731 51.557 17.3667 52.3753C17.3287 56.5301 17.3477 60.6753 17.3477 64.8301C17.3477 72.0962 17.3604 79.3559 17.3731 86.6251L17.3794 86.6124L17.3762 86.6061Z" fill="#29568C"/>
<path d="M12.3334 83.3839C10.2846 79.505 8.23258 75.6326 6.18375 71.7537C4.4489 68.4648 2.71722 65.1727 0.982366 61.8838C0.811101 61.5571 0.630321 61.2304 0.497115 60.8911C0.0911537 59.8318 0.662037 58.8708 1.79746 58.8422C3.90973 58.7978 6.022 58.8296 8.13426 58.8232C8.5656 58.8232 8.80029 58.9786 8.89861 59.4322C10.5732 67.0852 12.2605 74.7318 13.9478 82.3785C13.6782 82.7844 13.5164 83.1714 14.1634 83.3712C14.2808 83.8406 14.3981 84.3195 14.5155 84.7921C13.9319 85.2773 13.5545 85.1124 13.2405 84.4527C13.0375 84.0341 12.9646 83.46 12.3303 83.3807L12.3239 83.3871L12.3334 83.3839Z" fill="#2269A6"/>
<path d="M12.3334 83.3838C12.9677 83.4567 13.0407 84.0308 13.2437 84.4558C13.5577 85.1091 13.9382 85.2804 14.5186 84.7951C14.858 86.2065 15.1974 87.621 15.5399 89.0324C15.4543 89.0704 15.3686 89.1053 15.2925 89.1434C14.3125 87.2277 13.323 85.3026 12.3429 83.387L12.3366 83.3806L12.3334 83.3838Z" fill="#2269A6"/>
<path d="M14.1634 83.3711C13.5164 83.1681 13.6718 82.7812 13.9478 82.3784C14.1951 82.6734 14.1571 83.0254 14.1634 83.3711Z" fill="#2269A6"/>
<path d="M44.1411 48.0747C44.6581 48.3157 44.9848 48.7947 45.3781 49.1879C48.1849 51.9757 50.9759 54.7731 53.77 57.5799C53.9667 57.7765 54.3726 57.9256 54.2077 58.2745C54.0777 58.5504 53.7161 58.3982 53.4687 58.3982C50.8205 58.4045 48.1722 58.4109 45.5271 58.3982C44.4202 58.3982 43.9826 57.9732 43.9699 56.8885C43.9508 54.1419 43.9572 51.389 43.9572 48.6392C43.9572 48.449 43.9064 48.2269 44.1475 48.0779H44.1411V48.0747Z" fill="#F6AA50"/>
<path d="M50.7126 98.8834C50.7126 93.6693 50.4779 88.5536 50.7665 83.4695C51.2391 75.1125 56.9987 68.6805 65.2448 67.082C66.1614 66.9044 67.1128 66.8251 68.0453 66.8188C72.1017 66.7902 76.1582 66.7458 80.2114 66.8188C88.7652 66.971 96.009 73.2 97.1698 81.6522C97.284 82.4768 97.3538 83.3173 97.357 84.1483C97.376 88.5885 97.3411 93.0287 97.3887 97.4689C97.3982 98.2618 97.1064 98.6709 96.4436 98.9912C93.4115 100.456 90.1797 101.281 86.9003 101.922C82.3681 102.807 77.782 103.14 73.1705 102.949C66.653 102.683 60.2464 101.655 53.9667 99.8571C52.901 99.5526 51.8417 99.2227 50.7095 98.8834H50.7126Z" fill="#29568C"/>
<path d="M87.9152 52.147C87.8327 59.6668 81.8987 65.7848 74.1442 65.7943C66.3104 65.8038 60.4081 59.2418 60.4747 51.9536C60.5382 45.0205 65.9901 38.3507 74.122 38.319C82.0034 38.2873 87.912 44.5448 87.912 52.1502L87.9152 52.147Z" fill="#2269A6"/>
</g>
<defs>
<clipPath id="clip0_36_193">
<rect width="97.0184" height="103" fill="white" transform="translate(0.370255)"/>
</clipPath>
</defs>
</svg>
