<?xml version="1.0" encoding="UTF-8"?>
<svg version="1.1" xmlns="http://www.w3.org/2000/svg" width="64" height="64">
<path d="M0 0 C0.7347757 -0.0038269 1.46955139 -0.00765381 2.22659302 -0.01159668 C3.77819186 -0.01431333 5.32983669 -0.0069692 6.88134766 0.00976562 C9.24356577 0.0311212 11.60272182 0.00999134 13.96484375 -0.015625 C15.47656916 -0.01298048 16.98829267 -0.00785292 18.5 0 C19.55028885 -0.01214539 19.55028885 -0.01214539 20.62179565 -0.02453613 C25.64582867 0.07038712 28.4962616 1.40795886 32.3828125 4.53125 C34.74016578 7.74582266 34.56023939 10.62785847 34.3828125 14.53125 C33.7228125 14.53125 33.0628125 14.53125 32.3828125 14.53125 C32.8778125 20.96625 32.8778125 20.96625 33.3828125 27.53125 C37.50095763 22.01118313 40.04520607 18.33886465 40.08203125 11.37890625 C40.18128906 10.76917969 40.28054687 10.15945313 40.3828125 9.53125 C43.3828125 7.53125 43.3828125 7.53125 47.0078125 7.84375 C50.3828125 8.53125 50.3828125 8.53125 51.3828125 9.53125 C51.52396411 12.20183851 51.42528357 14.85557238 51.3828125 17.53125 C50.1659375 18.02625 48.9490625 18.52125 47.6953125 19.03125 C42.87580553 21.46663916 40.3862055 24.54018831 38.3828125 29.53125 C37.75809421 32.53828955 37.46093043 35.46334575 37.3828125 38.53125 C35.7328125 39.19125 34.0828125 39.85125 32.3828125 40.53125 C32.3828125 42.18125 32.3828125 43.83125 32.3828125 45.53125 C33.0428125 45.53125 33.7028125 45.53125 34.3828125 45.53125 C34.49107539 47.9491212 34.57021039 50.36212556 34.6328125 52.78125 C34.68308594 53.80412109 34.68308594 53.80412109 34.734375 54.84765625 C34.79571909 58.00687709 34.68777377 60.08150711 32.89355469 62.72753906 C29.34346705 65.27791318 26.03173834 65.10523077 21.8203125 65.0625 C20.57785767 65.06824036 20.57785767 65.06824036 19.31030273 65.07409668 C17.56199933 65.07681425 15.81365516 65.06946381 14.06542969 65.05273438 C11.39165473 65.03132082 8.72056654 65.05253944 6.046875 65.078125 C4.34634825 65.07548169 2.64582316 65.07035665 0.9453125 65.0625 C0.14730225 65.07059692 -0.65070801 65.07869385 -1.47290039 65.08703613 C-4.86767434 65.02977973 -7.08306198 64.93887289 -9.82727051 62.84460449 C-12.02672683 60.00194632 -12.12312081 58.56360972 -12.13476562 55 C-12.14737427 53.89205078 -12.15998291 52.78410156 -12.17297363 51.64257812 C-12.16487671 50.45083984 -12.15677979 49.25910156 -12.1484375 48.03125 C-12.1522644 46.80341797 -12.15609131 45.57558594 -12.16003418 44.31054688 C-12.16275592 41.71483541 -12.15537661 39.11909664 -12.13867188 36.5234375 C-12.11726825 32.54625401 -12.13846713 28.57087718 -12.1640625 24.59375 C-12.16141927 22.07291267 -12.15629441 19.55207647 -12.1484375 17.03125 C-12.15653442 15.83951172 -12.16463135 14.64777344 -12.17297363 13.41992188 C-12.16036499 12.31197266 -12.14775635 11.20402344 -12.13476562 10.0625 C-12.13158325 9.08861328 -12.12840088 8.11472656 -12.12512207 7.11132812 C-10.81339792 0.44836211 -5.88939431 -0.06771258 0 0 Z " fill="#FCFDFE" transform="translate(11.6171875,-0.53125)"/>
<path d="M0 0 C0.7347757 -0.0038269 1.46955139 -0.00765381 2.22659302 -0.01159668 C3.77819186 -0.01431333 5.32983669 -0.0069692 6.88134766 0.00976562 C9.24356577 0.0311212 11.60272182 0.00999134 13.96484375 -0.015625 C15.47656916 -0.01298048 16.98829267 -0.00785292 18.5 0 C19.55028885 -0.01214539 19.55028885 -0.01214539 20.62179565 -0.02453613 C25.64582867 0.07038712 28.4962616 1.40795886 32.3828125 4.53125 C34.74016578 7.74582266 34.56023939 10.62785847 34.3828125 14.53125 C25.36661817 14.18712045 25.36661817 14.18712045 21.7578125 11.78125 C20.3828125 9.53125 20.3828125 9.53125 20.3828125 4.53125 C7.0178125 5.02625 7.0178125 5.02625 -6.6171875 5.53125 C-6.6171875 23.35125 -6.6171875 41.17125 -6.6171875 59.53125 C5.2628125 59.53125 17.1428125 59.53125 29.3828125 59.53125 C29.7128125 55.24125 30.0428125 50.95125 30.3828125 46.53125 C32.3628125 46.03625 32.3628125 46.03625 34.3828125 45.53125 C34.49107539 47.9491212 34.57021039 50.36212556 34.6328125 52.78125 C34.68308594 53.80412109 34.68308594 53.80412109 34.734375 54.84765625 C34.79571909 58.00687709 34.68777377 60.08150711 32.89355469 62.72753906 C29.34346705 65.27791318 26.03173834 65.10523077 21.8203125 65.0625 C20.57785767 65.06824036 20.57785767 65.06824036 19.31030273 65.07409668 C17.56199933 65.07681425 15.81365516 65.06946381 14.06542969 65.05273438 C11.39165473 65.03132082 8.72056654 65.05253944 6.046875 65.078125 C4.34634825 65.07548169 2.64582316 65.07035665 0.9453125 65.0625 C0.14730225 65.07059692 -0.65070801 65.07869385 -1.47290039 65.08703613 C-4.86767434 65.02977973 -7.08306198 64.93887289 -9.82727051 62.84460449 C-12.02672683 60.00194632 -12.12312081 58.56360972 -12.13476562 55 C-12.14737427 53.89205078 -12.15998291 52.78410156 -12.17297363 51.64257812 C-12.16487671 50.45083984 -12.15677979 49.25910156 -12.1484375 48.03125 C-12.1522644 46.80341797 -12.15609131 45.57558594 -12.16003418 44.31054688 C-12.16275592 41.71483541 -12.15537661 39.11909664 -12.13867188 36.5234375 C-12.11726825 32.54625401 -12.13846713 28.57087718 -12.1640625 24.59375 C-12.16141927 22.07291267 -12.15629441 19.55207647 -12.1484375 17.03125 C-12.15653442 15.83951172 -12.16463135 14.64777344 -12.17297363 13.41992188 C-12.16036499 12.31197266 -12.14775635 11.20402344 -12.13476562 10.0625 C-12.13158325 9.08861328 -12.12840088 8.11472656 -12.12512207 7.11132812 C-10.81339792 0.44836211 -5.88939431 -0.06771258 0 0 Z " fill="#565C64" transform="translate(11.6171875,-0.53125)"/>
<path d="M0 0 C3.375 0.6875 3.375 0.6875 4.375 1.6875 C4.51615161 4.35808851 4.41747107 7.01182238 4.375 9.6875 C3.158125 10.1825 1.94125 10.6775 0.6875 11.1875 C-4.13200697 13.62288916 -6.621607 16.69643831 -8.625 21.6875 C-9.24971829 24.69453955 -9.54688207 27.61959575 -9.625 30.6875 C-12.54659699 32.19003559 -14.09892289 32.78315038 -17.375 32.1875 C-18.1175 31.6925 -18.86 31.1975 -19.625 30.6875 C-19.95833333 28.6875 -20.29166667 26.6875 -20.625 24.6875 C-23.4136579 22.80105495 -25.59737856 22.6901058 -28.9375 22.375 C-34.88186231 24.49078997 -37.72352788 29.2407467 -40.625 34.6875 C-41.1445737 37.29941104 -40.96008214 39.00684288 -40.625 41.6875 C-41.285 42.6775 -41.945 43.6675 -42.625 44.6875 C-46.125 45.0625 -46.125 45.0625 -49.625 44.6875 C-51.625 41.6875 -51.625 41.6875 -51.3125 38.5625 C-50.625 35.6875 -50.625 35.6875 -49.625 34.6875 C-47.62541636 34.64669217 -45.62454746 34.64495644 -43.625 34.6875 C-43.398125 34.006875 -43.17125 33.32625 -42.9375 32.625 C-41.79797175 30.07462726 -40.77792033 28.5644229 -39.0625 26.4375 C-36.39938224 22.90479276 -36.03597715 19.96527247 -35.9609375 15.60546875 C-35.79464844 14.65607422 -35.79464844 14.65607422 -35.625 13.6875 C-32.625 11.6875 -32.625 11.6875 -29.4375 12.0625 C-28.509375 12.26875 -27.58125 12.475 -26.625 12.6875 C-26.41875 13.615625 -26.2125 14.54375 -26 15.5 C-24.86868355 18.88034581 -24.86868355 18.88034581 -21.8125 20.6875 C-18.75044965 21.96368313 -18.75044965 21.96368313 -16.12890625 21.00390625 C-11.8132928 18.73501119 -9.70253867 15.00290186 -7.625 10.6875 C-7.14588929 8.25044868 -6.93890526 6.01559405 -6.92578125 3.53515625 C-6.82652344 2.92542969 -6.72726563 2.31570312 -6.625 1.6875 C-3.625 -0.3125 -3.625 -0.3125 0 0 Z " fill="#3D7CD1" transform="translate(58.625,7.3125)"/>
<path d="M0 0 C0.33 0.99 0.66 1.98 1 3 C0.360625 3.7425 -0.27875 4.485 -0.9375 5.25 C-3.55059944 8.73413259 -3.15763094 10.74396463 -3 15 C-3.99 16.485 -3.99 16.485 -5 18 C-8.5 18.375 -8.5 18.375 -12 18 C-14 15 -14 15 -13.6875 11.875 C-13 9 -13 9 -12 8 C-10.00041636 7.95919217 -7.99954746 7.95745644 -6 8 C-5.62875 6.8553125 -5.62875 6.8553125 -5.25 5.6875 C-3.89004442 2.7635955 -2.68414174 1.69995644 0 0 Z " fill="#4783D4" transform="translate(21,34)"/>
<path d="M0 0 C2.46800047 1.15173355 4.04783565 2.04783565 6 4 C6 4.99 6 5.98 6 7 C1.125 6.125 1.125 6.125 0 5 C-0.04063832 3.33382885 -0.042721 1.66611905 0 0 Z " fill="#EDEEEF" transform="translate(36,4)"/>
</svg>
