<svg width="123" height="113" viewBox="0 0 123 113" fill="none" xmlns="http://www.w3.org/2000/svg">
<path d="M23.0639 36.9738C27.1023 36.9738 30.3761 33.7009 30.3761 29.6637C30.3761 25.6264 27.1023 22.3535 23.0639 22.3535C19.0256 22.3535 15.7518 25.6264 15.7518 29.6637C15.7518 33.7009 19.0256 36.9738 23.0639 36.9738Z" fill="white"/>
<path d="M71.2026 33.0283C75.2409 33.0283 78.5147 29.7554 78.5147 25.7181C78.5147 21.6808 75.2409 18.408 71.2026 18.408C67.1642 18.408 63.8904 21.6808 63.8904 25.7181C63.8904 29.7554 67.1642 33.0283 71.2026 33.0283Z" fill="white"/>
<path d="M83.1063 66.6423C87.1447 66.6423 90.4184 63.3694 90.4184 59.3321C90.4184 55.2948 87.1447 52.022 83.1063 52.022C79.0679 52.022 75.7942 55.2948 75.7942 59.3321C75.7942 63.3694 79.0679 66.6423 83.1063 66.6423Z" fill="white"/>
<path d="M11.8563 70.5942C15.8947 70.5942 19.1684 67.3213 19.1684 63.284C19.1684 59.2467 15.8947 55.9739 11.8563 55.9739C7.81792 55.9739 4.54418 59.2467 4.54418 63.284C4.54418 67.3213 7.81792 70.5942 11.8563 70.5942Z" fill="white"/>
<path d="M59.2605 10.4083C58.5069 4.64321 53.8068 0.32097 47.9698 0.0145181C42.4522 -0.266396 37.3433 3.55787 35.9703 9.00377C34.5781 14.5199 37.3305 20.2403 42.5863 22.6153C43.2824 22.9345 43.557 23.241 43.557 24.039C43.5443 27.4292 43.5379 30.8257 43.5379 34.2222H51.4247C51.4247 30.7682 51.412 27.3079 51.4056 23.8539C51.4056 23.0878 51.7887 22.9026 52.3379 22.6472C57.1659 20.3999 59.9374 15.4903 59.2669 10.4083H59.2605ZM47.4845 15.8159C45.3196 15.8159 43.5826 14.1304 43.5315 11.9789C43.4868 9.78905 45.2174 7.97588 47.4079 7.9248C49.5664 7.87372 51.4056 9.66774 51.4247 11.8448C51.4439 14.0474 49.7005 15.8159 47.4909 15.8223L47.4845 15.8159Z" fill="#F6AA50"/>
<path d="M94.7865 57.3783C93.8605 51.9643 89.2881 47.8209 83.879 47.5016C78.2784 47.176 73.2142 50.7258 71.6879 56.0567C70.1552 61.3877 72.4606 67.1018 77.429 69.6364C78.9106 70.3961 79.3896 71.2325 79.1405 72.72C79.1405 72.7584 79.1405 72.7967 79.1405 72.835C79.281 73.6905 78.9106 74.1055 78.106 74.463C74.9959 75.8293 71.8859 77.2019 68.7822 78.5745C63.3859 80.9623 57.996 83.3629 52.6125 85.757C52.2741 85.9166 51.9228 86.0443 51.4311 86.2422V84.9845C51.4311 82.3222 51.4694 79.6471 51.4311 76.9848V94.9889H51.661C51.9867 94.8037 52.2996 94.5866 52.6317 94.4398C57.6576 92.2053 62.6835 89.9707 67.7093 87.7426C73.7698 85.0483 79.8238 82.3605 85.8906 79.6854C86.8102 79.2832 87.1487 78.8108 87.1104 77.8084C87.021 75.6505 87.0529 73.4862 87.1104 71.3282C87.1104 70.958 87.3786 70.4089 87.6788 70.2684C91.7403 68.3978 94.1607 65.3077 94.8695 60.877C94.8887 60.7365 94.9653 60.6024 95.0228 60.462V58.1444C94.9462 57.8891 94.844 57.6401 94.7993 57.3847L94.7865 57.3783ZM83.1254 63.2775C80.9031 63.2967 79.1661 61.5856 79.1597 59.3575C79.1469 57.1549 80.9286 55.3736 83.1127 55.3928C85.2329 55.4055 87.0018 57.1485 87.0465 59.2809C87.0976 61.4452 85.3223 63.2711 83.1254 63.2775Z" fill="#2269A6"/>
<path d="M83.0105 24.5625C82.4868 18.9889 78.1251 14.5709 72.4798 13.9196C66.9877 13.2812 61.6745 16.7416 59.931 22.1108C58.2068 27.4099 60.3972 33.3219 65.3592 35.8884C67.0196 36.7439 67.4794 37.7143 67.2432 39.3424C67.2432 39.3807 67.2432 39.419 67.2432 39.4573C67.3517 40.1276 67.0643 40.4852 66.4257 40.7597C63.7308 41.9153 61.0678 43.1475 58.3728 44.2903C57.6256 44.6095 57.3574 45.0117 57.3702 45.8353C57.4085 50.6236 57.2425 55.4183 57.4532 60.2002C57.4788 60.7621 57.4532 61.2728 57.3766 61.7133C57.1403 63.0285 56.3867 63.8457 54.7647 64.2862C53.6471 64.5799 52.6253 65.1864 51.5014 65.6653C51.463 65.3397 51.4311 65.2184 51.4311 65.1098V59.6576C51.4311 51.5877 51.4311 43.5242 51.4183 35.4606V75.3632C51.4886 74.6035 51.827 74.1565 52.6956 73.7926C56.4953 72.1965 60.244 70.4472 64.0309 68.8192C64.4077 68.6532 64.6951 68.4872 64.9058 68.2637C65.2124 67.9445 65.3465 67.5231 65.3337 66.8719C65.2571 61.6239 65.3209 56.3696 65.2762 51.1216C65.2762 50.2214 65.4934 49.749 66.3555 49.3978C68.9227 48.3444 71.4325 47.1377 73.9997 46.0779C74.9512 45.6948 75.2322 45.1586 75.1939 44.1754C75.1109 42.1643 75.2067 40.1596 75.1492 38.1485C75.13 37.2802 75.3344 36.795 76.2029 36.4055C80.8456 34.2987 83.4767 29.6444 83.0041 24.5752L83.0105 24.5625ZM71.2473 29.6636C69.044 29.6764 67.2495 27.9015 67.2495 25.7244C67.2623 23.6048 69.0057 21.8235 71.1259 21.7725C73.3291 21.7214 75.1172 23.4643 75.1428 25.667C75.1747 27.8887 73.4505 29.6508 71.2409 29.6636H71.2473Z" fill="#1261A5"/>
<path d="M43.5251 54.8565C43.5251 55.1438 43.4868 55.4248 43.4548 55.8206C42.9823 55.5269 42.6183 55.3162 42.2734 55.08C38.2565 52.4049 34.3099 49.6149 30.1972 47.0995C28.2495 45.912 27.3682 44.5968 27.662 42.3048C27.7897 41.2961 27.9302 40.7215 28.9519 40.2362C33.8118 37.9442 36.4046 32.6324 35.3764 27.3461C34.3738 22.1684 29.7566 18.1334 24.5072 17.8397C18.7661 17.5141 13.6061 21.2618 12.2458 26.746C10.8345 32.3834 13.5614 38.04 18.8874 40.4405C19.5643 40.7406 19.807 41.079 19.8006 41.794C19.7559 44.035 19.8134 46.2823 19.7687 48.5168C19.7495 49.2957 19.9922 49.7682 20.6564 50.2023C26.3847 53.9883 32.0875 57.7998 37.8031 61.5985C39.4188 62.6711 41.0345 63.7436 42.6566 64.8162C43.2377 65.1993 43.4804 65.6015 43.5315 66.208V34.2157C43.5187 41.0918 43.5315 47.9741 43.5187 54.8565H43.5251ZM19.807 29.6062C19.8453 27.4547 21.5887 25.7245 23.7281 25.7181C25.8866 25.7181 27.713 27.544 27.7067 29.6956C27.6939 31.8727 25.8994 33.6348 23.6962 33.6092C21.4802 33.5965 19.7687 31.8216 19.807 29.5998V29.6062Z" fill="#1261A5"/>
<path d="M35.6446 75.5293C35.6446 74.7057 35.4147 74.2077 34.7122 73.748C32.79 72.4967 30.8806 71.2262 28.9711 69.9493C27.4129 68.915 25.8547 67.868 24.2837 66.8401C23.6451 66.4187 23.3705 66.0804 23.5237 65.1929C24.7371 58.2084 19.4302 51.7154 12.3736 51.4409C7.25189 51.243 2.59641 54.3139 0.782749 59.0703C-1.04368 63.8522 0.399582 69.247 4.34621 72.4712C8.32476 75.7144 13.7785 76.0528 18.1722 73.2628C18.8172 72.8542 19.2259 72.9308 19.8006 73.3267C21.9464 74.7951 24.1049 76.2507 26.2953 77.6489C26.4422 77.7447 26.6019 77.8404 26.7487 77.9362C27.5087 78.415 27.7322 78.9513 27.7258 79.8132C27.713 82.8586 27.7258 85.9103 27.7386 88.9557C28.6773 91.1839 29.9737 93.2205 31.5639 94.989H35.651C35.6382 88.5024 35.6191 82.0095 35.6382 75.5229L35.6446 75.5293ZM11.7797 67.2359C9.64031 67.1976 7.90328 65.4419 7.90328 63.3031C7.90328 61.1644 9.7361 59.3193 11.8882 59.3384C14.0787 59.3512 15.8285 61.1516 15.8029 63.3542C15.771 65.5696 14.0148 67.2679 11.786 67.2296L11.7797 67.2359Z" fill="#2269A6"/>
<path d="M43.5315 34.2222V66.2144C43.5315 66.3038 43.5442 66.3996 43.5442 66.4954C43.5315 71.2454 43.5315 75.9954 43.5315 80.7454V95.0017H51.4183V76.9977C51.4183 76.6146 51.4056 76.2316 51.3992 75.8421C51.3992 75.6698 51.3992 75.5101 51.4183 75.3633V34.2222H43.5315Z" fill="#F6AA50"/>
<g clip-path="url(#clip0_36_188)">
<path d="M60.5926 45.8101V98.6505H90.7256L88.2609 94.3577L88.6829 91.1224L90.7256 90.2719L83.5515 78.4286L85.7289 76.2418L87.4169 77.1822L89.7379 79.6256L91.4978 81.4885L92.2026 82.1634L93.958 80.755L97.334 80.0485L99.3049 78.4286L101.065 77.1822V46.287L60.5926 45.8101Z" fill="white"/>
<path d="M102.519 77.9021C103.081 77.0516 103.821 76.4531 104.796 76.2417C106.412 75.8907 107.763 76.3542 108.773 77.6906C110.142 79.513 111.462 81.3759 112.872 83.1668C114.623 85.3851 115.543 87.896 115.781 90.6948C115.889 91.9457 116.082 93.1877 116.248 94.4341C116.347 95.172 116.787 95.7435 117.24 96.2925C117.299 96.3645 117.474 96.387 117.586 96.369C118.686 96.1935 119.516 96.5985 120.158 97.4984C120.899 98.5289 121.676 99.5323 122.43 100.554C123.364 101.814 123.126 103.222 121.851 104.14C117.999 106.921 114.151 109.702 110.309 112.492C109.649 112.969 108.935 113.126 108.145 112.924C107.597 112.78 107.166 112.465 106.829 112.015C106.008 110.912 105.191 109.81 104.369 108.712C103.889 108.068 103.727 107.357 103.956 106.583C104.023 106.349 103.956 106.219 103.803 106.079C103.399 105.724 102.923 105.616 102.403 105.634C99.9963 105.719 97.6933 105.278 95.5294 104.208C93.994 103.452 92.7235 102.363 91.655 101.035C91.426 100.752 91.1926 100.653 90.8379 100.653C81.473 100.662 72.1081 100.662 62.7386 100.653C62.393 100.653 62.0338 100.644 61.7016 100.549C60.6825 100.261 60.0136 99.3568 60.0046 98.2949C59.9956 97.3634 60.0046 96.4275 60.0046 95.496C60.0046 79.5085 60.0046 63.5209 60.0046 47.5289C60.0001 46.0169 60.9968 45.0135 62.5052 45.0135C74.9095 45.0135 87.3182 45.0225 99.7225 45C100.957 45 102.237 45.9224 102.232 47.6008C102.205 57.4823 102.219 67.3637 102.219 77.2451C102.219 77.4836 102.12 77.7851 102.519 77.9066V77.9021ZM92.2027 80.8989C92.2611 80.7864 92.2835 80.7234 92.3239 80.6694C93.3789 79.3105 94.7527 78.8965 96.3913 79.315C96.6697 79.387 96.7505 79.2655 96.8582 79.063C97.4149 78.0056 98.2903 77.3666 99.4621 77.1821C99.8437 77.1191 99.9065 76.9751 99.9065 76.6331C99.8976 67.0352 99.8976 57.4418 99.9065 47.8438C99.9065 47.4569 99.8167 47.3309 99.4127 47.3309C87.2284 47.3399 75.0397 47.3399 62.8554 47.3309C62.4693 47.3309 62.357 47.4254 62.357 47.8303C62.366 64.4794 62.366 81.1329 62.366 97.7819C62.366 98.3129 62.366 98.3129 62.8868 98.3129C71.6187 98.3129 80.3506 98.3129 89.0826 98.3129C89.2172 98.3129 89.3519 98.3129 89.5854 98.3129C89.4372 98.1014 89.3564 97.9799 89.2666 97.8584C88.7414 97.1519 88.1936 96.459 87.6908 95.739C86.2946 93.7411 87.1341 91.0503 89.4103 90.1908C89.5135 90.1503 89.6168 90.1053 89.7111 90.0648C89.6258 89.7049 89.3699 89.7274 89.123 89.7274C85.1498 89.7274 81.1812 89.7274 77.208 89.7274C77.0509 89.7274 76.8983 89.7364 76.7411 89.7184C76.1665 89.6644 75.7265 89.2144 75.6906 88.6519C75.6502 88.0535 76.0094 87.5495 76.5885 87.4235C76.7905 87.3785 76.997 87.3695 77.2036 87.3695C80.5527 87.3695 83.9063 87.3695 87.2554 87.3695C87.39 87.3695 87.5202 87.356 87.7267 87.347C87.601 87.167 87.5292 87.05 87.4439 86.9375C86.0342 85.0476 84.6111 83.1668 83.2284 81.2589C82.9231 80.8404 82.7076 80.3364 82.5415 79.8414C82.4382 79.531 82.335 79.4365 82.0207 79.441C80.3372 79.4545 78.6581 79.4455 76.9746 79.45C76.4718 79.45 76.0588 79.2835 75.8163 78.8155C75.3943 77.9921 75.9645 77.0966 76.9207 77.0921C78.7838 77.0831 80.6469 77.0831 82.51 77.0921C82.7839 77.0921 82.95 77.0066 83.1161 76.7816C84.6021 74.7747 87.5921 74.7568 89.105 76.7411C89.5764 77.3576 90.0343 77.9876 90.5012 78.6085C91.0489 79.342 91.5966 80.0754 92.2072 80.8944L92.2027 80.8989Z" fill="#1261A5"/>
<path d="M89.9399 57.5993C88.5033 57.5993 87.0712 57.5993 85.6346 57.5993C84.1576 57.5993 83.1474 56.5869 83.1474 55.1065C83.1474 54.265 83.116 53.4191 83.2103 52.5866C83.345 51.4527 84.3282 50.6247 85.464 50.6247C88.4629 50.6157 91.4618 50.6112 94.4608 50.6247C95.7313 50.6292 96.7369 51.6642 96.7594 52.9376C96.7728 53.7295 96.7728 54.517 96.7594 55.309C96.7369 56.5599 95.7268 57.5813 94.4787 57.5948C92.9658 57.6128 91.4529 57.5948 89.9399 57.5948V57.5993ZM85.4954 52.9871C85.4954 53.6486 85.5089 54.283 85.4909 54.913C85.4819 55.192 85.5942 55.2685 85.8546 55.2685C88.5931 55.264 91.3316 55.264 94.0702 55.2685C94.3665 55.2685 94.4473 55.147 94.4428 54.8725C94.4293 54.3955 94.4114 53.914 94.4428 53.4371C94.4698 53.0276 94.3081 52.9421 93.931 52.9421C91.2823 52.9556 88.6335 52.9466 85.9848 52.9511C85.8321 52.9511 85.684 52.9736 85.4909 52.9871H85.4954Z" fill="#F6AA50"/>
<path d="M86.2182 66.4951C89.3204 66.4951 92.4226 66.4951 95.5248 66.4951C96.4406 66.4951 96.9973 67.2871 96.6785 68.106C96.5349 68.4705 96.27 68.7045 95.8974 68.79C95.6998 68.835 95.4888 68.8485 95.2823 68.8485C89.2441 68.8485 83.2058 68.8485 77.1675 68.8485C77.0014 68.8485 76.8308 68.844 76.6647 68.8125C76.0138 68.6955 75.6187 68.1825 75.677 67.5391C75.7264 66.9541 76.2068 66.5131 76.8263 66.4861C76.9431 66.4816 77.0598 66.4861 77.1765 66.4861C80.1889 66.4861 83.2013 66.4861 86.2137 66.4861L86.2182 66.4951Z" fill="#0172A9"/>
<path d="M68.9833 68.322C69.0866 68.169 69.1719 68.0565 69.2437 67.944C70.0877 66.6256 70.9317 65.3072 71.7713 63.9843C71.9867 63.6423 72.2426 63.3633 72.6646 63.3093C73.154 63.2463 73.567 63.3858 73.8409 63.8133C74.1282 64.2633 74.0923 64.7222 73.8095 65.1632C72.961 66.4951 72.1125 67.8225 71.2595 69.1545C71.0485 69.483 70.8464 69.8114 70.6309 70.1354C69.8677 71.2963 68.3413 71.3638 67.4839 70.2659C66.8868 69.501 66.2987 68.727 65.715 67.953C65.2526 67.3366 65.3289 66.6076 65.8766 66.1981C66.4154 65.7977 67.1157 65.9282 67.5781 66.5221C67.9597 67.0126 68.3324 67.5076 68.714 68.0025C68.7903 68.1015 68.8711 68.196 68.9833 68.3265V68.322Z" fill="#2269A6"/>
<path d="M68.9788 78.757C69.0821 78.613 69.1584 78.5141 69.2258 78.4106C70.0743 77.0786 70.9228 75.7512 71.7713 74.4193C72.2157 73.7173 72.9116 73.5193 73.5176 73.9153C74.0788 74.2843 74.1866 75.0043 73.769 75.6657C72.7185 77.3126 71.668 78.9595 70.613 80.6019C69.8992 81.7089 68.3593 81.7944 67.5377 80.7639C66.9002 79.9675 66.2852 79.1485 65.6701 78.3296C65.2571 77.7806 65.3424 77.0561 65.8452 76.6602C66.366 76.2462 67.0843 76.3407 67.5288 76.8986C67.9238 77.3936 68.3009 77.9021 68.6915 78.4061C68.7768 78.5141 68.8666 78.6175 68.9788 78.757Z" fill="#2269A6"/>
<path d="M68.9833 89.2278C69.6792 88.1389 70.3346 87.1174 70.9901 86.0915C71.2684 85.655 71.5423 85.2141 71.8251 84.7821C72.2337 84.1566 72.9161 83.9811 73.4997 84.3456C74.0653 84.6966 74.2 85.4165 73.8005 86.051C72.7499 87.7114 71.6949 89.3718 70.6265 91.0232C69.8812 92.1751 68.3503 92.2381 67.5018 91.1627C66.8823 90.3797 66.2807 89.5878 65.6836 88.7868C65.2616 88.2199 65.3469 87.4819 65.8632 87.0859C66.3795 86.69 67.1067 86.798 67.5467 87.3514C68.0181 87.9454 68.476 88.5574 68.9878 89.2188L68.9833 89.2278Z" fill="#2269A6"/>
<path d="M71.8521 55.2684C73.5042 55.2684 75.1608 55.2594 76.8129 55.2684C77.5491 55.2729 78.0205 55.7589 78.0026 56.4563C77.9846 57.1088 77.5267 57.5813 76.8712 57.5903C75.9913 57.6038 75.1159 57.5948 74.2359 57.5948C71.7937 57.5948 69.3515 57.5948 66.9092 57.5948C66.4244 57.5948 66.0517 57.3923 65.8407 56.9603C65.6387 56.5508 65.6612 56.1278 65.926 55.7409C66.1774 55.3809 66.5411 55.2549 66.9676 55.2594C68.5972 55.2639 70.2224 55.2594 71.8521 55.2594V55.2684Z" fill="#2269A6"/>
<path d="M69.1001 50.6201C69.8363 50.6201 70.5726 50.6156 71.3088 50.6201C72.0137 50.6246 72.512 51.097 72.5255 51.7585C72.5389 52.4335 72.0451 52.9419 71.3223 52.9464C69.8498 52.9554 68.3773 52.9554 66.9002 52.9464C66.1774 52.9419 65.715 52.474 65.7105 51.79C65.7105 51.097 66.1909 50.6246 66.9227 50.6156C67.6455 50.6066 68.3683 50.6156 69.0956 50.6156L69.1001 50.6201Z" fill="white"/>
<path d="M115.341 97.7053C115.17 97.4713 115.031 97.2868 114.897 97.1023C114.416 96.4409 114.071 95.7164 113.958 94.911C113.752 93.462 113.559 92.0131 113.406 90.5552C113.2 88.6113 112.629 86.8069 111.453 85.223C109.94 83.1846 108.423 81.1508 106.901 79.1169C106.371 78.4104 105.541 78.2619 104.894 78.7479C104.243 79.2339 104.176 80.0033 104.715 80.7323C105.419 81.6772 106.129 82.6177 106.825 83.5716C107.247 84.1521 107.157 84.8765 106.632 85.268C106.088 85.673 105.379 85.547 104.93 84.953C104.531 84.4266 104.14 83.8956 103.745 83.3646C102.901 82.2352 102.066 81.0968 101.208 79.9763C100.813 79.4589 100.144 79.3104 99.5697 79.5669C99.0086 79.8143 98.6629 80.3768 98.7886 80.9798C98.8469 81.2678 99.0175 81.5557 99.1971 81.7987C100.131 83.0722 101.087 84.3321 102.025 85.601C102.447 86.1725 102.367 86.9104 101.85 87.3019C101.303 87.7159 100.584 87.5989 100.144 87.0094C99.462 86.096 98.7841 85.1825 98.1017 84.2691C97.536 83.5131 96.9838 82.7437 96.3957 82.0012C95.9153 81.3938 95.0803 81.3173 94.4877 81.7762C93.8861 82.2442 93.7874 82.9777 94.2453 83.6391C94.3126 83.7336 94.3845 83.8281 94.4518 83.9181C95.2868 85.0385 96.1308 86.1545 96.9614 87.2839C97.554 88.0939 97.1993 89.0748 96.261 89.2233C95.7403 89.3043 95.3497 89.0613 95.0354 88.6428C93.4147 86.4605 91.7851 84.2781 90.1599 82.1002C89.1902 80.8043 88.2339 79.4994 87.2508 78.2079C86.6043 77.362 85.4146 77.4205 84.9118 78.3114C84.5661 78.9234 84.7816 79.4409 85.1677 79.9583C88.9298 84.989 92.6785 90.0287 96.4361 95.0639C97.1095 95.9684 97.7964 96.8593 98.4474 97.7773C98.9996 98.5512 98.5506 99.5457 97.6258 99.6447C97.1275 99.6987 96.7683 99.4557 96.4765 99.0642C94.9501 97.0033 93.4192 94.947 91.8794 92.8951C91.3631 92.2021 90.5056 92.0851 89.8636 92.5891C89.2575 93.0661 89.1947 93.8355 89.702 94.5195C90.8647 96.0764 92.0185 97.6378 93.1858 99.1902C94.5102 100.954 96.2116 102.178 98.3441 102.785C99.6999 103.172 101.074 103.348 102.483 103.289C103.673 103.24 104.688 103.636 105.541 104.468C105.604 104.527 105.675 104.576 105.756 104.639C108.948 102.331 112.122 100.036 115.346 97.7053H115.341Z" fill="white"/>
<path d="M120.666 102.084C119.79 100.923 118.946 99.7978 118.08 98.6504C114.102 101.521 110.156 104.37 106.187 107.231C107.067 108.401 107.911 109.522 108.773 110.665C112.76 107.789 116.697 104.95 120.666 102.084Z" fill="white"/>
</g>
<defs>
<clipPath id="clip0_36_188">
<rect width="63" height="68" fill="white" transform="translate(60 45)"/>
</clipPath>
</defs>
</svg>
