<svg width="98" height="97" viewBox="0 0 98 97" fill="none" xmlns="http://www.w3.org/2000/svg">
<path d="M25.6102 45.5776H45.861V25.2886H28.3955C26.7058 31.9251 25.7715 38.7313 25.6102 45.5776Z" fill="#1261A5"/>
<path d="M28.3955 71.2261H45.861V50.937H25.6102C25.7715 57.7834 26.7058 64.5896 28.3955 71.2261Z" fill="#1261A5"/>
<path d="M30.0125 19.9292H45.861V0C39.4358 1.66447 33.7304 9.21047 30.0125 19.9292Z" fill="#1261A5"/>
<path d="M45.861 96.5147V76.5854H30.0125C33.7304 87.3042 39.4358 94.8502 45.861 96.5147Z" fill="#1261A5"/>
<path d="M88.0147 19.9292C81.9049 11.4248 73.2219 5.11091 63.2483 1.92017C67.6165 7.21256 70.8589 13.3405 72.7773 19.9292H88.0147Z" fill="#1261A5"/>
<path d="M51.2203 0V19.9292H67.0687C63.3509 9.21047 57.6454 1.66447 51.2203 0Z" fill="#1261A5"/>
<path d="M76.8351 45.5776H97.0813C96.6968 38.4772 94.7491 31.5492 91.3773 25.2886H74.2656C75.8331 31.9424 76.6944 38.7431 76.8351 45.5776Z" fill="#1261A5"/>
<path d="M9.06653 76.5854C15.1783 85.0912 23.8642 91.4052 33.8406 94.5945C29.4697 89.3027 26.2246 83.1747 24.304 76.5854H9.06653Z" fill="#1261A5"/>
<path d="M22.8156 25.2886H5.70391C2.33215 31.5492 0.384475 38.4772 0 45.5776H20.2462C20.3869 38.7431 21.2481 31.9424 22.8156 25.2886Z" fill="#1261A5"/>
<path d="M20.2462 50.937H0C0.384475 58.0375 2.33215 64.9654 5.70391 71.2261H22.8156C21.2481 64.5722 20.3869 57.7716 20.2462 50.937Z" fill="#1261A5"/>
<path d="M68.6857 25.2886H51.2203V45.5776H71.4711C71.3098 38.7313 70.3754 31.9251 68.6857 25.2886Z" fill="#1261A5"/>
<path d="M33.8406 1.92017C23.8642 5.10945 15.1783 11.4235 9.06653 19.9292H24.304C26.2246 13.3399 29.4697 7.21191 33.8406 1.92017Z" fill="#1261A5"/>
<path d="M76.3741 58.1982C79.6231 57.5922 82.9672 57.7295 86.1555 58.5999C89.3439 59.4702 92.2939 61.051 94.7844 63.2238C96.0786 59.2449 96.8507 55.1148 97.0812 50.937H76.8351C76.7738 53.4176 76.5992 55.8263 76.3741 58.1982Z" fill="#1261A5"/>
<path d="M58.4065 76.5854H51.2203V96.5147C54.9355 95.3116 58.1471 92.911 60.3527 89.6884C58.3389 85.6351 57.6577 81.049 58.4065 76.5854Z" fill="#1261A5"/>
<path d="M70.7682 60.0158C71.1281 57.0697 71.3807 54.0439 71.4711 50.937H51.2203V71.2261H59.9484C62.0909 66.3107 65.9318 62.3311 70.7682 60.0158Z" fill="#1261A5"/>
<path d="M80.3141 63.187C76.9827 63.187 73.7261 64.1749 70.9562 66.0257C68.1862 67.8765 66.0273 70.5071 64.7525 73.5849C63.4776 76.6627 63.144 80.0494 63.794 83.3168C64.4439 86.5842 66.0481 89.5855 68.4037 91.9411C70.7594 94.2967 73.7606 95.9009 77.028 96.5509C80.2954 97.2008 83.6821 96.8672 86.7599 95.5924C89.8377 94.3175 92.4683 92.1586 94.3191 89.3886C96.1699 86.6187 97.1578 83.3621 97.1578 80.0308C97.1578 75.5635 95.3832 71.2792 92.2244 68.1204C89.0656 64.9616 84.7813 63.187 80.3141 63.187ZM86.802 82.7288C87.0508 82.9777 87.2482 83.2731 87.3829 83.5982C87.5176 83.9234 87.5869 84.2718 87.5869 84.6237C87.5869 84.9757 87.5176 85.3241 87.3829 85.6493C87.2482 85.9744 87.0508 86.2698 86.802 86.5187C86.5531 86.7675 86.2577 86.9649 85.9326 87.0996C85.6074 87.2343 85.259 87.3036 84.907 87.3036C84.5551 87.3036 84.2067 87.2343 83.8815 87.0996C83.5564 86.9649 83.261 86.7675 83.0121 86.5187L80.3141 83.8206L77.616 86.5187C77.1134 87.0212 76.4318 87.3036 75.7211 87.3036C75.0103 87.3036 74.3287 87.0212 73.8262 86.5187C73.3236 86.0161 73.0413 85.3345 73.0413 84.6237C73.0413 83.913 73.3236 83.2314 73.8262 82.7288L76.5242 80.0308L73.8262 77.3327C73.3236 76.8301 73.0413 76.1485 73.0413 75.4378C73.0413 74.727 73.3236 74.0454 73.8262 73.5429C74.3287 73.0403 75.0103 72.758 75.7211 72.758C76.4318 72.758 77.1134 73.0403 77.616 73.5429L80.3141 76.2409L83.0121 73.5429C83.5147 73.0403 84.1963 72.758 84.907 72.758C85.6178 72.758 86.2994 73.0403 86.802 73.5429C87.3045 74.0454 87.5869 74.727 87.5869 75.4378C87.5869 76.1485 87.3045 76.8301 86.802 77.3327L84.1039 80.0308L86.802 82.7288Z" fill="#F6AA50"/>
</svg>
