<?xml version="1.0" encoding="UTF-8"?>
<svg version="1.1" xmlns="http://www.w3.org/2000/svg" width="48" height="48">
<path d="M0 0 C20.08928571 -1.33928571 20.08928571 -1.33928571 26.25 3.9375 C31.19573331 9.9504705 30.90103161 16.22580241 30.3515625 23.6328125 C30.23554687 24.74398438 30.11953125 25.85515625 30 27 C30.66 27 31.32 27 32 27 C32 31.62 32 36.24 32 41 C30.35 41 28.7 41 27 41 C27 40.01 27 39.02 27 38 C26.34 38 25.68 38 25 38 C25 38.99 25 39.98 25 41 C23.35 41 21.7 41 20 41 C20 40.01 20 39.02 20 38 C13.4 38 6.8 38 0 38 C0 25.46 0 12.92 0 0 Z " fill="#3979D0" transform="translate(7,5)"/>
<path d="M0 0 C1.65 0 3.3 0 5 0 C5 4.62 5 9.24 5 14 C3.35 14 1.7 14 0 14 C0 9.38 0 4.76 0 0 Z " fill="#F4A445" transform="translate(34,32)"/>
<path d="M0 0 C4.13621084 3.3810038 7.81316569 6.66590534 11 11 C9.35425434 11.02688151 7.70838587 11.04634123 6.0625 11.0625 C5.14597656 11.07410156 4.22945312 11.08570313 3.28515625 11.09765625 C1 11 1 11 0 10 C-0.07205511 8.31391034 -0.08386068 6.62499341 -0.0625 4.9375 C-0.05347656 4.01839844 -0.04445313 3.09929688 -0.03515625 2.15234375 C-0.02355469 1.44207031 -0.01195313 0.73179687 0 0 Z " fill="#E8A14C" transform="translate(26,5)"/>
<path d="M0 0 C1.65 0 3.3 0 5 0 C5 3.63 5 7.26 5 11 C3.35 11 1.7 11 0 11 C0 7.37 0 3.74 0 0 Z " fill="#F4A444" transform="translate(41,35)"/>
<path d="M0 0 C1.65 0 3.3 0 5 0 C5 2.64 5 5.28 5 8 C3.35 8 1.7 8 0 8 C0 5.36 0 2.72 0 0 Z " fill="#F2A446" transform="translate(27,38)"/>
</svg>
