<svg width="84" height="97" viewBox="0 0 84 97" fill="none" xmlns="http://www.w3.org/2000/svg">
<path d="M12.5614 70.3239C12.5799 51.4852 12.5985 32.6403 12.6108 13.8017C12.6232 5.23749 17.8118 -0.00625933 26.3174 5.60745e-06C39.0789 0.0125355 51.8405 0.0501251 64.602 0.0814498C61.7482 1.20914 59.8025 3.1638 59.7593 6.39024C59.6851 12.7805 59.784 19.177 59.8087 25.5672C59.7902 44.4059 59.7716 63.2508 59.7593 82.0895C59.7531 90.5471 54.5583 95.8974 46.275 95.8911C33.4394 95.8911 20.6037 95.841 7.7681 95.8159C10.628 94.6945 12.5676 92.7336 12.6108 89.5071C12.6849 83.1169 12.5861 76.7204 12.5614 70.3302V70.3239ZM36.1881 31.9011C43.131 31.9011 48.8199 26.2751 48.8694 19.3649C48.9249 12.3419 43.1989 6.42783 36.2993 6.38397C29.3564 6.34012 23.5193 12.154 23.5069 19.1331C23.4884 26.2 29.1526 31.9073 36.1819 31.9073L36.1881 31.9011ZM36.3425 44.5938C30.6042 44.5938 24.8658 44.6251 19.1275 44.5688C17.7562 44.5562 17.1138 44.8319 17.1261 46.4169C17.1385 47.933 17.8056 48.1147 19.041 48.1147C30.4436 48.0834 41.8462 48.0771 53.255 48.1147C54.6139 48.1147 55.2501 47.8766 55.2563 46.2728C55.2625 44.5061 54.3112 44.5688 53.1191 44.575C47.529 44.6001 41.9388 44.5876 36.3487 44.5876L36.3425 44.5938ZM36.1819 57.3555C30.5177 57.3555 24.8535 57.3743 19.1892 57.3367C17.923 57.3304 17.1076 57.4056 17.12 59.1034C17.1261 60.7887 17.923 60.8701 19.1954 60.8701C30.5239 60.8388 41.8524 60.8388 53.1747 60.8701C54.4471 60.8701 55.2501 60.7887 55.2501 59.1034C55.2501 57.4119 54.4409 57.3304 53.1685 57.3367C47.5042 57.3743 41.84 57.3555 36.1758 57.3555H36.1819ZM36.0769 73.5754C41.7474 73.5754 47.4178 73.5691 53.0882 73.5817C54.2495 73.5817 55.2748 73.732 55.2378 71.9215C55.2069 70.2675 54.2989 70.3552 53.1994 70.3552C41.8585 70.3678 30.5239 70.3678 19.1831 70.3552C18.0897 70.3552 17.1756 70.2613 17.1447 71.9152C17.1076 73.7258 18.1268 73.5817 19.2942 73.5817C24.8905 73.5629 30.4868 73.5754 36.0769 73.5754ZM36.2005 86.3183C41.8709 86.3183 47.5413 86.312 53.2117 86.3246C54.305 86.3246 55.2378 86.4436 55.2378 84.7709C55.2378 83.2171 54.5151 83.1044 53.3106 83.1044C41.8956 83.1294 30.4806 83.1357 19.0595 83.1044C17.8365 83.1044 17.1508 83.2485 17.1447 84.7834C17.1447 86.4749 18.1083 86.3246 19.1831 86.3246C24.8535 86.312 30.5239 86.3246 36.1943 86.3246L36.2005 86.3183ZM45.577 41.7119C48.3381 41.7119 51.1054 41.6681 53.8665 41.7307C55.2501 41.7621 55.2007 40.9163 55.2131 39.9578C55.2254 38.9679 55.1883 38.2036 53.8356 38.2161C48.3876 38.2662 42.9333 38.2788 37.4853 38.2161C35.9781 38.1973 36.0522 39.0681 36.0213 40.1144C35.9905 41.2233 36.2746 41.7809 37.5162 41.7433C40.2031 41.6681 42.8901 41.7182 45.577 41.7182V41.7119ZM26.8548 50.9778C24.242 50.9778 21.6291 51.0279 19.0163 50.959C17.7438 50.9277 17.1138 51.2033 17.1323 52.6944C17.1508 54.0852 17.5832 54.5175 18.9483 54.5049C24.174 54.4423 29.3997 54.436 34.6192 54.5049C36.0461 54.5237 36.3858 53.985 36.3796 52.6505C36.3734 51.3662 35.9658 50.9214 34.6933 50.959C32.0805 51.0342 29.4676 50.9841 26.8548 50.9841V50.9778ZM45.6018 67.204C48.2825 67.204 50.9695 67.1601 53.6503 67.2228C54.8116 67.2478 55.2378 66.8406 55.2069 65.6565C55.176 64.5476 55.0833 63.7395 53.6874 63.7457C48.3196 63.7771 42.958 63.7771 37.5903 63.7457C36.2128 63.7332 36.0461 64.4975 36.0275 65.6252C36.009 66.7717 36.3487 67.2541 37.5532 67.2228C40.234 67.1539 42.921 67.204 45.6018 67.204ZM26.6201 79.9469C29.2947 79.9469 31.9755 79.8967 34.6501 79.9656C35.8731 79.997 36.392 79.6336 36.3611 78.3117C36.3302 77.159 35.9843 76.7079 34.8107 76.7204C29.4553 76.7643 24.0999 76.7643 18.7507 76.7204C17.6203 76.7141 17.1817 77.065 17.1694 78.2678C17.157 79.5334 17.5338 80.0032 18.8186 79.9656C21.4191 79.8842 24.0258 79.9406 26.6262 79.9406L26.6201 79.9469ZM25.1314 41.6869C26.4904 41.95 26.9907 41.3924 26.9413 39.9828C26.9042 38.8238 26.7374 38.1472 25.36 38.2036C24.1864 38.2474 23.3587 38.2913 23.4266 39.8575C23.4822 41.0917 23.5996 41.9876 25.1314 41.6869ZM31.6172 41.6618C33.0997 42.0878 33.1861 41.1105 33.2232 39.8889C33.2664 38.6171 32.8279 38.1911 31.5616 38.1973C30.2768 38.1973 29.6838 38.4918 29.7085 39.9515C29.7332 41.3047 30.0977 41.9688 31.6172 41.6681V41.6618ZM41.0185 54.4235C42.4454 54.8307 42.5998 53.9348 42.6677 52.6756C42.7418 51.1783 42.0438 50.959 40.7961 50.9465C39.5051 50.9277 39.1469 51.4163 39.153 52.6693C39.153 53.9787 39.4495 54.7367 41.0247 54.4298L41.0185 54.4235ZM47.2942 54.4486C48.8755 54.743 48.8817 53.7532 48.9496 52.5691C49.0423 50.9527 48.1096 51.0091 46.9854 50.9527C45.5647 50.8838 45.4967 51.6669 45.4412 52.7758C45.367 54.2356 45.9909 54.6804 47.2942 54.4486ZM20.5976 39.9076C20.7829 38.3665 19.8625 38.26 18.6704 38.2036C17.2126 38.1347 17.2003 38.9554 17.157 40.0392C17.1076 41.3047 17.5153 41.7683 18.8063 41.7495C20.1343 41.7307 20.7952 41.311 20.6037 39.9076H20.5976ZM55.1636 52.5127C55.4725 51.291 54.8054 50.9715 53.5762 50.9527C52.2234 50.9339 51.7416 51.4289 51.7354 52.8009C51.7354 54.2982 52.4952 54.4799 53.7059 54.5112C55.1328 54.5551 55.3181 53.7907 55.1636 52.519V52.5127ZM25.0882 63.7645C23.7169 63.5014 23.476 64.3534 23.4328 65.6189C23.3834 66.9784 23.9825 67.2541 25.1685 67.2416C26.3112 67.229 26.9845 67.0473 26.9413 65.6503C26.9042 64.3973 26.6695 63.5515 25.0944 63.7645H25.0882ZM31.469 67.1914C32.6673 67.3857 33.2479 66.9972 33.2294 65.6377C33.2108 64.3472 32.8958 63.6956 31.4751 63.7019C30.0668 63.7019 29.7271 64.3284 29.7147 65.6315C29.7024 66.991 30.2645 67.3857 31.469 67.1914ZM19.0348 67.1601C20.3258 67.4608 20.5729 66.6527 20.6099 65.4748C20.647 64.2156 20.1837 63.7332 18.9174 63.7207C17.5091 63.7019 17.1632 64.3158 17.1508 65.6377C17.1385 67.0285 17.7438 67.3606 19.0286 67.1601H19.0348ZM40.9196 76.7705C39.9066 76.5888 39.1283 76.7517 39.1592 78.1989C39.1778 79.3266 39.3136 80.0659 40.6973 79.9844C41.7968 79.9218 42.7357 80.022 42.6615 78.3994C42.6121 77.1777 42.3033 76.5325 40.9196 76.7705ZM47.2881 79.9343C48.5234 80.1536 48.9373 79.6148 48.9496 78.3368C48.9558 77.0149 48.4246 76.7204 47.2386 76.6954C45.9106 76.6703 45.4288 77.0963 45.435 78.4809C45.4473 79.9218 46.1886 80.0659 47.2881 79.9343ZM55.1451 78.3054C55.4725 77.0462 54.8054 76.7141 53.57 76.7141C52.4334 76.7141 52.0011 77.0838 51.9825 78.2741C51.964 79.5522 52.384 80.0032 53.6503 79.9719C54.7683 79.9469 55.3798 79.6587 55.1451 78.2992V78.3054Z" fill="#2269A6"/>
<path d="M59.8148 25.5609C59.7901 19.1706 59.6913 12.7741 59.7654 6.3839C59.8025 3.15746 61.7544 1.2028 64.6081 0.0751092C69.8091 -0.169223 72.3231 2.25531 72.3293 7.52412C72.3293 12.6488 72.249 17.7673 72.3725 22.892C72.422 24.878 71.9957 25.6862 69.84 25.5671C66.5106 25.3792 63.1566 25.5483 59.8148 25.5671V25.5609Z" fill="#29568C"/>
<path d="M12.5614 70.3238C12.5861 76.714 12.6911 83.1105 12.6108 89.5008C12.5737 92.721 10.628 94.6881 7.76808 95.8096C2.56711 96.0539 0.0531061 93.6294 0.0469292 88.3606C0.0469292 83.2358 0.127229 78.1174 0.00369069 72.9927C-0.0457247 71.0067 0.380483 70.1985 2.53623 70.3175C5.86559 70.5055 9.21966 70.3363 12.5614 70.3175V70.3238Z" fill="#29568C"/>
<path d="M36.1881 31.901C29.1588 31.901 23.4945 26.1937 23.5131 19.1268C23.5254 12.1477 29.3626 6.33383 36.3055 6.37769C43.2051 6.42154 48.9311 12.3356 48.8755 19.3586C48.8199 26.2751 43.131 31.8948 36.1943 31.8948L36.1881 31.901ZM36.3364 21.6453C36.1511 22.0275 35.9225 22.4974 35.7001 22.9735C35.2431 23.9446 34.4092 24.7465 36.1264 25.6173C37.7571 26.4443 37.998 25.5108 38.4798 24.4771C38.9924 23.387 39.5298 22.3157 40.0611 21.2318C41.5065 18.2811 41.1605 17.642 37.893 17.7047C36.1325 17.736 35.4531 17.3789 36.534 15.6373C36.7317 15.3178 36.8429 14.9481 37.0405 14.6286C37.7262 13.5322 36.9355 13.2002 36.1758 12.7992C35.4037 12.3983 34.7365 12.0161 34.2177 13.1877C33.4579 14.9043 32.5499 16.5582 31.7654 18.2685C31.0736 19.7721 31.784 20.5803 33.2356 20.8121C33.9644 20.9311 34.7242 20.8309 35.4654 20.856C35.8978 20.8685 36.4105 20.8246 36.3364 21.6391V21.6453Z" fill="white"/>
<path d="M36.3364 21.6453C36.4167 20.8309 35.8978 20.8747 35.4654 20.8622C34.7242 20.8371 33.9644 20.9311 33.2356 20.8183C31.784 20.5865 31.0736 19.7784 31.7654 18.2748C32.5499 16.5644 33.4517 14.9105 34.2177 13.1939C34.7365 12.0224 35.4037 12.4108 36.1758 12.8055C36.9417 13.2002 37.7324 13.5322 37.0405 14.6348C36.8429 14.9544 36.7317 15.324 36.534 15.6435C35.4531 17.3851 36.1325 17.7485 37.893 17.7109C41.1605 17.6483 41.5003 18.2873 40.0611 21.2381C39.536 22.3219 38.9924 23.3932 38.4798 24.4833C37.998 25.5108 37.7509 26.4442 36.1264 25.6235C34.4092 24.7527 35.2431 23.9445 35.7001 22.9797C35.9225 22.5036 36.1511 22.0337 36.3364 21.6516V21.6453Z" fill="#1261A5"/>
<path d="M76.9125 83.3739H84.0098V89.6889H76.9125V96.8811L70.6862 96.9938V89.6826H63.5148V83.3676H70.6862V76.1316H76.9125V83.3676V83.3739Z" fill="#F5A545"/>
</svg>
