<svg width="45" height="45" viewBox="0 0 45 45" fill="none" xmlns="http://www.w3.org/2000/svg">
<path d="M22.5 14.062C15.4687 14.062 9.84375 19.687 9.84375 26.7183C9.84375 33.7495 15.4687 39.3745 22.5 39.3745C29.5312 39.3745 35.1562 33.7495 35.1562 26.7183C35.1562 19.687 29.5312 14.062 22.5 14.062ZM25.3125 33.7495C25.3125 35.2964 24.0469 36.562 22.5 36.562C20.9531 36.562 19.6875 35.2964 19.6875 33.7495V26.7183C19.6875 25.1714 20.9531 23.9058 22.5 23.9058C23.2031 23.9058 23.9062 24.187 24.4687 24.7495C25.0312 25.312 25.3125 25.8745 25.3125 26.7183V33.7495ZM22.5 22.4995C20.9531 22.4995 19.6875 21.2339 19.6875 19.687C19.6875 18.1401 20.9531 16.8745 22.5 16.8745C24.0469 16.8745 25.3125 18.1401 25.3125 19.687C25.3125 21.2339 24.0469 22.4995 22.5 22.4995Z" fill="#1261A5"/>
<path d="M39.375 0H5.625C2.53125 0 0 2.53125 0 5.625V39.375C0 42.4688 2.53125 45 5.625 45H39.375C42.4688 45 45 42.4688 45 39.375V5.625C45 2.53125 42.4688 0 39.375 0ZM14.0625 2.8125C15.6094 2.8125 16.875 4.07812 16.875 5.625C16.875 7.17188 15.6094 8.4375 14.0625 8.4375C12.5156 8.4375 11.25 7.17188 11.25 5.625C11.25 4.07812 12.5156 2.8125 14.0625 2.8125ZM5.625 2.8125C7.17188 2.8125 8.4375 4.07812 8.4375 5.625C8.4375 7.17188 7.17188 8.4375 5.625 8.4375C4.07812 8.4375 2.8125 7.17188 2.8125 5.625C2.8125 4.07812 4.07812 2.8125 5.625 2.8125ZM42.1875 39.375C42.1875 40.9219 40.9219 42.1875 39.375 42.1875H5.625C4.07812 42.1875 2.8125 40.9219 2.8125 39.375V14.0625C2.8125 12.5156 4.07812 11.25 5.625 11.25H39.375C40.9219 11.25 42.1875 12.5156 42.1875 14.0625V39.375Z" fill="#F5A545"/>
</svg>
