<svg width="34" height="41" viewBox="0 0 34 41" fill="none" xmlns="http://www.w3.org/2000/svg">
<g clip-path="url(#clip0_106_3700)">
<path fill-rule="evenodd" clip-rule="evenodd" d="M17.0016 0C9.57434 0 3.55518 5.89813 3.55518 13.1717C3.55518 19.2177 12.5185 30.384 16.6728 35.4627C16.7543 35.5663 16.8677 35.6195 17.0016 35.6195C17.1354 35.6195 17.2459 35.5663 17.3303 35.4657C21.313 30.6028 30.448 19.3834 30.448 13.1717C30.448 5.89813 24.4288 0 17.0016 0ZM17.0016 20.0578C13.109 20.0578 9.95545 16.9697 9.95545 13.1569C9.95545 9.34413 13.109 6.25308 17.0016 6.25308C20.8941 6.25308 24.0477 9.34413 24.0477 13.1569C24.0477 16.9697 20.8941 20.0578 17.0016 20.0578Z" fill="#2269A6"/>
<path fill-rule="evenodd" clip-rule="evenodd" d="M34 35.7469C34 38.6487 26.3895 41.0002 17.0015 41.0002C7.61342 41.0002 0 38.6487 0 35.7469C0 33.4693 4.69838 31.5289 11.2645 30.8042C12.05 31.8395 12.818 32.8186 13.5337 33.7148C11.0376 34.0638 9.32403 34.7767 9.32403 35.5961C9.32403 36.7615 12.7598 37.7051 17.0015 37.7051C21.2431 37.7051 24.6789 36.7615 24.6789 35.5961C24.6789 34.7767 22.9683 34.0638 20.4751 33.7178C21.1936 32.8186 21.9646 31.8395 22.753 30.8042C29.3103 31.5319 34 33.4723 34 35.7469Z" fill="#F7BC74"/>
</g>
<defs>
<clipPath id="clip0_106_3700">
<rect width="34" height="41" fill="white"/>
</clipPath>
</defs>
</svg>
