<svg width="220" height="76" viewBox="0 0 220 76" fill="none" xmlns="http://www.w3.org/2000/svg">
<path d="M11.677 35.9701H10.5672C10.4608 35.9701 10.3715 36.0467 10.3715 36.1531L10.4141 38.323C10.4141 38.4081 10.3503 38.4847 10.2525 38.4847L7.82871 38.54C7.70115 38.54 7.59059 38.4422 7.59059 38.3103V36.553C7.59059 36.4339 7.53531 36.3488 7.45026 36.2722L6.82519 35.7617C6.74014 35.6851 6.67636 35.6 6.65084 35.4808C5.98324 32.7578 5.74512 30.0177 5.94072 27.252C6.0045 26.2777 6.26389 24.9629 6.70612 23.2951C7.27592 21.1379 7.48003 18.2744 8.74294 16.4321C9.74222 14.9684 10.5927 13.5813 11.4133 12.0283C11.4261 11.9943 11.4474 11.973 11.4771 11.9645C11.5197 11.9645 11.5324 11.9645 11.5196 12.0071L11.0136 13.492C10.9499 13.6664 11.0349 13.8622 11.2177 13.926C11.3453 13.9685 11.4856 13.926 11.5834 13.8409C12.3276 13.0282 12.9059 12.0496 13.2971 10.9008C13.4034 10.5775 13.3396 10.2073 13.565 9.90519C13.6713 9.76478 13.7266 9.65416 13.7266 9.58183C13.7266 9.49673 13.7138 9.40738 13.684 9.32228C13.6415 9.23719 13.65 9.14784 13.7266 9.07125C16.6138 5.96099 21.168 2.48055 25.4074 1.8168C26.9127 1.57854 28.401 1.27644 29.8765 0.885001C29.9531 0.863726 30.0041 0.787138 29.9829 0.710552C29.9701 0.64673 29.9063 0.604182 29.8425 0.604182L28.8092 0.582913C28.8092 0.582913 28.7454 0.548871 28.7454 0.519087C28.7454 0.497813 28.7455 0.476543 28.7667 0.463779C28.8007 0.442505 28.8305 0.42974 28.873 0.42974C29.6809 0.365918 30.8333 0.246783 32.3173 0.0510621C32.6192 0.00851403 33.2656 0.472285 33.7078 0.540362C35.3747 0.778631 37.1861 0.95308 39.1549 1.08072C39.4866 1.102 39.5844 0.961588 39.4356 0.659496C39.4143 0.616948 39.2952 0.58291 39.0699 0.553126C37.7559 0.336131 36.4335 0.153173 35.1068 0C35.094 0 35.0855 -5.191e-07 35.0855 0.0127639V0.0255343C37.3052 0.0255343 39.4908 0.297836 41.651 0.816922C41.77 0.850961 41.8338 0.923296 41.8338 1.04669C41.8338 1.12327 41.8466 1.19986 41.8763 1.26368C41.9104 1.3275 41.9614 1.37005 42.0507 1.39558C43.7516 2.02529 45.4525 2.67628 47.1321 3.34854C47.4425 3.46767 47.5403 3.4464 47.8422 3.3145C47.9613 3.27195 48.0676 3.27195 48.1739 3.33577C56.6273 8.11818 61.6322 15.3726 63.2055 25.0863C63.2268 25.1927 63.1843 25.3161 63.0992 25.3884C62.0447 26.299 62.7208 30.7325 62.9717 31.9493C63.0992 32.6088 63.1205 33.2088 63.027 33.7491C62.1425 38.9442 60.0249 43.5607 56.6656 47.6198V47.5772C56.6529 47.556 56.6529 47.5432 56.6656 47.5219C57.8732 45.9604 58.83 44.2457 59.5529 42.4162C59.6082 42.2758 59.5316 42.1226 59.3913 42.0673C59.37 42.0673 59.3488 42.0545 59.3275 42.046C59.2722 42.046 59.1999 42.0588 59.1106 42.1013C59.0554 42.1353 59.0043 42.1779 58.9703 42.2417C57.9796 43.9862 57.0653 45.7647 56.2361 47.5858C56.1936 47.6709 56.2149 47.7474 56.2914 47.79C56.3254 47.8113 56.3467 47.824 56.368 47.8453C56.4105 47.8793 56.4105 47.9091 56.368 47.9517C42.123 64.0093 16.6096 59.997 8.09235 40.0462C8.03707 39.9058 7.86698 39.8293 7.72666 39.8931C7.62035 39.9356 7.55232 40.0462 7.55232 40.1526L7.53106 42.1354C7.53106 42.2758 7.412 42.3949 7.27167 42.3949H6.42122C6.2724 42.3949 6.16184 42.2758 6.16184 42.1226V36.2892C6.16184 36.1829 6.21712 36.085 6.28941 36.0084L6.39571 35.9021C6.47225 35.8255 6.59981 35.8255 6.67635 35.9021C6.69762 35.9233 6.71038 35.9446 6.71888 35.9786L7.92651 39.7186C7.98179 39.8803 8.13062 39.9782 8.2922 39.9782H10.2185C10.346 39.9782 10.4226 40.042 10.4226 40.1739L10.4991 42.1694C10.4991 42.3311 10.5842 42.4077 10.7457 42.3992L11.6515 42.3651C11.7918 42.3651 11.8556 42.2885 11.8556 42.1481L11.8896 36.1744C11.8896 36.0425 11.8258 35.9914 11.7067 35.9914L11.6727 35.9786L11.677 35.9701ZM36.7524 2.17847C36.7864 1.66789 35.3534 1.1488 33.5547 1.02966C31.756 0.897763 30.272 1.21262 30.2295 1.7232C30.1955 2.23377 31.6285 2.75286 33.4272 2.87199C35.2258 3.00389 36.7099 2.68904 36.7524 2.17847ZM45.7841 4.27183C45.967 3.70594 44.6233 2.75286 42.7906 2.14443C40.9494 1.53599 39.3122 1.49344 39.1294 2.05933C38.9466 2.62522 40.2903 3.5783 42.123 4.18673C43.9642 4.79517 45.6013 4.83772 45.7841 4.27183ZM27.5251 2.13591C27.4698 1.86361 26.3174 1.83382 24.9525 2.0806C23.5832 2.33163 22.5074 2.75286 22.5499 3.02517C22.6052 3.29748 23.7576 3.32726 25.1225 3.08048C26.4918 2.82945 27.5676 2.40822 27.5251 2.13591ZM32.1005 4.82496C32.1132 3.97825 30.7993 3.27621 29.1494 3.24217C27.5038 3.22089 26.1686 3.88038 26.1473 4.72709C26.1346 5.5738 27.4485 6.27584 29.0984 6.30988C30.744 6.33115 32.0792 5.67166 32.1005 4.82496ZM23.9404 4.33991C23.8766 3.87188 22.9071 3.63361 21.7973 3.80806C20.679 3.96974 19.837 4.49308 19.9008 4.94834C19.9646 5.41637 20.9341 5.65464 22.0439 5.48019C23.1623 5.31851 24.0042 4.79517 23.9404 4.33991ZM41.264 6.71408C41.5021 5.67166 40.1754 4.49308 38.3257 4.0676C36.4633 3.64637 34.7709 4.14419 34.537 5.18236C34.3031 6.22053 35.6256 7.40337 37.4753 7.82885C39.3378 8.25007 41.0302 7.75226 41.264 6.71408ZM53.5062 8.47132C53.7954 8.05861 52.7323 6.79068 51.1249 5.64188C49.5219 4.48032 47.9911 3.88464 47.7019 4.28459C47.4128 4.69731 48.4758 5.96524 50.0832 7.11404C51.6862 8.2756 53.217 8.87127 53.5062 8.47132ZM19.752 6.23755C19.3863 5.69719 18.5443 5.6206 17.8682 6.07586C17.1879 6.53113 16.9412 7.3438 17.2984 7.89693C17.6641 8.43729 18.5061 8.51387 19.1822 8.05861C19.8625 7.60334 20.1092 6.79067 19.752 6.23755ZM49.8025 10.3987C50.3638 9.45418 49.4453 7.85012 47.7359 6.82045C46.035 5.79079 44.1938 5.7142 43.624 6.66728C43.0627 7.61185 43.9812 9.21591 45.6906 10.2456C47.3915 11.2752 49.2327 11.3518 49.8025 10.3987ZM26.2664 8.16498C26.1261 7.05873 24.8759 6.30988 23.4769 6.48433C22.0779 6.66728 21.0659 7.70971 21.2062 8.81596C21.3466 9.92221 22.5967 10.6711 23.9957 10.4966C25.3947 10.3137 26.4067 9.27122 26.2664 8.16498ZM14.3814 11.3306C14.8024 11.5263 15.521 10.8625 15.9973 9.84562C16.4693 8.82447 16.516 7.85012 16.1036 7.64589C15.6826 7.45017 14.964 8.11392 14.4877 9.13082C14.0157 10.152 13.9689 11.1263 14.3814 11.3306ZM34.7496 10.369C34.8049 8.96063 33.3591 7.76502 31.5307 7.7012C29.7022 7.63738 28.1842 8.73086 28.1374 10.1392C28.0821 11.5475 29.5279 12.7431 31.3563 12.807C33.1848 12.8708 34.7028 11.7773 34.7496 10.369ZM59.6209 15.1726C59.8165 15.0322 59.0171 13.6111 57.8435 11.9858C56.6699 10.369 55.5728 9.16486 55.3899 9.30952C55.1943 9.44993 55.9938 10.871 57.1674 12.4964C58.341 14.1132 59.4381 15.3173 59.6209 15.1726ZM43.7813 13.709C44.2533 12.1602 43.0797 10.4243 41.1747 9.82861C39.257 9.23293 37.3222 10.0116 36.846 11.5646C36.374 13.1133 37.5476 14.8493 39.4526 15.4449C41.3703 16.0406 43.3051 15.262 43.7813 13.709ZM17.2219 14.8365C18.2339 15.2705 19.4926 14.5642 20.0326 13.275C20.5812 11.9858 20.207 10.586 19.1949 10.152C18.1829 9.71798 16.9242 10.4243 16.3842 11.7135C15.8357 13.0027 16.2099 14.4025 17.2219 14.8365ZM57.1121 16.4618C57.835 15.9087 57.414 14.1217 56.1638 12.4623C54.9137 10.803 53.3234 9.9137 52.5877 10.4668C51.8648 11.02 52.2858 12.807 53.536 14.4663C54.7861 16.1257 56.3765 17.015 57.1121 16.4618ZM26.7724 13.3388C25.7816 12.1007 23.9107 11.9603 22.584 13.0367C21.2615 14.1089 20.9894 15.9768 21.9801 17.2107C22.9709 18.4488 24.8419 18.5893 26.1686 17.5128C27.491 16.4406 27.7632 14.5727 26.7724 13.3388ZM51.8266 19.6061C53.0002 18.585 52.8726 16.4831 51.5247 14.9131C50.181 13.3388 48.1314 12.8836 46.9578 13.9047C45.7841 14.9259 45.9117 17.0277 47.2597 18.5978C48.6034 20.172 50.653 20.6273 51.8266 19.6061ZM12.3446 19.2062C13.1312 19.436 14.1305 18.3382 14.5728 16.7554C15.015 15.1726 14.7343 13.7175 13.9477 13.492C13.161 13.2622 12.1617 14.36 11.7195 15.9428C11.2773 17.5255 11.5579 18.9807 12.3446 19.2062ZM35.9998 18.0872C36.0125 16.2449 34.4392 14.7387 32.4917 14.7259C30.5314 14.7046 28.9368 16.1895 28.9283 18.0319C28.9155 19.8742 30.4889 21.3804 32.4364 21.3932C34.3967 21.4144 35.9913 19.9295 35.9998 18.0872ZM8.26669 22.7845C8.79397 22.9249 9.58914 21.6357 10.0441 19.8997C10.4949 18.1638 10.4438 16.6448 9.91656 16.5044C9.38928 16.364 8.59411 17.6532 8.13912 19.3892C7.68839 21.1251 7.73942 22.6441 8.26669 22.7845ZM16.8137 23.5291C18.1701 23.8227 19.5819 22.6398 19.9476 20.8954C20.326 19.1381 19.5266 17.4787 18.1701 17.1852C16.8137 16.8916 15.4019 18.0744 15.0362 19.8189C14.6578 21.5761 15.4572 23.2355 16.8137 23.5291ZM61.8066 24.2354C62.3466 24.0609 62.3126 22.4143 61.73 20.538C61.1475 18.6616 60.246 17.283 59.706 17.449C59.1659 17.6234 59.1999 19.27 59.7825 21.1464C60.3651 23.0228 61.2665 24.4013 61.8066 24.2354ZM44.4064 24.4949C45.7629 23.0951 45.6566 20.7847 44.1683 19.3338C42.6928 17.883 40.3881 17.8276 39.0444 19.2275C37.6879 20.6273 37.7942 22.9377 39.2825 24.3886C40.758 25.8437 43.0627 25.8948 44.4064 24.4949ZM57.8095 26.4606C58.9193 26.1458 59.37 24.3247 58.8342 22.393C58.2942 20.4614 56.959 19.1509 55.8534 19.4657C54.7436 19.7806 54.2929 21.6017 54.8286 23.5333C55.3687 25.465 56.7039 26.7755 57.8095 26.4606ZM28.1842 23.5759C28.1289 21.8399 26.5811 20.4741 24.7271 20.5294C22.8646 20.5848 21.4018 22.0356 21.4529 23.7716C21.5081 25.5076 23.056 26.8734 24.9099 26.818C26.7724 26.7627 28.2352 25.3118 28.1842 23.5759ZM11.2688 28.4434C12.3233 28.5412 13.3268 27.0776 13.4884 25.1799C13.65 23.2823 12.9271 21.6782 11.8726 21.5804C10.818 21.4825 9.8145 22.9462 9.65292 24.8438C9.49133 26.7415 10.2142 28.3455 11.2688 28.4434ZM50.8868 30.6431C52.5324 30.4389 53.6763 28.6604 53.4382 26.6649C53.2 24.6694 51.6735 23.2185 50.0151 23.4099C48.3695 23.6142 47.2257 25.3927 47.4638 27.3882C47.7019 29.3837 49.2285 30.8346 50.8868 30.6431ZM36.9905 27.8137C36.9905 25.7629 35.3449 24.095 33.2996 24.095C31.2543 24.095 29.6087 25.7543 29.6087 27.8137C29.6087 29.873 31.2543 31.5324 33.2996 31.5324C35.3449 31.5324 36.9905 29.873 36.9905 27.8137ZM7.29718 32.1408C7.93077 32.1408 8.45804 30.5793 8.48355 28.6391C8.49631 26.6989 7.9903 25.1246 7.35246 25.1246C6.71463 25.1246 6.1916 26.6861 6.16609 28.6263C6.15333 30.5665 6.65935 32.1408 7.29718 32.1408ZM17.2772 33.0854C18.8377 32.9875 20.0029 31.2984 19.8838 29.3029C19.7647 27.3074 18.4083 25.7586 16.8477 25.8565C15.2871 25.9543 14.122 27.6477 14.2411 29.639C14.3601 31.6345 15.7166 33.1832 17.2772 33.0854ZM60.8583 33.2683C61.5259 33.2683 62.0532 31.6643 62.0319 29.7113C62.0107 27.7584 61.4409 26.1756 60.7733 26.1883C60.1057 26.1883 59.5784 27.7924 59.5996 29.7454C59.6209 31.6983 60.1907 33.2811 60.8583 33.2683ZM21.3891 43.7649C23.5747 51.9852 31.9389 56.4741 40.0989 55.8443C42.1357 55.6912 44.2448 55.8869 46.4177 54.8019C46.4815 54.7679 46.5028 54.6955 46.473 54.6275C46.4517 54.5934 46.4177 54.5636 46.388 54.5636C45.1591 54.3254 43.9429 54.2488 42.7268 54.3466C41.7913 54.4232 41.0599 54.4105 40.5284 54.3041C34.554 53.134 29.6554 48.7218 29.0644 42.3864C29.0303 42.0077 29.1707 41.9311 29.4726 42.1354L34.9409 45.8328C34.9962 45.8753 35.0813 45.8668 35.1238 45.7987C35.1578 45.7562 35.1578 45.6924 35.1238 45.6371L22.7413 26.7032C22.6775 26.6053 22.5372 26.5713 22.4309 26.6393C22.3884 26.6734 22.3543 26.7159 22.3458 26.7712L17.2432 48.6622C17.2219 48.7601 17.2772 48.8452 17.3707 48.8665C17.4345 48.8792 17.5111 48.8665 17.5451 48.8026L21.2147 43.7181C21.2147 43.7181 21.2913 43.6756 21.3338 43.6969C21.3551 43.7096 21.3678 43.7309 21.3678 43.7394L21.3891 43.7607V43.7649ZM42.4589 35.9786C44.3214 36.085 45.9245 34.5703 46.035 32.5961C46.1413 30.6218 44.7211 28.9412 42.8586 28.8348C40.9961 28.7285 39.393 30.2432 39.2825 32.2174C39.1762 34.1916 40.5964 35.8723 42.4589 35.9786ZM56.1638 35.8723C57.2949 35.9361 58.307 34.4427 58.4133 32.5323C58.5196 30.6218 57.6819 29.0178 56.5508 28.954C55.4197 28.8901 54.4077 30.3836 54.3014 32.294C54.1951 34.2044 55.0328 35.8085 56.1638 35.8723ZM60.6202 40.3271C60.9221 40.4036 61.5557 38.9613 62.0319 37.1062C62.5167 35.2511 62.657 33.6811 62.3551 33.6045C62.0532 33.5279 61.4196 34.9703 60.9434 36.8254C60.4586 38.6804 60.3183 40.2505 60.6202 40.3271ZM49.1859 40.2717C50.2192 40.3271 51.1335 38.906 51.2228 37.1062C51.3078 35.3064 50.5424 33.8002 49.5091 33.7449C48.4758 33.6896 47.5616 35.1107 47.4723 36.9104C47.3872 38.7102 48.1526 40.2164 49.1859 40.2717ZM58.1326 41.6163C58.7237 41.7567 59.5444 40.4122 59.9611 38.6039C60.3821 36.8041 60.2502 35.2213 59.6592 35.0809C59.0681 34.9405 58.2474 36.285 57.8307 38.0933C57.4097 39.8931 57.5416 41.4759 58.1326 41.6163ZM13.4459 38.3741L13.5862 37.5955C13.6075 37.4891 13.7053 37.3998 13.8116 37.4125L17.2049 37.4466C17.3665 37.4466 17.4515 37.37 17.4515 37.2083L17.4855 36.4169C17.4855 36.2765 17.4005 36.1446 17.2602 36.102C15.959 35.7787 13.6415 35.7021 12.621 36.6424C11.8981 37.3019 12.115 39.2549 12.1787 40.3398C12.234 41.2504 12.4169 41.9141 13.4076 42.1524C14.6578 42.4545 15.9377 42.5225 17.2389 42.3268C17.3792 42.3055 17.4558 42.229 17.4558 42.0758L17.4983 41.2206C17.4983 41.0802 17.4345 41.0163 17.3027 41.0163L13.8031 40.9823C13.7266 40.9823 13.6543 40.927 13.6288 40.8504L13.4544 40.2335C13.4119 40.0803 13.4672 39.9952 13.6373 39.9952H17.1581C17.3622 39.9952 17.46 39.8888 17.46 39.6803V38.8251C17.46 38.6932 17.3622 38.5954 17.2347 38.5954L13.65 38.6166C13.5437 38.6166 13.4544 38.5315 13.4544 38.4209V38.3869L13.4417 38.3741H13.4459ZM36.5696 42.5183C38.3257 42.6587 39.865 41.2589 40.0139 39.3953C40.1627 37.5317 38.853 35.9021 37.0968 35.7617C35.3407 35.6212 33.8013 37.0211 33.6525 38.8847C33.5037 40.7483 34.8134 42.3779 36.5696 42.5183ZM53.9995 44.0032C54.9052 44.1989 55.9257 43.0289 56.2829 41.3908C56.6401 39.7527 56.1851 38.255 55.2836 38.0635C54.3779 37.8678 53.3574 39.0379 53.0002 40.676C52.643 42.3141 53.098 43.8117 53.9995 44.0032ZM43.6325 45.7392C44.6573 45.7945 45.5588 44.3606 45.6566 42.5396C45.7416 40.7185 44.989 39.1995 43.9684 39.157C42.9437 39.1017 42.0422 40.5355 41.9444 42.3566C41.8593 44.1777 42.612 45.6966 43.6368 45.7392H43.6325ZM49.0796 47.2241C50.266 47.3645 51.3503 46.3348 51.5332 44.9052C51.7075 43.4756 50.8868 42.2034 49.7132 42.0545C48.5268 41.9141 47.4425 42.9438 47.2597 44.3734C47.0853 45.803 47.906 47.0752 49.0796 47.2241ZM54.6373 48.7303C54.969 48.8835 55.7556 47.8283 56.402 46.3774C57.0356 44.9223 57.2949 43.633 56.9633 43.4841C56.6316 43.3309 55.8449 44.3861 55.1986 45.837C54.565 47.2922 54.3056 48.5814 54.6373 48.7303ZM52.1795 50.0535C52.7408 50.228 53.4722 49.4366 53.8166 48.2878C54.161 47.139 53.9782 46.0753 53.4169 45.9009C52.8556 45.7264 52.1242 46.5178 51.7798 47.6666C51.4354 48.8154 51.6182 49.8791 52.1795 50.0535ZM42.4249 52.2022C43.4922 52.3341 44.4702 51.3768 44.6318 50.0791C44.7806 48.7771 44.0492 47.6155 42.9862 47.4879C41.9231 47.3603 40.9409 48.3133 40.7793 49.6153C40.6304 50.9173 41.3618 52.0746 42.4249 52.2065V52.2022ZM50.6317 51.4832C51.1717 50.9088 51.0824 49.9429 50.4361 49.3345C49.7897 48.726 48.833 48.6963 48.293 49.2792C47.7529 49.8536 47.8422 50.8194 48.4886 51.4279C49.1349 52.0363 50.0917 52.0661 50.6317 51.4832ZM48.2504 52.9043C48.2845 52.3171 47.3787 51.798 46.2136 51.7214C45.0613 51.6576 44.0918 52.0703 44.062 52.6447C44.028 53.2319 44.9337 53.751 46.0988 53.8276C47.2512 53.8914 48.2207 53.4787 48.2504 52.9043Z" fill="#2C4B7C"/>
<path d="M142.187 35.3194C141.897 37.9957 141.689 43.0844 143.964 45.0459C145.15 46.0671 146.69 45.9692 148.25 45.9777C158.379 46.0543 168.499 46.0203 178.611 45.9139C178.879 45.9139 179.104 46.1309 179.117 46.4032L179.245 57.3551C179.245 57.7678 179.053 57.972 178.641 57.972C167.866 57.9507 157.108 57.9507 146.375 57.972C144.942 57.972 143.347 57.6912 141.604 57.1168C135.362 55.066 131.216 49.5049 130.45 43.0759C130.365 42.3611 130.31 40.072 130.28 36.2002C130.238 29.9967 130.246 23.8059 130.323 17.6024C130.399 11.2925 132.819 6.32717 137.556 2.69356C139.98 0.838464 144.619 0.187481 147.396 0.208755C157.622 0.272577 167.981 0.272577 178.437 0.208755C178.888 0.208755 179.126 0.438515 179.126 0.893779V11.7478C179.126 11.9435 178.964 12.1052 178.773 12.1052C168.708 12.0626 158.596 12.0839 148.433 12.169C145.342 12.2031 142.684 12.8838 142.276 16.4834C142.029 18.6193 141.974 20.7765 142.136 22.9337C142.136 23.0315 142.191 23.0741 142.284 23.0741L178.794 23.3038C179.032 23.3038 179.223 23.4996 179.223 23.7378V34.6472C179.223 34.9407 178.998 35.1662 178.717 35.1662H142.391C142.284 35.1662 142.229 35.2216 142.208 35.3279L142.187 35.3152V35.3194Z" fill="#2269A6"/>
<path d="M84.8878 2.68903C84.8878 2.75285 84.9303 2.7954 84.9941 2.80816C85.0281 2.80816 85.0578 2.80816 85.0791 2.77413C86.3505 1.44237 87.9111 0.736073 89.7736 0.659486C96.6197 0.378669 103.542 0.616937 110.465 0.744581C111.005 0.744581 111.605 0.906267 112.293 1.19985C117.86 3.5868 121.963 6.59069 123.783 12.6921C124.365 14.645 124.502 17.5809 124.514 20.0444C124.557 32.6003 124.633 45.169 124.752 57.7249C124.752 57.8356 124.667 57.9079 124.57 57.9079L113.05 57.9845C112.931 57.9845 112.867 57.9207 112.867 57.8015C112.867 44.9946 112.855 32.2004 112.846 19.4062C112.846 17.4532 112.676 16.1002 112.327 15.3088C111.554 13.5516 110.023 12.6623 107.744 12.607C98.5587 12.4113 92.7246 12.4113 90.2073 12.5942C84.4158 13.0154 84.8793 18.1553 85.0408 22.4186C85.4193 32.0812 85.1812 41.8375 84.9983 51.5002C84.9643 53.4531 85.0621 55.4018 85.2875 57.3548C85.3087 57.5292 85.1897 57.6782 85.0281 57.6909H85.0153C81.1713 57.9845 77.3273 58.0483 73.4833 57.8951C73.377 57.8951 73.3004 57.81 73.3004 57.6994V1.54023C73.3004 1.05093 73.6874 0.650975 74.1721 0.650975L84.4115 0.595667C84.8197 0.595667 85.0153 0.799896 84.9941 1.21261L84.9175 2.67627H84.8835L84.8878 2.68903Z" fill="#2269A6"/>
<path d="M3.75512 37.7699V42.0545C3.75512 42.2162 3.62756 42.3481 3.46598 42.3566L2.55174 42.4119C2.39016 42.4119 2.24984 42.2928 2.24133 42.1311V42.1099L2.22007 37.804C2.22007 37.6423 2.0925 37.5104 1.93942 37.5019L0.281051 37.4381C0.119466 37.4381 -0.00810265 37.2977 0.000401813 37.136V36.2808C0.000401813 36.1191 0.140728 35.9872 0.302313 35.9872H5.55807C5.71966 35.9744 5.85998 36.1063 5.85998 36.268V37.17C5.85998 37.3317 5.73241 37.4721 5.57083 37.4721H4.07404C3.91246 37.4849 3.78489 37.6253 3.78489 37.787L3.76363 37.7742L3.75512 37.7699Z" fill="#2C4B7C"/>
<path d="M70.7958 71.0466C70.9149 69.8979 69.9581 69.5405 68.9546 69.549C65.3912 69.6043 56.8953 70.5233 56.8655 64.6815C56.8442 60.6351 61.3431 59.8565 64.2941 59.7459C66.9093 59.648 69.6137 59.7459 72.3776 60.0267C72.637 60.048 72.8411 60.2777 72.8411 60.5458V62.9753C72.8411 63.1072 72.7774 63.171 72.6455 63.1923C70.4046 63.4093 68.7377 63.4646 67.6279 63.354C65.6464 63.1497 62.623 62.8774 61.1262 64.1794C61.0412 64.256 60.9859 64.3538 60.9647 64.4602C60.7478 65.5452 61.3091 66.1834 62.4189 66.1962C64.6173 66.2174 66.8115 66.3025 68.9844 66.4557C72.6881 66.7153 77.1146 70.2638 73.3642 73.9825C72.2969 75.0462 71.0594 75.6418 69.6732 75.7823C66.0971 76.1397 62.6443 76.0546 59.3063 75.544C58.9278 75.4887 58.7365 75.2632 58.7152 74.8845C58.6089 72.3784 59.8761 72.3571 61.9469 72.5954C63.4777 72.7784 70.5619 73.4208 70.7958 71.0466Z" fill="#2269A6"/>
<path d="M83.4037 65.8942C85.1599 63.737 87.8813 59.0311 91.3511 60.0948C91.4787 60.1374 91.5127 60.214 91.4489 60.3331C90.1988 62.5669 88.6297 64.6475 87.1414 66.7196C85.279 69.332 84.7389 71.8466 85.4831 74.9399C85.5468 75.1994 85.398 75.4717 85.1514 75.5568C84.1053 75.9142 83.0295 76.0248 81.9112 75.893C81.5455 75.8504 81.2861 75.5356 81.2989 75.1654C81.4392 72.8465 81.503 70.2766 80.1125 68.2258C78.3691 65.6559 76.2387 63.12 75.0183 60.2225C74.8907 59.9076 74.9843 59.746 75.3287 59.7545C78.9984 59.797 80.9927 63.137 82.8424 65.8601C82.9487 66.0218 83.1656 66.0558 83.3272 65.9452C83.3484 65.9239 83.3825 65.9027 83.4037 65.8814V65.8942Z" fill="#2269A6"/>
<path d="M104.741 72.4468C105.507 71.7193 105.571 69.745 104.129 69.6472C101.965 69.5068 99.8003 69.3961 97.6359 69.3323C94.9315 69.2472 91.4234 68.358 91.585 64.9839C91.7466 61.5886 94.6764 60.2909 97.6019 59.9632C100.778 59.6058 103.963 59.6143 107.131 60.0058C107.259 60.0186 107.348 60.1377 107.327 60.2653L106.961 62.8778C106.953 62.9842 106.885 63.082 106.799 63.1501C105.915 63.767 105.001 63.3798 104.163 63.333C102.407 63.2479 97.1852 62.8437 96.1519 63.6351C95.4418 64.1755 95.2802 65.4009 96.0328 65.9455C96.2922 66.1412 96.7089 66.2391 97.283 66.2603C99.4261 66.3369 101.556 66.4348 103.687 66.5412C104.86 66.605 105.724 66.7369 106.238 66.9411C109.296 68.1325 110.252 72.1873 107.595 74.336C106.808 74.9657 105.766 75.3656 104.452 75.5188C100.876 75.94 97.3255 75.9953 93.7919 75.6933C93.5453 75.672 93.3497 75.4635 93.3497 75.2167V73.2638C93.3497 73.0255 93.5325 72.8298 93.7706 72.8298L104.397 72.6C104.525 72.6 104.635 72.5575 104.733 72.4596L104.746 72.4383L104.741 72.4468Z" fill="#2269A6"/>
<path d="M133.691 66.0687C133.725 66.1666 133.81 66.2219 133.916 66.2304L145.822 66.4134C146.005 66.4134 146.09 66.5112 146.082 66.6857L145.997 69.0811C145.997 69.1875 145.933 69.2768 145.835 69.3194C145.533 69.4385 145.231 69.5023 144.908 69.5023C141.549 69.5023 138.189 69.5023 134.83 69.5236C132.194 69.5449 132.925 72.6679 135.251 72.6679C138.266 72.6679 141.281 72.7232 144.296 72.7998C145.006 72.8211 145.512 72.9615 145.792 73.2338C146.6 74.0039 146.264 75.5995 144.823 75.6973C143.037 75.8292 140.677 75.9016 137.726 75.9271C135.175 75.9484 132.019 75.7739 130.416 73.6167C129.145 71.9148 129.124 68.8343 129.136 66.6133C129.149 64.8774 129.222 63.035 130.45 61.7671C131.343 60.8566 132.487 60.312 133.886 60.1503C137.879 59.6823 141.885 59.7376 145.89 60.3034C146.018 60.3247 146.107 60.4353 146.094 60.5545L145.988 62.8734C145.988 62.9925 145.903 63.0903 145.792 63.1116C145.406 63.2095 145.027 63.252 144.653 63.252C139.678 63.2393 136.331 63.252 134.63 63.2861C132.938 63.3201 133.329 65.0858 133.695 66.073L133.691 66.0687Z" fill="#2269A6"/>
<path d="M121.087 63.5966L121.151 75.3398C121.151 75.5909 120.955 75.7951 120.708 75.8164L117.319 75.9993C117.052 76.0121 116.822 75.8036 116.801 75.5313V75.51L116.737 63.3881C116.737 63.2689 116.682 63.2136 116.567 63.2136L110.571 63.2902C110.227 63.2902 110.052 63.1158 110.052 62.7796L110.031 60.7203C110.031 60.6139 110.065 60.5246 110.137 60.448C110.461 60.1246 110.911 59.9502 111.494 59.9502C116.898 59.9162 122.303 59.9076 127.708 59.9162C127.827 59.9162 127.946 59.98 127.997 60.0906C128.503 61.1203 128.524 63.1796 126.836 63.1796C124.995 63.1796 123.154 63.2434 121.325 63.3753C121.176 63.3753 121.1 63.4604 121.108 63.6136L121.087 63.5923V63.5966Z" fill="#2269A6"/>
<path d="M153.332 63.8904L153.17 75.2209C153.17 75.523 152.924 75.7868 152.622 75.7953L149.39 75.957C149.011 75.9783 148.701 75.6847 148.68 75.3188V75.2848L148.659 60.4312C148.659 60.227 148.765 60.1164 148.969 60.1079C153.995 59.8483 159.23 59.4143 163.869 60.8865C163.988 60.9205 164.094 60.9078 164.192 60.8524C165.055 60.3759 165.689 60.1249 166.11 60.0951C169.716 59.8441 178.471 58.925 178.62 64.6605C178.718 68.2048 178.718 71.7533 178.641 75.2975C178.641 75.4167 178.586 75.5017 178.479 75.5571C177.391 76.0889 176.294 76.0974 175.184 75.5783C175.052 75.5145 174.967 75.3826 174.959 75.2294L174.691 64.0265C174.678 63.5925 174.338 63.2564 173.904 63.2564C171.774 63.2351 169.597 63.2905 167.39 63.4096C166.433 63.4649 165.957 63.9287 165.969 64.8307C166.003 68.1367 166.012 71.5533 166.012 75.1103C166.012 75.5656 165.646 75.9357 165.183 75.9442H162.342C161.985 75.957 161.815 75.7826 161.802 75.4252L161.717 63.8861C161.717 63.7883 161.675 63.733 161.577 63.7117C158.885 63.2139 156.193 63.2139 153.502 63.6989C153.396 63.7202 153.319 63.8053 153.319 63.9159L153.332 63.8819V63.8904Z" fill="#2269A6"/>
<rect x="186" y="76" width="76" height="34" transform="rotate(-90 186 76)" fill="#2269A6"/>
<path d="M191.812 70.7222L191.812 61.8828C191.812 59.0778 192.579 56.9721 194.112 55.5688C195.625 54.1435 197.493 53.4316 199.716 53.4316C201.94 53.4316 203.776 54.1655 205.289 55.6332C206.757 57.1009 207.492 59.3025 207.492 62.238L207.492 65.9293L215.753 65.9293L215.753 70.7206L191.812 70.7206L191.812 70.7222ZM203.15 65.9309L203.15 62.0777C203.15 60.8912 202.822 59.9688 202.163 59.3088C201.504 58.6504 200.668 58.3219 199.652 58.3219C198.636 58.3219 197.87 58.6409 197.222 59.2774C196.575 59.9138 196.251 60.7624 196.251 61.8184L196.251 65.9309L203.15 65.9309Z" fill="white"/>
<path d="M216.141 38.9931C216.141 42.554 214.964 45.5115 212.61 47.8639C210.234 50.2384 207.319 51.4248 203.863 51.4248C200.407 51.4248 197.438 50.2274 195.018 47.8309C192.6 45.414 191.389 42.4566 191.389 38.9602C191.389 35.4637 192.598 32.5173 195.018 30.1208C197.436 27.7039 200.364 26.4939 203.797 26.4939C207.229 26.4939 210.146 27.7024 212.544 30.1208C214.942 32.5173 216.14 35.4747 216.14 38.9916L216.141 38.9931ZM203.8 31.4817C201.597 31.4817 199.771 32.2045 198.325 33.6503C196.856 35.118 196.122 36.8874 196.122 38.9602C196.122 41.0329 196.856 42.8023 198.325 44.2701C199.771 45.7158 201.597 46.4386 203.8 46.4386C206.003 46.4386 207.795 45.7268 209.242 44.3015C210.688 42.8558 211.412 41.0753 211.412 38.9586C211.412 36.8419 210.688 35.063 209.242 33.6157C207.795 32.17 205.981 31.4581 203.8 31.4785L203.8 31.4817Z" fill="white"/>
<path d="M216.141 15.7783C216.141 17.6562 215.753 19.3942 214.975 20.9908C214.196 22.589 213.096 23.8728 211.669 24.844L208.333 22.0924C210.558 20.4958 211.669 18.3807 211.669 15.7469C211.669 14.7538 211.432 13.9335 210.957 13.286C210.482 12.6386 209.867 12.3149 209.111 12.3149C208.117 12.3149 207.286 13.0378 206.617 14.4835C206.531 14.6563 206.218 15.4436 205.677 16.8469C205.245 17.9469 204.814 18.8867 204.381 19.6629C202.935 22.1882 200.947 23.4517 198.42 23.4517C196.413 23.4517 194.749 22.6958 193.431 21.1857C192.093 19.6535 191.423 17.6892 191.423 15.2928C191.423 12.1845 192.504 9.56173 194.662 7.42457L198.161 9.98288C197.471 10.6303 196.925 11.4349 196.524 12.395C196.125 13.3552 195.925 14.2996 195.925 15.2283C195.925 16.1571 196.136 16.9287 196.557 17.4787C196.979 18.0287 197.535 18.3037 198.225 18.3037C199.155 18.3037 199.943 17.6562 200.59 16.3613L201.627 13.9979C202.188 12.659 202.609 11.6879 202.891 11.0845C204.208 8.3643 206.196 7.00501 208.852 7.00501C210.99 7.00501 212.739 7.81429 214.1 9.43288C215.462 11.0515 216.141 13.1666 216.141 15.7783Z" fill="white"/>
</svg>
