<svg width="90" height="91" viewBox="0 0 90 91" fill="none" xmlns="http://www.w3.org/2000/svg">
<path d="M16.5926 48.5671C16.6248 50.5834 19.6275 50.5834 19.6596 48.5671C19.6275 46.5509 16.6248 46.5509 16.5926 48.5671ZM82.0245 57.2585C77.8425 57.2585 74.4383 60.663 74.4383 64.8347C74.4383 68.0964 79.3251 75.9992 82.0245 79.9978C84.7239 76.001 89.6107 68.0857 89.6107 64.8347C89.6107 60.663 86.2066 57.2585 82.0245 57.2585ZM82.0245 68.9761C76.8933 68.8405 76.8844 61.325 82.0245 61.1947C87.1664 61.3268 87.1557 68.8405 82.0245 68.9761ZM64.3882 86.9103H63.3659V85.8878C63.3605 84.5514 61.3266 84.5496 61.3213 85.8878V87.9327C61.3213 88.4965 61.778 88.9551 62.3436 88.9551H64.3882C65.7263 88.9497 65.7263 86.9156 64.3882 86.9103ZM82.2797 83.843C80.4795 83.843 79.0075 85.183 78.7524 86.9103H77.6783C76.342 86.9192 76.342 88.9462 77.6783 88.9551H79.0593C80.6382 92.3471 85.8694 91.2051 85.8587 87.4206C85.8587 85.4471 84.2529 83.843 82.2797 83.843ZM82.2814 88.9551C80.2654 88.923 80.2654 85.92 82.2814 85.8878C84.2975 85.92 84.2975 88.923 82.2814 88.9551ZM61.3213 72.7999V76.0723C61.3266 77.4088 63.3605 77.4106 63.3659 76.0723V72.7999C63.3605 71.4635 61.3266 71.4617 61.3213 72.7999ZM62.3436 66.4602H60.2989C58.9626 66.4656 58.9608 68.4997 60.2989 68.5051H61.3213V69.5275C61.3266 70.8639 63.3605 70.8657 63.3659 69.5275V67.4826C63.3659 66.9188 62.9092 66.4602 62.3436 66.4602ZM62.3436 78.3206C61.778 78.3206 61.3213 78.7791 61.3213 79.343V82.6154C61.3213 83.1793 61.778 83.6378 62.3436 83.6378C62.9092 83.6378 63.3659 83.1793 63.3659 82.6154V79.343C63.3659 78.7791 62.9092 78.3206 62.3436 78.3206ZM16.5926 48.5671C16.6248 50.5834 19.6275 50.5834 19.6596 48.5671C19.6275 46.5509 16.6248 46.5509 16.5926 48.5671ZM16.5926 48.5671C16.6248 50.5834 19.6275 50.5834 19.6596 48.5671C19.6275 46.5509 16.6248 46.5509 16.5926 48.5671ZM16.5926 48.5671C16.6248 50.5834 19.6275 50.5834 19.6596 48.5671C19.6275 46.5509 16.6248 46.5509 16.5926 48.5671ZM16.5926 48.5671C16.6248 50.5834 19.6275 50.5834 19.6596 48.5671C19.6275 46.5509 16.6248 46.5509 16.5926 48.5671ZM16.5926 48.5671C16.6248 50.5834 19.6275 50.5834 19.6596 48.5671C19.6275 46.5509 16.6248 46.5509 16.5926 48.5671ZM16.5926 48.5671C16.6248 50.5834 19.6275 50.5834 19.6596 48.5671C19.6275 46.5509 16.6248 46.5509 16.5926 48.5671ZM73.2483 86.9103H68.8183C67.4819 86.9156 67.4801 88.9497 68.8183 88.9551H73.2483C74.5846 88.9497 74.5864 86.9156 73.2483 86.9103Z" fill="#29568C"/>
<path d="M51.2515 15.4593V8.59861C51.2515 8.03655 50.7912 7.5762 50.2292 7.5762H2.91352C2.35151 7.5762 1.8912 8.03655 1.8912 8.59861V82.4014C1.8912 82.9635 2.35151 83.4238 2.91352 83.4238H50.2292C50.7912 83.4238 51.2515 82.9635 51.2515 82.4014V68.4766C51.2515 68.5301 53.1016 68.498 53.1427 68.5052V84.589C53.1427 88.1273 50.5342 91 47.3246 91H5.81633C2.60664 91 0 88.1273 0 84.589V6.41104C0 2.87275 2.60664 0 5.81633 0H47.3263C50.536 0 53.1427 2.87275 53.1427 6.41104V15.4593H51.2515Z" fill="#1261A5"/>
<path d="M34.3217 16.676C35.1906 15.9302 36.3057 15.4591 37.5421 15.4591H49.2069V9.62085H3.93585V81.377H49.2051V53.4026H37.5403C34.8106 53.4026 32.5822 51.1847 32.5822 48.4547V20.4088C32.5822 18.9153 33.2673 17.586 34.3217 16.676ZM17.8718 16.3602C23.1779 16.3602 27.5027 20.6747 27.5027 25.9812C27.5027 30.9202 19.6096 42.2595 18.7104 43.5371C18.3214 44.1009 17.4169 44.1027 17.0333 43.5371C16.1341 42.2595 8.241 30.9202 8.241 25.9812C8.241 20.6747 12.5658 16.3602 17.8718 16.3602ZM20.1716 68.505H18.127C17.565 68.505 17.1047 68.0446 17.1047 67.4826V65.4378C17.1296 64.096 19.1243 64.0942 19.1493 65.4378V66.4602H20.1716C21.5079 66.4691 21.5079 68.4979 20.1716 68.505ZM17.1047 61.3481V57.2585C17.1296 55.9167 19.1243 55.9149 19.1493 57.2585V61.3481C19.1243 62.6899 17.1296 62.6917 17.1047 61.3481ZM19.1493 51.9822V53.1688C19.1493 53.7309 18.689 54.1912 18.127 54.1912C17.565 54.1912 17.1047 53.7309 17.1047 53.1688V51.9822C13.2134 50.7832 14.0181 45.0395 18.127 44.9877C22.2359 45.0395 23.0387 50.785 19.1493 51.9822ZM29.087 68.505H24.6302C23.2885 68.48 23.2867 66.4851 24.6302 66.4602H29.087C30.4233 66.4655 30.4269 68.5014 29.087 68.505ZM42.4699 66.4602H46.9267C48.2684 66.4851 48.2702 68.48 46.9267 68.505H42.4699C41.1318 68.5014 41.13 66.4655 42.4699 66.4602ZM33.5438 66.4602H38.0006C39.3387 66.4637 39.3405 68.5014 38.0006 68.505H33.5438C32.2021 68.48 32.2003 66.4869 33.5438 66.4602Z" fill="#E5E5E5"/>
<path d="M17.87 18.4053C13.688 18.4053 10.2838 21.8097 10.2838 25.9815C10.2838 29.2432 15.1706 37.1459 17.87 41.1446C20.5694 37.1459 25.4562 29.2325 25.4562 25.9815C25.4562 21.8097 22.0521 18.4053 17.87 18.4053ZM17.87 32.1677C10.0251 31.9268 10.0162 20.5393 17.87 20.2966C25.7256 20.5464 25.7131 31.9214 17.87 32.1677Z" fill="#29568C"/>
<path d="M21.7666 26.2258C21.6293 31.3628 14.1109 31.3611 13.9753 26.2258C14.1091 21.1013 21.6346 21.103 21.7666 26.2258Z" fill="#29568C"/>
<path d="M57.694 17.5042V31.6538C57.7118 31.7394 57.5548 31.8304 57.4995 31.7358C57.33 31.6109 52.6413 26.6595 52.5717 26.8896L52.52 21.8079C52.5093 21.2459 52.0793 20.8265 51.4869 20.7962C50.9249 20.7962 50.4646 21.2673 50.4771 21.8311L50.5288 26.9021C50.3201 26.8147 45.8544 31.5556 45.6207 31.7376C45.5743 31.8197 45.403 31.7572 45.4262 31.6555V17.5042H57.694Z" fill="#F6AA50"/>
<path d="M65.5764 17.5042H59.7387V31.6573C59.8029 33.5416 57.3033 34.5586 56.0384 33.1704L51.6422 28.6918C51.6387 28.7025 51.5156 28.6918 51.4781 28.6918L47.0712 33.1704C45.8098 34.5711 43.3156 33.5326 43.3798 31.6573V17.5059H37.5421C35.9435 17.5077 34.6357 18.8121 34.6286 20.409V48.4549C34.6286 50.05 35.9364 51.3579 37.5421 51.3579H65.5764C67.1804 51.3579 68.4793 50.05 68.4793 48.4549V20.4072C68.4793 18.8031 67.1822 17.5042 65.5764 17.5042ZM38.8802 41.1642H47.1301C48.4718 41.1891 48.4754 43.1911 47.1301 43.209H38.8802C37.5403 43.1911 37.535 41.1909 38.8802 41.1642ZM51.4977 47.5752H38.882C37.5439 47.5573 37.535 45.5553 38.882 45.5304H51.4977C52.8376 45.5553 52.843 47.5573 51.4977 47.5752Z" fill="#F6AA50"/>
</svg>
