<svg width="48" height="47" viewBox="0 0 48 47" fill="none" xmlns="http://www.w3.org/2000/svg">
<path d="M44.5636 14.1845C44.5748 12.4889 44.1938 10.8137 43.4504 9.28966L45.7511 7.00782L45.5797 6.7244C44.6211 5.14801 43.3559 3.77997 41.8592 2.70127L41.594 2.50382L39.132 4.62526C37.6703 3.76913 36.0311 3.26113 34.3415 3.14064L33.5151 0L33.1847 0.0128948C31.3388 0.0544551 29.52 0.466822 27.8367 1.22547L27.5351 1.36229L28.142 4.54527C26.6672 5.38082 25.4067 6.54781 24.4603 7.95409L21.3275 7.09838L21.1698 7.39025C20.2882 9.01159 19.7366 10.7915 19.5468 12.6273L19.5117 12.9572L22.578 14.0275C22.5649 15.7212 22.9449 17.3947 23.6881 18.9167L21.3861 21.2029L21.5574 21.4863C22.5167 23.064 23.7835 24.4326 25.2824 25.5108L25.5489 25.7038L28.0052 23.5854C29.4669 24.4415 31.1061 24.9496 32.7957 25.0701L33.6279 28.2077L33.9569 28.1992C35.8013 28.156 37.6183 27.7432 39.3004 26.9852L39.6021 26.8484L38.9965 23.661C40.4708 22.8261 41.7319 21.6614 42.6813 20.258L45.811 21.1079L45.9687 20.816C46.8503 19.1947 47.402 17.4147 47.5918 15.579L47.6267 15.2491L44.5636 14.1845ZM36.4217 19.5179C35.3508 20.082 34.1366 20.316 32.9328 20.1901C31.7289 20.0642 30.5894 19.5842 29.6583 18.8106C28.7272 18.0371 28.0465 17.0049 27.7021 15.8445C27.3577 14.6841 27.3651 13.4476 27.7234 12.2914C28.0817 11.1352 28.7749 10.1112 29.7152 9.34897C30.6554 8.58671 31.8007 8.12039 33.006 8.00898C34.2113 7.89758 35.4225 8.14609 36.4866 8.72309C37.5507 9.3001 38.4198 10.1797 38.9839 11.2506C39.3593 11.9615 39.5907 12.7395 39.665 13.5399C39.7394 14.3404 39.6551 15.1477 39.4172 15.9155C39.1792 16.6834 38.7921 17.3968 38.2781 18.015C37.7641 18.6331 37.1333 19.1438 36.4217 19.5179Z" fill="#1261A5"/>
<path d="M29.9917 26.301C29.3944 26.1303 28.8113 25.9135 28.2476 25.6524L26.8923 26.8173L25.644 27.8929L24.4236 28.9484C24.5 30.4774 24.1011 31.9925 23.2817 33.2857C22.4622 34.5788 21.2625 35.5865 19.8472 36.1702C18.432 36.754 16.8707 36.8852 15.3779 36.5458C13.885 36.2064 12.5339 35.4131 11.5102 34.2749C10.4864 33.1366 9.84022 31.7093 9.66039 30.189C9.48057 28.6687 9.77593 27.13 10.5059 25.7843C11.2358 24.4386 12.3646 23.352 13.737 22.6737C15.1095 21.9954 16.6583 21.7587 18.1707 21.9962L19.2171 20.9445L19.2125 20.9358L20.5661 19.5903L21.649 18.5138C21.4246 17.9132 21.2499 17.2952 21.1266 16.6661C20.1017 16.3276 19.0384 16.1191 17.9617 16.0454L16.9581 12.2402L16.5578 12.2531C14.3215 12.306 12.1185 12.8064 10.0788 13.7249L9.71879 13.887L10.4536 17.7458C8.66673 18.7583 7.13885 20.1713 5.98996 21.8738L2.19805 20.8355L2.00963 21.1877C0.940148 23.1507 0.271901 25.3069 0.0438056 27.5307L0 27.9277L3.71043 29.229C3.69762 31.2807 4.15928 33.3075 5.05934 35.1512L2.27104 37.918L2.4763 38.2554C3.63668 40.1682 5.17098 41.8272 6.9874 43.1333L7.31228 43.3636L10.2899 40.7995C12.058 41.8374 14.0421 42.4523 16.0873 42.5962L17.093 46.3949L17.4911 46.3886C19.7258 46.338 21.9273 45.8367 23.9636 44.9148L24.3302 44.7546L23.5953 40.8959C25.3813 39.8857 26.9086 38.4749 28.057 36.7745L31.853 37.7997L32.0414 37.4474C33.1108 35.4844 33.7791 33.3282 34.0072 31.1044L34.051 30.7073L30.3365 29.4192C30.3459 28.3698 30.2302 27.323 29.9917 26.301Z" fill="#F5A545"/>
<path d="M19.2242 33.4966C21.5305 32.2816 22.4152 29.427 21.2002 27.1208C19.9852 24.8145 17.1306 23.9298 14.8243 25.1448C12.5181 26.3598 11.6334 29.2143 12.8484 31.5206C14.0634 33.8269 16.9179 34.7116 19.2242 33.4966Z" fill="#1261A5"/>
</svg>
