<svg width="226" height="223" viewBox="0 0 226 223" fill="none" xmlns="http://www.w3.org/2000/svg">
<path d="M0.582635 46.445C0.602895 54.1921 1.04292 58.3107 5.47162 60.8858L15.2585 66.5942C10.8506 64.0184 8.11555 58.5612 8.09529 50.7938C8.05413 35.1773 19.0135 16.1683 32.5852 8.29884C39.4216 4.35398 45.6054 3.98619 50.0746 6.60257L42.5626 2.23284C38.0927 -0.363248 31.909 0.00454187 25.0928 3.94941C11.5009 11.7986 0.541482 30.8082 0.582635 46.445Z" fill="#C9CEE2"/>
<path d="M50.9978 28.743C51.2935 28.4963 51.4911 28.0848 51.4911 27.7392L51.4746 23.6732C51.4746 23.3276 51.2777 23.1627 50.9814 23.1957L46.9383 24.1012C46.5932 22.7188 46.0506 21.5495 45.3276 20.6117L47.3162 15.1303C47.4315 14.7518 47.3656 14.4062 47.1681 14.2743L44.6698 12.8589C44.5545 12.793 44.3741 12.8094 44.2095 12.9084C44.0778 12.9578 43.9961 13.0568 43.8644 13.1715L40.117 17.6326C38.9337 17.5007 37.6351 17.6161 36.2714 18.0276L35.0058 14.0606C34.8905 13.8139 34.6607 13.715 34.3321 13.8957L30.8316 15.9204C30.5194 16.1018 30.289 16.4804 30.1909 16.8425L28.9252 22.2578C27.5773 23.4595 26.2959 24.8095 25.129 26.2909L21.3328 26.2084C21.234 26.2084 21.1359 26.2579 21.0207 26.2909C20.8561 26.4063 20.6756 26.587 20.5439 26.8178L18.0621 31.114C17.8652 31.4925 17.7993 31.8546 17.9304 32.0854L19.919 35.2789C19.2454 37.0563 18.7028 38.8509 18.3578 40.6125L14.2982 44.4476C14.019 44.6943 13.8379 45.1059 13.8379 45.435V49.4845C13.8379 49.8301 14.0348 50.0279 14.3311 49.9455L18.3907 49.0729C18.7357 50.4553 19.2783 51.6081 19.9849 52.579L18.0127 58.0438C17.881 58.4224 17.9304 58.768 18.1279 58.8834L20.6427 60.3317C20.7744 60.3812 20.9219 60.3812 21.103 60.2658C21.2018 60.1998 21.3328 60.1174 21.4316 59.9861L25.1784 55.5416C26.3617 55.6735 27.6438 55.5581 29.024 55.163L30.3061 59.0971C30.3884 59.3767 30.6676 59.4427 30.9468 59.2785L34.4638 57.2537C34.7759 57.073 35.0387 56.7103 35.1045 56.3152L36.3701 50.8998C37.751 49.7311 39.0324 48.3646 40.1993 46.8668L43.9955 46.9492C44.0778 46.9492 44.2089 46.9163 44.3076 46.8668C44.4722 46.7679 44.6527 46.5872 44.7679 46.3563L47.2497 42.0602C47.4631 41.6816 47.5125 41.2865 47.365 41.0722L45.3928 37.8623C46.0664 36.1172 46.609 34.3233 46.9541 32.5452L50.9972 28.743H50.9978ZM32.6892 46.8991C27.6603 49.7964 23.6994 47.5409 23.683 41.7469C23.6665 36.1502 27.5944 29.1381 32.6404 26.2243C37.5876 23.3764 41.6301 25.7798 41.6466 31.3765C41.6631 37.1705 37.6364 44.0348 32.6898 46.8991H32.6892Z" fill="#2269A6"/>
<g opacity="0.5">
<path d="M225.417 173.331L140.091 222.999L54.2056 173.331L65.4948 166.766L140.021 209.869L182.708 185.012L190.825 180.293L214.057 166.766L225.417 173.331Z" fill="#E3E7F0"/>
</g>
<g opacity="0.15">
<path d="M208.972 140.927L140.021 181.04L70.627 140.927L76.5049 137.516L140.021 174.241L170.415 156.533L178.882 151.603L203.094 137.516L208.972 140.927Z" fill="#2F2F2F"/>
</g>
<g opacity="0.15">
<path d="M208.972 105.182L140.021 145.296L70.627 105.182L76.4118 101.818L140.021 138.591L203.164 101.818L208.972 105.182Z" fill="#2F2F2F"/>
</g>
<path d="M63.082 81.258C61.8449 80.5427 60.8363 81.116 60.8325 82.5421C60.8287 83.9657 61.8303 85.7013 63.0675 86.4166C64.3046 87.1319 65.3106 86.5574 65.315 85.1338C65.3188 83.7077 64.3191 81.9733 63.082 81.258Z" fill="#2269A6"/>
<path d="M71.9883 86.4387C70.7511 85.7234 69.7426 86.2967 69.7388 87.7228C69.735 89.1464 70.7366 90.882 71.9737 91.5973C73.2108 92.3126 74.2169 91.738 74.2213 90.3144C74.2251 88.8883 73.2254 87.154 71.9883 86.4387Z" fill="#2269A6"/>
<path d="M80.895 91.6203C79.6579 90.9051 78.6493 91.4783 78.6455 92.9044C78.6417 94.328 79.6433 96.0636 80.8804 96.7789C82.1176 97.4942 83.1236 96.9197 83.128 95.4961C83.1318 94.07 82.1321 92.3356 80.895 91.6203Z" fill="#2269A6"/>
<path d="M63.082 116.897C61.8449 116.181 60.8363 116.755 60.8325 118.181C60.8287 119.604 61.8303 121.34 63.0675 122.055C64.3046 122.771 65.3106 122.196 65.315 120.772C65.3188 119.346 64.3191 117.612 63.082 116.897Z" fill="#2269A6"/>
<path d="M71.9883 122.078C70.7511 121.363 69.7426 121.936 69.7388 123.362C69.735 124.786 70.7366 126.522 71.9737 127.237C73.2108 127.952 74.2169 127.378 74.2213 125.954C74.2251 124.528 73.2254 122.794 71.9883 122.078Z" fill="#2269A6"/>
<path d="M80.895 127.259C79.6579 126.544 78.6493 127.117 78.6455 128.543C78.6417 129.967 79.6433 131.702 80.8804 132.418C82.1176 133.133 83.1236 132.558 83.128 131.135C83.1318 129.709 82.1321 127.974 80.895 127.259Z" fill="#2269A6"/>
<path d="M63.082 116.897C61.8449 116.181 60.8363 116.755 60.8325 118.181C60.8287 119.604 61.8303 121.34 63.0675 122.055C64.3046 122.771 65.3106 122.196 65.315 120.772C65.3188 119.346 64.3191 117.612 63.082 116.897Z" fill="#2269A6"/>
<path d="M71.9883 122.078C70.7511 121.363 69.7426 121.936 69.7388 123.362C69.735 124.786 70.7366 126.522 71.9737 127.237C73.2108 127.952 74.2169 127.378 74.2213 125.954C74.2251 124.528 73.2254 122.794 71.9883 122.078Z" fill="#2269A6"/>
<path d="M80.895 127.259C79.6579 126.544 78.6493 127.117 78.6455 128.543C78.6417 129.967 79.6433 131.702 80.8804 132.418C82.1176 133.133 83.1236 132.558 83.128 131.135C83.1318 129.709 82.1321 127.974 80.895 127.259Z" fill="#2269A6"/>
<path d="M63.082 152.715C61.8449 151.999 60.8363 152.573 60.8325 153.999C60.8287 155.422 61.8303 157.158 63.0675 157.873C64.3046 158.588 65.3106 158.014 65.315 156.59C65.3188 155.164 64.3191 153.43 63.082 152.715Z" fill="#2269A6"/>
<path d="M71.9883 157.896C70.7511 157.18 69.7426 157.754 69.7388 159.18C69.735 160.603 70.7366 162.339 71.9737 163.054C73.2108 163.77 74.2169 163.195 74.2213 161.771C74.2251 160.345 73.2254 158.611 71.9883 157.896Z" fill="#2269A6"/>
<path d="M80.895 163.077C79.6579 162.362 78.6493 162.935 78.6455 164.361C78.6417 165.785 79.6433 167.52 80.8804 168.235C82.1176 168.951 83.1236 168.376 83.128 166.953C83.1318 165.527 82.1321 163.792 80.895 163.077Z" fill="#2269A6"/>
<path d="M181.075 67.0311C181.075 68.1287 180.912 69.227 180.585 70.3019C180.445 70.7692 180.282 71.2366 180.118 71.6805C178.532 67.8491 174.987 64.2276 169.738 61.1674C161.761 56.5414 151.078 53.9948 139.648 53.9948C128.218 53.9948 117.605 56.5414 109.675 61.1674C104.543 64.1344 101.067 67.7089 99.5274 71.5168C99.3407 71.0495 99.1773 70.5821 99.0374 70.1154C98.7107 69.0406 98.5474 67.9658 98.5474 66.8916C98.5474 61.4248 102.489 56.0747 109.674 51.9396C117.604 47.3137 128.264 44.7671 139.647 44.7671L147.532 45.1641C155.929 46.0753 163.626 48.3879 169.738 51.939C177.015 56.1445 181.05 61.4946 181.074 67.0311H181.075Z" fill="#2269A6"/>
<path d="M28.2894 69.2297H28.2919C28.6129 69.2284 28.8725 68.9659 28.8725 68.6444L28.8693 67.3831C28.8693 67.3831 28.8719 67.3825 28.8738 67.3819C30.2502 66.8682 31.6259 66.1904 33.0258 65.373C46.7411 57.4528 57.8677 38.1559 57.8215 22.3859C57.8018 15.8266 55.8543 9.20953 50.1822 5.99074L42.855 1.72818C38.6979 -0.687823 33.2265 -0.566706 27.4606 2.0668C27.1669 2.20123 27.0371 2.54683 27.1713 2.84106C27.3055 3.13529 27.6544 3.25958 27.9437 3.12958C33.3607 0.655245 38.4472 0.518275 42.2694 2.73833L45.1533 4.41495C23.1414 2.0687 -1.73843 45.246 10.9209 63.3495C10.9335 63.3673 10.9418 63.3901 10.9551 63.4078L5.76599 60.3805C1.64751 57.9861 1.18723 54.111 1.16697 46.4438C1.16001 43.972 1.43605 41.3537 1.98497 38.6606C2.04892 38.3448 1.84632 38.0367 1.52912 37.9713C1.22142 37.9098 0.907392 38.1102 0.840914 38.4279C0.276168 41.1978 -0.0068389 43.8966 0.000125464 46.4464C0.0203854 54.5695 0.54018 58.6925 5.17781 61.3901C5.49944 61.5778 15.6073 67.4719 14.971 67.101C14.9944 67.101 14.9944 67.1244 15.0178 67.1244C17.0008 68.269 19.2629 68.853 21.7125 68.853C23.6245 68.853 25.629 68.503 27.7044 67.8023L27.7063 68.6463C27.7063 68.9691 27.9684 69.2291 28.2894 69.2291V69.2297ZM12.1884 63.0527C1.59686 48.955 15.6744 18.7822 32.8859 8.81131C45.794 1.35658 56.6052 6.91972 56.6546 22.3853C56.7015 37.7811 45.8548 56.6348 32.4427 64.3679C31.0663 65.1625 29.7139 65.8162 28.3837 66.3305C28.3749 66.3337 28.3666 66.3362 28.3578 66.3394C28.3305 66.3356 28.3134 66.3096 28.2849 66.3096H28.2824C28.1096 66.3096 27.9652 66.3926 27.8589 66.5131C27.8544 66.5144 27.8513 66.5157 27.8468 66.5176C21.8809 68.6495 15.9871 68.002 12.1878 63.054L12.1884 63.0527Z" fill="#2F2F2F"/>
<path d="M28.4073 114.901C28.734 114.901 28.9904 114.644 28.9904 114.317V110.953C28.9904 110.625 28.734 110.369 28.4073 110.369C28.0806 110.369 27.8242 110.625 27.8242 110.953V114.317C27.8242 114.644 28.0806 114.901 28.4073 114.901Z" fill="#2F2F2F"/>
<path d="M28.3605 90.7905C28.0338 90.7905 27.7773 91.0473 27.7773 91.3746V94.7386C27.7773 95.0658 28.0338 95.3226 28.3605 95.3226C28.6871 95.3226 28.9436 95.0658 28.9436 94.7386V91.3746C28.9436 91.0473 28.6637 90.7905 28.3605 90.7905Z" fill="#2F2F2F"/>
<path d="M28.3839 108.383H28.4073C28.7106 108.383 28.967 108.126 28.967 107.799V104.411C28.967 104.107 28.7106 103.827 28.3839 103.827C28.0572 103.827 27.8008 104.107 27.8008 104.411V107.799C27.8008 108.126 28.0806 108.383 28.3839 108.383Z" fill="#2F2F2F"/>
<path d="M28.3839 101.864C28.7106 101.864 28.967 101.584 28.967 101.257L28.9436 97.8926C28.9436 97.5654 28.6871 97.3086 28.3605 97.3086C28.0338 97.3086 27.7773 97.5654 27.7773 97.8926L27.8008 101.28C27.8008 101.584 28.0572 101.864 28.3839 101.864Z" fill="#2F2F2F"/>
<path d="M28.3141 75.7454C28.6407 75.7454 28.8972 75.4886 28.8972 75.1614L28.8737 71.7974C28.8737 71.4702 28.6173 71.2134 28.2906 71.2134C27.9639 71.2134 27.7075 71.4702 27.7075 71.7974L27.7309 75.1614C27.7309 75.4886 27.9874 75.7454 28.3141 75.7454Z" fill="#2F2F2F"/>
<path d="M28.3141 82.287H28.3375C28.6408 82.287 28.8972 82.0067 28.8972 81.7029V78.3155C28.8972 77.9883 28.6408 77.7314 28.3141 77.7314C27.9874 77.7314 27.731 77.9883 27.731 78.3155V81.7029C27.731 82.0302 28.0108 82.287 28.3141 82.287Z" fill="#2F2F2F"/>
<path d="M28.337 88.805C28.6637 88.805 28.9201 88.5482 28.9201 88.221V84.8335C28.9201 84.5298 28.6637 84.2729 28.337 84.2729C28.0103 84.2729 27.7539 84.5298 27.7539 84.857V88.221C27.7539 88.5482 28.0103 88.805 28.337 88.805Z" fill="#2F2F2F"/>
<path d="M28.4308 121.419C28.7575 121.419 29.0139 121.162 29.0139 120.835V117.471C29.0139 117.144 28.734 116.887 28.4308 116.887C28.1041 116.887 27.8477 117.144 27.8477 117.471V120.859C27.8477 121.162 28.1041 121.419 28.4308 121.419Z" fill="#2F2F2F"/>
<path d="M29.6678 124.366L29.0252 124.737L29.0227 123.995C29.0227 123.672 28.7605 123.412 28.4396 123.412H28.437C28.116 123.413 27.8564 123.676 27.8564 123.997L27.8609 125.749C27.8609 126.2 28.3477 126.477 28.7359 126.254L30.2509 125.377C30.5289 125.216 30.6245 124.859 30.4649 124.58C30.2984 124.299 29.9388 124.205 29.6678 124.367V124.366Z" fill="#2F2F2F"/>
<path d="M36.1975 120.601L32.8154 122.54C32.5355 122.704 32.4418 123.054 32.6052 123.335C32.8027 123.652 33.168 123.718 33.3985 123.545L36.7806 121.606C37.0605 121.442 37.1536 121.092 36.9902 120.811C36.8269 120.531 36.454 120.438 36.1969 120.602L36.1975 120.601Z" fill="#2F2F2F"/>
<path d="M49.2371 113.055L45.8784 114.994C45.5985 115.158 45.5055 115.509 45.6454 115.789C45.855 116.126 46.2431 116.164 46.4615 115.999L49.8202 114.06C50.1 113.896 50.1938 113.545 50.0304 113.265C49.8671 112.985 49.5169 112.892 49.2371 113.055Z" fill="#2F2F2F"/>
<path d="M42.7293 116.816L39.3471 118.779C39.0673 118.943 38.9736 119.293 39.1369 119.574C39.2642 119.828 39.6257 119.936 39.9302 119.783L43.3124 117.821C43.5688 117.657 43.6853 117.307 43.5219 117.026C43.3586 116.746 42.9857 116.653 42.7286 116.816H42.7293Z" fill="#2F2F2F"/>
<path d="M3.34164 31.6984C3.40748 31.7238 3.47586 31.7352 3.54424 31.7352C3.78102 31.7352 4.00452 31.5906 4.09062 31.3541C7.53545 22.0604 13.5514 13.4624 20.5949 7.76669C20.8456 7.56504 20.8842 7.19661 20.6816 6.9455C20.4809 6.69439 20.1144 6.65444 19.8617 6.85863C12.6587 12.6824 6.51296 21.4624 2.99785 30.9482C2.88642 31.2507 3.039 31.5868 3.34164 31.699V31.6984Z" fill="#2F2F2F"/>
<path d="M43.5495 194.664C43.3241 194.438 42.955 194.434 42.7251 194.664L40.6668 196.725L38.6086 194.664C38.3806 194.436 38.0115 194.436 37.7842 194.664C37.5563 194.892 37.5563 195.262 37.7842 195.49L39.8419 197.55L37.7842 199.611C37.5563 199.84 37.5563 200.209 37.7842 200.437C38.0109 200.664 38.38 200.666 38.6086 200.437L40.6668 198.376L42.7251 200.437C42.9518 200.664 43.3209 200.666 43.5495 200.437C43.778 200.208 43.7774 199.839 43.5495 199.611L41.4918 197.55L43.5495 195.49C43.7774 195.261 43.7774 194.892 43.5495 194.664Z" fill="#2F2F2F"/>
<path d="M225.93 124.573L226.001 102.588C226.001 102.378 225.884 102.191 225.697 102.097C222.237 100.095 214.321 95.5134 214.758 95.7664L225.651 89.4353C225.814 89.3187 225.93 89.1316 225.93 88.9217L226.001 66.9608C226.001 66.7509 225.884 66.5639 225.697 66.4472L192.365 47.1731C192.085 47.0095 191.735 47.1027 191.571 47.383C191.408 47.6633 191.501 48.0139 191.781 48.1775L224.251 66.9608C52.9615 166.663 329.196 5.83159 140.091 115.952H140.068L116.789 102.472L115.622 101.795C93.0129 88.7239 77.9654 80.0237 55.3718 66.9615L103.773 38.7627C104.053 38.5991 104.146 38.2491 103.983 37.9682C103.843 37.6879 103.47 37.5941 103.19 37.7577L53.9023 66.4472C53.7155 66.5639 53.6224 66.7509 53.6224 66.9608L53.5522 88.9217C53.5522 89.1316 53.6687 89.3187 53.8554 89.4353L64.7952 95.7664C64.559 95.9034 53.2008 102.505 53.9023 102.097C53.7155 102.191 53.6224 102.378 53.6224 102.588L53.599 110.528L52.3923 111.226C52.1143 111.387 52.0187 111.744 52.1783 112.023C52.3448 112.308 52.705 112.396 52.9754 112.236L53.599 111.876L53.5522 124.572C53.5522 124.782 53.6687 124.969 53.8554 125.063L64.7952 131.394L53.9023 137.725C53.7155 137.842 53.6224 138.029 53.6224 138.239L53.5522 160.199C53.5522 160.409 53.6687 160.596 53.8554 160.713L139.741 210.382C139.936 210.479 140.145 210.472 140.324 210.382L183.011 185.524C183.291 185.361 183.384 185.011 183.221 184.73C183.058 184.449 182.708 184.356 182.428 184.519L140.605 208.84L140.675 188.234L224.834 139.242L224.764 159.872L190.545 179.799C190.265 179.963 190.172 180.314 190.335 180.594C190.475 180.874 190.849 180.967 191.129 180.805L225.651 160.712C225.814 160.596 225.931 160.409 225.931 160.199L226.001 138.238C226.001 138.028 225.885 137.817 225.698 137.724C222.238 135.722 214.322 131.14 214.758 131.393L225.651 125.062C225.814 124.969 225.931 124.782 225.931 124.571L225.93 124.573ZM224.834 67.9653L224.764 88.5945L213.591 95.0892L212.448 95.7664C113.993 153.075 147.95 133.31 140.604 137.585L140.674 116.956C148.627 112.328 110.59 134.469 224.834 67.9646V67.9653ZM54.7184 88.5945L54.7887 67.9653C60.4197 71.2215 109.634 99.6827 114.456 102.472L115.646 103.149L139.508 116.956L139.438 137.585C131.642 133.076 63.4232 93.6275 54.7184 88.5939V88.5945ZM65.9614 96.4208C167.069 154.915 132.197 134.74 139.741 139.104C139.935 139.202 140.145 139.194 140.324 139.104C147.835 134.732 113.148 154.922 213.614 96.4443L224.251 102.589C110.007 169.093 148.043 146.951 140.091 151.58H140.068L86.0916 120.368V120.344L84.9254 119.666L55.3718 102.588L65.9614 96.4208ZM54.7184 124.223C54.719 123.986 54.7931 102.231 54.7887 103.617L83.7357 120.368L84.9254 121.046L139.508 152.608L139.438 173.214C106.157 153.971 163.107 186.903 54.7184 124.223ZM54.7887 139.244L139.508 188.236L139.438 208.865L54.7184 159.874L54.7887 139.245V139.244ZM224.764 124.223C218.109 128.1 185.257 147.236 178.602 151.113C178.321 151.253 178.228 151.627 178.392 151.908C178.555 152.188 178.904 152.282 179.185 152.118L213.591 132.073L224.251 138.24L140.091 187.232H140.068L55.3718 138.24L65.9614 132.073L139.741 174.733C139.935 174.83 140.145 174.823 140.324 174.733L170.717 157.047C170.998 156.884 171.091 156.51 170.928 156.253C170.764 155.972 170.415 155.879 170.134 156.019L140.604 173.213L140.674 152.584C144.172 150.549 120.872 164.107 224.834 103.616L224.764 124.222V124.223Z" fill="#2F2F2F"/>
<path d="M110.948 34.5997L139.527 17.9641L186.053 44.8673C186.323 45.0265 186.684 44.939 186.85 44.6543C187.01 44.3746 186.914 44.0176 186.636 43.8572L139.819 16.784C139.636 16.6794 139.415 16.6794 139.233 16.784L110.361 33.5895C110.083 33.7512 109.99 34.1095 110.151 34.3879C110.311 34.6688 110.666 34.7607 110.948 34.6003V34.5997Z" fill="#2F2F2F"/>
<path d="M153.048 32.3909C152.889 32.6705 152.984 33.0276 153.262 33.188L160.885 37.5945C161.155 37.7537 161.515 37.6661 161.682 37.3814C161.841 37.1018 161.746 36.7448 161.468 36.5843L153.846 32.1778C153.572 32.0161 153.21 32.1093 153.048 32.3909Z" fill="#2F2F2F"/>
<path d="M139.233 24.0656L130.734 29.013C130.456 29.1747 130.363 29.533 130.525 29.8114C130.683 30.0885 131.039 30.1862 131.322 30.0238L139.527 25.2464L147.566 29.8938C147.839 30.0549 148.197 29.9598 148.363 29.6808C148.522 29.4011 148.427 29.0441 148.149 28.8837L139.819 24.0663C139.636 23.961 139.415 23.961 139.233 24.0663V24.0656Z" fill="#2F2F2F"/>
<path d="M104.239 108.429H104.262L105.428 109.107L109.277 111.326C109.498 111.492 109.884 111.45 110.093 111.116C110.233 110.836 110.14 110.485 109.86 110.322L106.595 108.429L105.405 107.752L89.1002 98.314C88.8203 98.1504 88.4702 98.2436 88.3069 98.5239C88.1435 98.8042 88.2372 99.1548 88.517 99.3184L104.239 108.429V108.429Z" fill="#2F2F2F"/>
<path d="M133.093 125.11C133.413 125.271 133.756 125.137 133.886 124.877C134.049 124.62 133.956 124.246 133.677 124.082L117.955 114.994C117.698 114.83 117.325 114.924 117.161 115.205C116.998 115.485 117.091 115.858 117.372 116.022L133.093 125.11Z" fill="#2F2F2F"/>
<path d="M133.094 160.738C133.824 161.104 134.307 160.102 133.677 159.733L89.1011 133.941C88.8213 133.801 88.4712 133.87 88.3078 134.174C88.1445 134.455 88.2382 134.805 88.518 134.969L133.094 160.738Z" fill="#2F2F2F"/>
<path d="M89.1009 169.77C88.8255 169.608 88.4678 169.701 88.3038 169.983C88.1442 170.262 88.2398 170.619 88.5178 170.78L133.097 196.559C133.367 196.718 133.727 196.63 133.894 196.346C134.053 196.066 133.958 195.709 133.68 195.549L89.1009 169.77Z" fill="#2F2F2F"/>
<path d="M218.541 159.038C218.862 159.038 219.121 158.779 219.124 158.457L219.188 147.94C219.19 147.617 218.93 147.354 218.609 147.353H218.605C218.284 147.353 218.024 147.611 218.021 147.933L217.958 158.451C217.955 158.774 218.215 159.036 218.536 159.038H218.541Z" fill="#2F2F2F"/>
<path d="M211.732 162.673C212.053 162.673 212.313 162.415 212.315 162.093L212.377 152.261C212.379 151.938 212.119 151.675 211.798 151.673H211.793C211.472 151.673 211.213 151.932 211.21 152.254L211.149 162.086C211.146 162.409 211.407 162.672 211.728 162.673H211.732Z" fill="#2F2F2F"/>
<path d="M204.922 166.354C205.242 166.354 205.502 166.096 205.505 165.775L205.569 156.541C205.571 156.218 205.311 155.954 204.99 155.952H204.985C204.664 155.952 204.405 156.211 204.402 156.532L204.338 165.766C204.336 166.089 204.596 166.352 204.917 166.354H204.922Z" fill="#2F2F2F"/>
<path d="M218.536 124.479C218.862 124.479 219.119 124.223 219.119 123.895L219.189 113.382C219.189 113.055 218.933 112.798 218.606 112.798C218.279 112.798 218.023 113.055 218.023 113.382L217.953 123.895C217.953 124.223 218.21 124.479 218.536 124.479Z" fill="#2F2F2F"/>
<path d="M211.725 128.124C212.051 128.124 212.308 127.867 212.308 127.54L212.379 117.704C212.379 117.376 212.122 117.12 211.795 117.12C211.469 117.12 211.212 117.376 211.212 117.704L211.142 127.54C211.142 127.867 211.399 128.124 211.725 128.124Z" fill="#2F2F2F"/>
<path d="M204.913 131.792C205.24 131.792 205.496 131.535 205.496 131.231C205.498 130.992 205.568 121.74 205.567 121.98C205.567 121.676 205.31 121.396 204.983 121.396C204.657 121.396 204.4 121.652 204.4 121.98C204.311 131.072 204.36 127.323 204.33 131.208C204.33 131.535 204.586 131.792 204.913 131.792Z" fill="#2F2F2F"/>
<path d="M218.536 88.8979C218.862 88.8979 219.119 88.6411 219.119 88.3374L219.189 77.8008C219.189 77.4971 218.933 77.2168 218.606 77.2168C218.279 77.2168 218.023 77.4736 218.023 77.8008L217.953 88.3139C217.953 88.6411 218.21 88.8979 218.536 88.8979Z" fill="#2F2F2F"/>
<path d="M211.725 92.5425C212.051 92.5425 212.308 92.2857 212.308 91.9585L212.379 82.1226C212.379 81.8189 212.122 81.5386 211.795 81.5386C211.469 81.5386 211.212 81.7954 211.212 82.1226L211.142 91.9585C211.142 92.2857 211.399 92.5425 211.725 92.5425Z" fill="#2F2F2F"/>
<path d="M204.913 96.2343C205.24 96.2343 205.496 95.9775 205.496 95.6503L205.52 91.772L205.543 90.4404L205.567 86.4219C205.567 86.0947 205.31 85.8145 204.983 85.8145C204.657 85.8145 204.4 86.0713 204.4 86.3985L204.377 89.7625L204.353 91.0941L204.33 95.6262C204.33 95.9534 204.586 96.2337 204.913 96.2337V96.2343Z" fill="#2F2F2F"/>
<path d="M109.582 82.5201C116.883 86.7022 126.306 89.2019 136.476 89.6692C139.882 89.7758 141.075 89.7409 142.634 89.6927C176.18 88.4923 195.375 66.0932 170.042 51.4248C163.907 47.8737 156.163 45.5141 147.603 44.5794C147.276 44.5325 146.996 44.7893 146.949 45.1165C146.926 45.4203 147.159 45.724 147.485 45.7475C155.86 46.6587 163.464 48.9714 169.458 52.4292C176.549 56.5409 180.468 61.7273 180.491 67.0311C180.491 68.0825 180.351 69.0869 180.025 70.1148C171.215 53.6784 132.444 47.1977 109.394 60.6766C104.752 63.3399 101.417 66.5403 99.6206 69.9747C99.6049 69.9591 99.5971 69.9434 99.5971 69.9278C99.2704 68.9233 99.1305 67.8954 99.1305 66.891C99.1305 61.6113 102.979 56.4711 109.977 52.4298C117.837 47.8509 128.381 45.3512 139.647 45.3512C139.974 45.3512 140.23 45.0709 140.23 44.7671C140.23 44.4399 139.974 44.1831 139.647 44.1831C128.171 44.1831 117.418 46.7532 109.393 51.4254C94.3251 60.1179 93.9275 73.4104 109.58 82.5208L109.582 82.5201ZM109.978 61.6804C133.452 47.9599 172.311 55.5313 179.489 71.6564V71.6799C177.686 75.8099 173.572 79.2348 169.646 81.5157C153.27 90.98 126.436 90.8709 110.165 81.5157C108.276 80.3939 106.596 79.2024 105.15 77.9646C104.201 77.1498 103.092 75.9862 102.608 75.3717C102.537 75.3248 102.491 75.255 102.468 75.1846H102.444C101.726 74.3337 100.685 72.7978 100.159 71.5169V71.4934C101.722 67.872 105.081 64.5079 109.979 61.681L109.978 61.6804Z" fill="#2F2F2F"/>
<path d="M139.951 84.9965C145.036 84.9965 149.935 84.4125 154.553 83.2908C154.856 83.1975 155.043 82.8938 154.973 82.5666C154.902 82.2628 154.576 82.0758 154.273 82.1462C149.747 83.2679 144.943 83.8285 139.951 83.8285C139.179 83.8285 139.177 84.9965 139.951 84.9965Z" fill="#2F2F2F"/>
<path d="M159.336 81.8193C159.69 81.8193 163.498 80.2917 166.17 78.7356C166.45 78.572 166.543 78.2213 166.38 77.9411C166.217 77.6608 165.843 77.5676 165.587 77.7305C163.628 78.8523 161.482 79.8333 159.149 80.6741C158.846 80.7908 158.682 81.118 158.799 81.4217C158.892 81.6557 159.103 81.8187 159.336 81.8187V81.8193Z" fill="#2F2F2F"/>
<path d="M75.9688 41.1705C73.447 41.1705 71.397 39.1159 71.397 36.5902C71.397 34.0645 73.447 32.0112 75.9688 32.0112C78.4905 32.0112 80.5406 34.0227 80.5406 36.5902C80.5406 39.1578 78.4905 41.1705 75.9688 41.1705ZM75.9688 33.1793C74.0916 33.1793 72.5632 34.7088 72.5632 36.5902C72.5632 38.4717 74.0916 40.0024 75.9688 40.0024C77.846 40.0024 79.3743 38.4717 79.3743 36.5902C79.3743 34.7088 77.8776 33.1793 75.9688 33.1793Z" fill="#B0B8CF"/>
<path d="M212.581 32.9266C212.581 34.9082 210.998 36.5373 208.976 36.5373C206.953 36.5373 205.371 34.9082 205.371 32.9266C205.371 30.945 206.997 29.3159 208.976 29.3159C210.954 29.3159 212.581 30.9006 212.581 32.9266Z" fill="#2269A6"/>
</svg>
