<svg width="15" height="15" viewBox="0 0 15 15" fill="none" xmlns="http://www.w3.org/2000/svg">
<path d="M12.3837 15H2.61628C1.92268 14.9991 1.25776 14.7231 0.76731 14.2327C0.276862 13.7422 0.000922951 13.0773 0 12.3837V2.61628C0.000922951 1.92268 0.276862 1.25776 0.76731 0.76731C1.25776 0.276862 1.92268 0.000922951 2.61628 0H6.80233C6.9411 0 7.07419 0.0551286 7.17232 0.153258C7.27045 0.251388 7.32558 0.38448 7.32558 0.523256C7.32558 0.662032 7.27045 0.795124 7.17232 0.893254C7.07419 0.991383 6.9411 1.04651 6.80233 1.04651H2.61628C2.20012 1.04707 1.80117 1.21263 1.5069 1.5069C1.21263 1.80117 1.04707 2.20012 1.04651 2.61628V12.3837C1.04707 12.7999 1.21263 13.1988 1.5069 13.4931C1.80117 13.7874 2.20012 13.9529 2.61628 13.9535H12.3837C12.7999 13.9529 13.1988 13.7874 13.4931 13.4931C13.7874 13.1988 13.9529 12.7999 13.9535 12.3837V8.19767C13.9535 8.0589 14.0086 7.92581 14.1067 7.82768C14.2049 7.72955 14.338 7.67442 14.4767 7.67442C14.6155 7.67442 14.7486 7.72955 14.8467 7.82768C14.9449 7.92581 15 8.0589 15 8.19767V12.3837C14.9991 13.0773 14.7231 13.7422 14.2327 14.2327C13.7422 14.7231 13.0773 14.9991 12.3837 15Z" fill="#757575"/>
<path d="M14.8481 5.12362L10.0485 0.155668C9.9766 0.0813214 9.88501 0.0307018 9.78532 0.0102023C9.68563 -0.0102972 9.5823 0.000242956 9.48839 0.0404914C9.39448 0.0807399 9.3142 0.148891 9.25769 0.236339C9.20118 0.323786 9.17097 0.426606 9.17088 0.531813V2.85823C7.4926 2.99458 5.92554 3.78038 4.78193 5.05908C3.63831 6.33778 3.00208 8.01551 3 9.75801V10.4677C2.99987 10.5779 3.03278 10.6854 3.09419 10.7754C3.15559 10.8654 3.24247 10.9335 3.34283 10.9702C3.39795 10.99 3.45589 11.0001 3.51424 11C3.59136 11 3.66749 10.982 3.73702 10.9475C3.80656 10.913 3.86773 10.8628 3.91603 10.8006L4.80738 9.64943C5.3299 8.96844 5.99322 8.41733 6.74857 8.03659C7.50393 7.65586 8.33212 7.45519 9.17225 7.44933V9.75801C9.17203 9.8599 9.20011 9.9597 9.25313 10.0455C9.30616 10.1314 9.3819 10.1996 9.47134 10.2422C9.56078 10.2847 9.66014 10.2998 9.75761 10.2855C9.85507 10.2713 9.94653 10.2284 10.0211 10.1618L14.8207 5.90359C14.8744 5.85581 14.9181 5.79704 14.9489 5.73097C14.9797 5.6649 14.997 5.59295 14.9996 5.51964C15.0024 5.44635 14.9903 5.37328 14.9642 5.30509C14.9381 5.2369 14.8986 5.17509 14.8481 5.12362Z" fill="#757575"/>
</svg>
