<svg width="173" height="173" viewBox="0 0 173 173" fill="none" xmlns="http://www.w3.org/2000/svg">
<path d="M113.385 0H59.7192C26.795 0 0.104614 26.7065 0.104614 59.6507V113.349C0.104614 146.293 26.795 173 59.7192 173H113.385C146.31 173 173 146.293 173 113.349V59.6507C173 26.7065 146.31 0 113.385 0Z" fill="url(#paint0_linear_4_56)"/>
<path d="M37.4502 61.4859H36.789C36.7257 61.4859 36.6725 61.5316 36.6725 61.5949L36.6978 62.8878C36.6978 62.9385 36.6598 62.9841 36.6015 62.9841L35.1575 63.0171C35.0815 63.0171 35.0156 62.9588 35.0156 62.8802V61.8332C35.0156 61.7622 34.9827 61.7115 34.932 61.6659L34.5596 61.3617C34.5089 61.3161 34.4709 61.2654 34.4557 61.1944C34.058 59.572 33.9161 57.9395 34.0326 56.2917C34.0706 55.7112 34.2252 54.9279 34.4886 53.9342C34.8281 52.649 34.9497 50.9429 35.7022 49.8453C36.2975 48.9733 36.8042 48.1468 37.2932 47.2216C37.3008 47.2013 37.3134 47.1886 37.3312 47.1836C37.3565 47.1836 37.3641 47.1836 37.3565 47.2089L37.055 48.0936C37.017 48.1975 37.0677 48.3142 37.1766 48.3522C37.2526 48.3775 37.3362 48.3522 37.3945 48.3015C37.8379 47.8173 38.1824 47.2343 38.4155 46.5498C38.4788 46.3571 38.4408 46.1366 38.5751 45.9566C38.6384 45.873 38.6714 45.8071 38.6714 45.764C38.6714 45.7133 38.6638 45.66 38.646 45.6093C38.6207 45.5586 38.6258 45.5054 38.6714 45.4598C40.3916 43.6067 43.1049 41.5331 45.6308 41.1376C46.5276 40.9957 47.4143 40.8157 48.2934 40.5825C48.339 40.5698 48.3694 40.5241 48.3567 40.4785C48.3491 40.4405 48.3112 40.4151 48.2732 40.4151L47.6575 40.4025C47.6575 40.4025 47.6195 40.3822 47.6195 40.3644C47.6195 40.3518 47.6195 40.3391 47.6322 40.3315C47.6525 40.3188 47.6702 40.3112 47.6955 40.3112C48.1769 40.2732 48.8634 40.2022 49.7476 40.0856C49.9275 40.0602 50.3126 40.3366 50.5761 40.3771C51.5692 40.5191 52.6484 40.623 53.8214 40.6991C54.019 40.7117 54.0773 40.6281 53.9886 40.4481C53.9759 40.4227 53.905 40.4025 53.7707 40.3847C52.9879 40.2554 52.2 40.1464 51.4096 40.0552C51.402 40.0552 51.3969 40.0552 51.3969 40.0628V40.0704C52.7194 40.0704 54.0216 40.2326 55.3086 40.5419C55.3795 40.5622 55.4175 40.6053 55.4175 40.6788C55.4175 40.7244 55.4251 40.77 55.4428 40.8081C55.4631 40.8461 55.4935 40.8714 55.5467 40.8867C56.5601 41.2618 57.5734 41.6497 58.5741 42.0502C58.7591 42.1212 58.8174 42.1085 58.9972 42.0299C59.0682 42.0046 59.1315 42.0046 59.1949 42.0426C64.2314 44.8919 67.2132 49.2141 68.1506 55.0014C68.1633 55.0648 68.1379 55.1383 68.0873 55.1814C67.459 55.7239 67.8618 58.3654 68.0112 59.0904C68.0873 59.4833 68.0999 59.8407 68.0442 60.1627C67.5172 63.2579 66.2556 66.0083 64.2542 68.4267V68.4014C64.2466 68.3887 64.2466 68.3811 64.2542 68.3684C64.9737 67.4381 65.5437 66.4165 65.9744 65.3264C66.0073 65.2428 65.9617 65.1515 65.8781 65.1186C65.8654 65.1186 65.8528 65.111 65.8401 65.1059C65.8072 65.1059 65.7641 65.1135 65.7109 65.1388C65.678 65.1591 65.6476 65.1845 65.6273 65.2225C65.037 66.2618 64.4923 67.3215 63.9983 68.4064C63.9729 68.4571 63.9856 68.5028 64.0312 68.5281C64.0515 68.5408 64.0642 68.5484 64.0768 68.5611C64.1022 68.5814 64.1022 68.5991 64.0768 68.6244C55.5898 78.1915 40.3891 75.801 35.3146 63.9144C35.2816 63.8308 35.1803 63.7852 35.0967 63.8232C35.0333 63.8485 34.9928 63.9144 34.9928 63.9778L34.9801 65.1591C34.9801 65.2428 34.9092 65.3138 34.8256 65.3138H34.3189C34.2302 65.3138 34.1644 65.2428 34.1644 65.1515V61.6761C34.1644 61.6127 34.1973 61.5544 34.2404 61.5087L34.3037 61.4454C34.3493 61.3997 34.4253 61.3997 34.4709 61.4454C34.4836 61.458 34.4912 61.4707 34.4963 61.491L35.2157 63.7193C35.2487 63.8156 35.3373 63.8739 35.4336 63.8739H36.5813C36.6573 63.8739 36.7029 63.9119 36.7029 63.9905L36.7485 65.1794C36.7485 65.2757 36.7991 65.3214 36.8954 65.3163L37.435 65.296C37.5187 65.296 37.5566 65.2504 37.5566 65.1667L37.5769 61.6076C37.5769 61.529 37.5389 61.4986 37.468 61.4986L37.4477 61.491L37.4502 61.4859ZM52.39 41.3531C52.4103 41.0489 51.5565 40.7396 50.4849 40.6686C49.4132 40.5901 48.529 40.7776 48.5037 41.0818C48.4834 41.386 49.3372 41.6953 50.4088 41.7663C51.4805 41.8449 52.3647 41.6573 52.39 41.3531ZM57.7711 42.6003C57.88 42.2631 57.0794 41.6953 55.9875 41.3328C54.8905 40.9703 53.9151 40.945 53.8062 41.2821C53.6973 41.6193 54.4978 42.1871 55.5898 42.5496C56.6867 42.9121 57.6621 42.9375 57.7711 42.6003ZM46.8924 41.3277C46.8595 41.1655 46.1729 41.1478 45.3597 41.2948C44.5439 41.4443 43.9029 41.6953 43.9283 41.8575C43.9612 42.0198 44.6478 42.0375 45.461 41.8905C46.2768 41.7409 46.9177 41.49 46.8924 41.3277ZM49.6184 42.9299C49.626 42.4254 48.8432 42.0071 47.8602 41.9868C46.8798 41.9742 46.0842 42.3671 46.0716 42.8715C46.064 43.376 46.8468 43.7943 47.8298 43.8146C48.8102 43.8272 49.6057 43.4343 49.6184 42.9299ZM44.7567 42.6409C44.7187 42.362 44.1411 42.2201 43.4799 42.324C42.8136 42.4203 42.3119 42.7321 42.3499 43.0034C42.3879 43.2822 42.9656 43.4242 43.6268 43.3202C44.2931 43.2239 44.7947 42.9121 44.7567 42.6409ZM55.078 44.0554C55.2199 43.4343 54.4294 42.7321 53.3274 42.4786C52.2177 42.2277 51.2094 42.5243 51.0701 43.1428C50.9307 43.7613 51.7186 44.4661 52.8207 44.7195C53.9303 44.9705 54.9387 44.6739 55.078 44.0554ZM62.3718 45.1023C62.5441 44.8564 61.9107 44.101 60.9531 43.4166C59.9979 42.7245 59.0859 42.3696 58.9137 42.6079C58.7414 42.8538 59.3747 43.6092 60.3324 44.2937C61.2875 44.9857 62.1995 45.3406 62.3718 45.1023ZM42.2613 43.7715C42.0434 43.4495 41.5418 43.4039 41.139 43.6751C40.7336 43.9464 40.5867 44.4306 40.7995 44.7601C41.0174 45.0821 41.519 45.1277 41.9218 44.8564C42.3271 44.5852 42.4741 44.101 42.2613 43.7715ZM60.1652 46.2507C60.4996 45.6879 59.9524 44.7322 58.9339 44.1188C57.9205 43.5053 56.8235 43.4597 56.484 44.0275C56.1496 44.5903 56.6969 45.546 57.7153 46.1594C58.7287 46.7729 59.8257 46.8185 60.1652 46.2507ZM46.1425 44.9198C46.0589 44.2607 45.3141 43.8146 44.4806 43.9185C43.6471 44.0275 43.0441 44.6486 43.1277 45.3077C43.2113 45.9668 43.9562 46.4129 44.7897 46.309C45.6232 46.2 46.2261 45.5789 46.1425 44.9198ZM39.0615 46.8058C39.3123 46.9224 39.7405 46.527 40.0242 45.9211C40.3054 45.3127 40.3333 44.7322 40.0876 44.6105C39.8368 44.4939 39.4086 44.8894 39.1249 45.4953C38.8437 46.1036 38.8158 46.6842 39.0615 46.8058ZM51.1967 46.2329C51.2297 45.3939 50.3683 44.6815 49.2789 44.6435C48.1895 44.6055 47.2851 45.257 47.2572 46.096C47.2243 46.9351 48.0857 47.6475 49.175 47.6855C50.2644 47.7235 51.1689 47.072 51.1967 46.2329ZM66.0149 49.0949C66.1314 49.0113 65.6552 48.1646 64.9559 47.1962C64.2567 46.2329 63.6031 45.5155 63.4941 45.6017C63.3776 45.6854 63.8539 46.5321 64.5531 47.5004C65.2523 48.4637 65.906 49.1811 66.0149 49.0949ZM56.5778 48.2229C56.859 47.3002 56.1598 46.2659 55.0248 45.911C53.8822 45.5561 52.7295 46.02 52.4457 46.9453C52.1645 47.868 52.8638 48.9023 53.9988 49.2572C55.1413 49.6121 56.294 49.1482 56.5778 48.2229ZM40.7539 48.8947C41.3568 49.1532 42.1067 48.7324 42.4285 47.9643C42.7553 47.1962 42.5323 46.3622 41.9294 46.1036C41.3264 45.8451 40.5765 46.2659 40.2548 47.034C39.928 47.8021 40.1509 48.6361 40.7539 48.8947ZM64.5202 49.863C64.9509 49.5335 64.7 48.4688 63.9552 47.4801C63.2104 46.4915 62.2629 45.9617 61.8246 46.2912C61.3939 46.6208 61.6447 47.6855 62.3895 48.6741C63.1344 49.6628 64.0819 50.1926 64.5202 49.863ZM46.444 48.0024C45.8537 47.2647 44.739 47.181 43.9485 47.8224C43.1606 48.4612 42.9985 49.574 43.5888 50.3092C44.1791 51.0469 45.2938 51.1305 46.0843 50.4892C46.8722 49.8504 47.0343 48.7375 46.444 48.0024ZM61.3711 51.7364C62.0703 51.128 61.9943 49.8757 61.1912 48.9403C60.3906 48.0024 59.1695 47.7311 58.4703 48.3395C57.7711 48.9479 57.8471 50.2002 58.6502 51.1356C59.4507 52.0735 60.6719 52.3448 61.3711 51.7364ZM37.848 51.4981C38.3167 51.635 38.912 50.981 39.1755 50.0379C39.439 49.0949 39.2718 48.228 38.8031 48.0936C38.3344 47.9567 37.7391 48.6107 37.4756 49.5538C37.2121 50.4968 37.3793 51.3637 37.848 51.4981ZM51.9416 50.8314C51.9492 49.7337 51.0118 48.8364 49.8515 48.8288C48.6836 48.8161 47.7335 49.7008 47.7285 50.7984C47.7209 51.8961 48.6582 52.7935 49.8186 52.8011C50.9865 52.8138 51.9365 51.929 51.9416 50.8314ZM35.4184 53.63C35.7326 53.7137 36.2063 52.9456 36.4774 51.9113C36.7459 50.877 36.7156 49.972 36.4014 49.8884C36.0873 49.8047 35.6135 50.5728 35.3424 51.6071C35.0739 52.6414 35.1043 53.5464 35.4184 53.63ZM40.5107 54.0736C41.3188 54.2486 42.1599 53.5438 42.3778 52.5045C42.6033 51.4575 42.127 50.4689 41.3188 50.294C40.5106 50.1191 39.6695 50.8238 39.4517 51.8631C39.2262 52.9101 39.7025 53.8987 40.5107 54.0736ZM67.3171 54.4944C67.6388 54.3905 67.6186 53.4095 67.2715 52.2915C66.9244 51.1736 66.3873 50.3523 66.0656 50.4511C65.7438 50.5551 65.7641 51.5361 66.1112 52.654C66.4582 53.772 66.9953 54.5933 67.3171 54.4944ZM56.9502 54.6491C57.7584 53.8151 57.695 52.4386 56.8083 51.5741C55.9292 50.7097 54.5561 50.6768 53.7555 51.5108C52.9474 52.3448 53.0107 53.7213 53.8974 54.5857C54.7765 55.4527 56.1497 55.4831 56.9502 54.6491ZM64.9357 55.8202C65.5969 55.6327 65.8654 54.5477 65.5462 53.3968C65.2245 52.2459 64.429 51.4651 63.7703 51.6527C63.109 51.8403 62.8405 52.9253 63.1597 54.0762C63.4815 55.2271 64.277 56.0078 64.9357 55.8202ZM47.2851 54.1015C47.2522 53.0673 46.33 52.2535 45.2254 52.2865C44.1158 52.3194 43.2443 53.1839 43.2747 54.2181C43.3076 55.2524 44.2297 56.0661 45.3343 56.0332C46.444 56.0002 47.3155 55.1358 47.2851 54.1015ZM37.207 57.0015C37.8353 57.0599 38.4332 56.1878 38.5295 55.0572C38.6258 53.9266 38.1951 52.9709 37.5668 52.9126C36.9385 52.8543 36.3406 53.7263 36.2443 54.8569C36.1481 55.9876 36.5787 56.9432 37.207 57.0015ZM60.8112 58.3121C61.7916 58.1905 62.4731 57.1308 62.3313 55.9419C62.1894 54.753 61.2799 53.8886 60.2918 54.0027C59.3114 54.1243 58.6299 55.184 58.7718 56.3729C58.9136 57.5618 59.8232 58.4262 60.8112 58.3121ZM52.5319 56.6264C52.5319 55.4045 51.5514 54.4108 50.3329 54.4108C49.1143 54.4108 48.1338 55.3994 48.1338 56.6264C48.1338 57.8533 49.1143 58.8419 50.3329 58.8419C51.5514 58.8419 52.5319 57.8533 52.5319 56.6264ZM34.8408 59.2044C35.2183 59.2044 35.5324 58.2741 35.5476 57.1182C35.5552 55.9622 35.2537 55.0243 34.8737 55.0243C34.4937 55.0243 34.1821 55.9546 34.1669 57.1105C34.1593 58.2665 34.4608 59.2044 34.8408 59.2044ZM40.7868 59.7672C41.7166 59.7089 42.4107 58.7025 42.3398 57.5136C42.2689 56.3247 41.4607 55.402 40.5309 55.4603C39.6011 55.5186 38.907 56.5275 38.9779 57.7139C39.0488 58.9028 39.857 59.8255 40.7868 59.7672ZM66.7521 59.8762C67.1499 59.8762 67.464 58.9205 67.4514 57.757C67.4387 56.5934 67.0992 55.6504 66.7015 55.658C66.3037 55.658 65.9896 56.6137 66.0022 57.7773C66.0149 58.9408 66.3544 59.8838 66.7521 59.8762ZM43.2367 66.13C44.5388 71.0276 49.5221 73.702 54.3838 73.3268C55.5974 73.2356 56.854 73.3522 58.1485 72.7058C58.1865 72.6855 58.1992 72.6424 58.1815 72.6018C58.1688 72.5816 58.1485 72.5638 58.1308 72.5638C57.3986 72.4219 56.6741 72.3762 55.9495 72.4345C55.3921 72.4802 54.9564 72.4726 54.6397 72.4092C51.0802 71.7121 48.1617 69.0833 47.8095 65.3087C47.7892 65.0831 47.8729 65.0374 48.0527 65.1591L51.3108 67.362C51.3437 67.3874 51.3944 67.3823 51.4197 67.3417C51.44 67.3164 51.44 67.2784 51.4197 67.2454L44.0423 55.9647C44.0043 55.9064 43.9207 55.8862 43.8573 55.9267C43.832 55.947 43.8117 55.9723 43.8067 56.0053L40.7665 69.0478C40.7539 69.1061 40.7868 69.1568 40.8425 69.1695C40.8805 69.1771 40.9261 69.1695 40.9464 69.1314L43.1328 66.1021C43.1328 66.1021 43.1784 66.0768 43.2037 66.0895C43.2164 66.0971 43.224 66.1097 43.224 66.1148L43.2367 66.1275V66.13ZM55.7899 61.491C56.8995 61.5544 57.8547 60.6519 57.9205 59.4757C57.9839 58.2995 57.1377 57.2981 56.028 57.2348C54.9184 57.1714 53.9633 58.0738 53.8974 59.2501C53.8341 60.4263 54.6802 61.4276 55.7899 61.491ZM63.9552 61.4276C64.6291 61.4657 65.2321 60.5759 65.2954 59.4377C65.3587 58.2995 64.8596 57.3438 64.1857 57.3057C63.5118 57.2677 62.9089 58.1575 62.8456 59.2957C62.7822 60.4339 63.2813 61.3896 63.9552 61.4276ZM66.6103 64.0818C66.7901 64.1274 67.1676 63.268 67.4514 62.1628C67.7402 61.0575 67.8238 60.1221 67.6439 60.0765C67.464 60.0309 67.0866 60.8902 66.8028 61.9955C66.514 63.1007 66.4304 64.0361 66.6103 64.0818ZM59.7978 64.0488C60.4135 64.0818 60.9581 63.2351 61.0113 62.1628C61.062 61.0905 60.606 60.1931 59.9904 60.1601C59.3747 60.1272 58.83 60.9739 58.7768 62.0462C58.7262 63.1185 59.1822 64.0158 59.7978 64.0488ZM65.1282 64.8499C65.4803 64.9335 65.9693 64.1325 66.2176 63.0551C66.4684 61.9828 66.3899 61.0398 66.0377 60.9561C65.6856 60.8725 65.1966 61.6735 64.9483 62.7509C64.6975 63.8232 64.776 64.7662 65.1282 64.8499ZM38.5016 62.9182L38.5852 62.4543C38.5979 62.3909 38.6562 62.3377 38.7195 62.3453L40.7412 62.3656C40.8375 62.3656 40.8881 62.3199 40.8881 62.2236L40.9084 61.7521C40.9084 61.6685 40.8577 61.5899 40.7741 61.5645C39.9989 61.3719 38.6182 61.3262 38.0101 61.8865C37.5795 62.2794 37.7087 63.4429 37.7467 64.0894C37.7796 64.6318 37.8885 65.0273 38.4788 65.1693C39.2237 65.3492 39.9862 65.3898 40.7615 65.2732C40.8451 65.2605 40.8907 65.2149 40.8907 65.1236L40.916 64.6141C40.916 64.5304 40.878 64.4924 40.7995 64.4924L38.7145 64.4721C38.6688 64.4721 38.6258 64.4392 38.6106 64.3936L38.5067 64.026C38.4814 63.9347 38.5143 63.884 38.6156 63.884H40.7133C40.8349 63.884 40.8932 63.8207 40.8932 63.6964V63.1869C40.8932 63.1083 40.8349 63.05 40.7589 63.05L38.6232 63.0627C38.5599 63.0627 38.5067 63.012 38.5067 62.9461V62.9258L38.4991 62.9182H38.5016ZM52.2811 65.3873C53.3274 65.4709 54.2445 64.6369 54.3332 63.5266C54.4218 62.4163 53.6415 61.4454 52.5952 61.3617C51.5489 61.2781 50.6318 62.1121 50.5431 63.2224C50.4544 64.3327 51.2347 65.3036 52.2811 65.3873ZM62.6657 66.272C63.2053 66.3886 63.8133 65.6915 64.0261 64.7155C64.2389 63.7395 63.9679 62.8472 63.4308 62.7331C62.8912 62.6165 62.2831 63.3137 62.0703 64.2896C61.8575 65.2656 62.1286 66.1579 62.6657 66.272ZM56.4891 67.3063C57.0997 67.3392 57.6368 66.4849 57.695 65.3999C57.7457 64.315 57.2973 63.41 56.6893 63.3846C56.0787 63.3517 55.5416 64.206 55.4833 65.2909C55.4327 66.3759 55.8811 67.2809 56.4917 67.3063H56.4891ZM59.7345 68.191C60.4413 68.2746 61.0874 67.6611 61.1963 66.8094C61.3002 65.9576 60.8112 65.1997 60.112 65.111C59.4051 65.0273 58.7591 65.6408 58.6502 66.4925C58.5463 67.3443 59.0353 68.1022 59.7345 68.191ZM63.0432 69.0884C63.2408 69.1796 63.7095 68.5509 64.0945 67.6865C64.472 66.8195 64.6266 66.0514 64.429 65.9627C64.2314 65.8715 63.7627 66.5001 63.3776 67.3646C63.0001 68.2315 62.8455 68.9996 63.0432 69.0884ZM61.5814 69.8767C61.9158 69.9807 62.3515 69.5092 62.5568 68.8247C62.762 68.1403 62.653 67.5065 62.3186 67.4026C61.9842 67.2987 61.5484 67.7702 61.3432 68.4546C61.138 69.1391 61.2469 69.7728 61.5814 69.8767ZM55.7696 71.1569C56.4055 71.2355 56.9882 70.6651 57.0845 69.8919C57.1731 69.1162 56.7374 68.4242 56.104 68.3481C55.4707 68.2721 54.8855 68.8399 54.7892 69.6156C54.7005 70.3913 55.1363 71.0808 55.7696 71.1594V71.1569ZM60.6592 70.7285C60.9809 70.3863 60.9277 69.8108 60.5426 69.4483C60.1576 69.0858 59.5876 69.0681 59.2658 69.4154C58.9441 69.7576 58.9972 70.333 59.3823 70.6955C59.7674 71.058 60.3375 71.0758 60.6592 70.7285ZM59.2404 71.5752C59.2607 71.2253 58.7211 70.9161 58.0269 70.8704C57.3404 70.8324 56.7627 71.0783 56.745 71.4205C56.7247 71.7704 57.2644 72.0796 57.9585 72.1253C58.6451 72.1633 59.2227 71.9174 59.2404 71.5752Z" fill="white"/>
<path d="M115.207 61.0982C115.035 62.6927 114.911 65.7245 116.266 66.8932C116.973 67.5016 117.89 67.4433 118.82 67.4483C124.854 67.494 130.884 67.4737 136.909 67.4103C137.068 67.4103 137.202 67.5396 137.21 67.7018L137.286 74.2269C137.286 74.4728 137.172 74.5944 136.926 74.5944C130.506 74.5818 124.097 74.5818 117.702 74.5944C116.849 74.5944 115.899 74.4271 114.86 74.0849C111.141 72.863 108.671 69.5498 108.215 65.7195C108.164 65.2936 108.131 63.9298 108.113 61.6229C108.088 57.9269 108.093 54.2385 108.139 50.5425C108.184 46.7831 109.626 43.8248 112.448 41.6599C113.892 40.5547 116.656 40.1668 118.31 40.1795C124.403 40.2175 130.575 40.2175 136.805 40.1795C137.073 40.1795 137.215 40.3164 137.215 40.5876V47.0544C137.215 47.171 137.119 47.2673 137.005 47.2673C131.008 47.242 124.984 47.2546 118.929 47.3053C117.087 47.3256 115.503 47.7312 115.26 49.8758C115.113 51.1484 115.08 52.4336 115.177 53.7189C115.177 53.7772 115.21 53.8025 115.265 53.8025L137.017 53.9394C137.159 53.9394 137.273 54.056 137.273 54.198V60.6977C137.273 60.8726 137.139 61.0069 136.972 61.0069H115.329C115.265 61.0069 115.232 61.0399 115.22 61.1033L115.207 61.0957V61.0982Z" fill="white"/>
<path d="M81.0687 41.6572C81.0687 41.6952 81.094 41.7206 81.132 41.7282C81.1523 41.7282 81.17 41.7282 81.1827 41.7079C81.9402 40.9145 82.87 40.4937 83.9796 40.448C88.0585 40.2807 92.1829 40.4227 96.3074 40.4987C96.6292 40.4987 96.9864 40.5951 97.3968 40.77C100.713 42.1921 103.158 43.9818 104.242 47.617C104.589 48.7805 104.67 50.5297 104.678 51.9974C104.703 59.4781 104.749 66.9665 104.82 74.4472C104.82 74.5131 104.769 74.5562 104.711 74.5562L97.8477 74.6019C97.7768 74.6019 97.7388 74.5638 97.7388 74.4929C97.7388 66.8626 97.7312 59.2399 97.7261 51.6172C97.7261 50.4536 97.6248 49.6475 97.4171 49.176C96.956 48.129 96.0439 47.5992 94.686 47.5663C89.2137 47.4496 85.7378 47.4496 84.238 47.5587C80.7875 47.8096 81.0636 50.8719 81.1599 53.4119C81.3854 59.1689 81.2435 64.9816 81.1346 70.7385C81.1143 71.9021 81.1726 73.0631 81.3069 74.2267C81.3195 74.3306 81.2486 74.4193 81.1523 74.4269H81.1447C78.8545 74.6019 76.5642 74.6399 74.274 74.5486C74.2107 74.5486 74.165 74.4979 74.165 74.432V40.9728C74.165 40.6812 74.3956 40.4429 74.6844 40.4429L80.7849 40.41C81.0282 40.41 81.1447 40.5317 81.132 40.7776L81.0864 41.6496H81.0662L81.0687 41.6572Z" fill="white"/>
<path d="M32.7304 62.5583V65.111C32.7304 65.2073 32.6544 65.2859 32.5582 65.291L32.0135 65.3239C31.9172 65.3239 31.8336 65.253 31.8285 65.1566V65.144L31.8159 62.5786C31.8159 62.4822 31.7399 62.4036 31.6487 62.3986L30.6606 62.3605C30.5643 62.3605 30.4883 62.2769 30.4934 62.1806V61.671C30.4934 61.5747 30.577 61.4961 30.6733 61.4961H33.8046C33.9009 61.4885 33.9845 61.5671 33.9845 61.6634V62.2008C33.9845 62.2972 33.9085 62.3808 33.8122 62.3808H32.9204C32.8242 62.3884 32.7482 62.4721 32.7482 62.5684L32.7355 62.5608L32.7304 62.5583Z" fill="white"/>
<path d="M72.6728 82.3843C72.7437 81.6999 72.1737 81.4869 71.5758 81.492C69.4528 81.5249 64.3909 82.0725 64.3732 78.592C64.3605 76.1812 67.041 75.7173 68.7992 75.6514C70.3572 75.5931 71.9685 75.6514 73.6152 75.8187C73.7698 75.8314 73.8914 75.9683 73.8914 76.128V77.5754C73.8914 77.654 73.8534 77.692 73.7748 77.7047C72.4397 77.834 71.4466 77.867 70.7854 77.801C69.6048 77.6794 67.8035 77.5171 66.9117 78.2928C66.8611 78.3385 66.8281 78.3968 66.8155 78.4601C66.6863 79.1066 67.0207 79.4868 67.6819 79.4944C68.9917 79.5071 70.299 79.5578 71.5935 79.6491C73.8002 79.8037 76.4375 81.9179 74.203 84.1334C73.5671 84.7672 72.8299 85.1221 72.004 85.2057C69.8733 85.4187 67.8162 85.368 65.8274 85.0638C65.6019 85.0308 65.4879 84.8965 65.4753 84.6709C65.4119 83.1778 66.1669 83.1651 67.4007 83.307C68.3127 83.416 72.5335 83.7988 72.6728 82.3843Z" fill="white"/>
<path d="M80.1846 79.3144C81.2309 78.0292 82.8523 75.2255 84.9196 75.8592C84.9956 75.8846 85.0159 75.9302 84.9779 76.0012C84.233 77.3321 83.2982 78.5717 82.4115 79.8062C81.3018 81.3627 80.9801 82.8609 81.4234 84.7038C81.4614 84.8584 81.3727 85.0207 81.2258 85.0714C80.6026 85.2843 79.9616 85.3502 79.2953 85.2716C79.0774 85.2463 78.9229 85.0587 78.9305 84.8382C79.0141 83.4566 79.0521 81.9254 78.2237 80.7036C77.185 79.1725 75.9157 77.6616 75.1886 75.9353C75.1126 75.7477 75.1683 75.6514 75.3735 75.6564C77.5599 75.6818 78.7481 77.6717 79.8502 79.2941C79.9135 79.3905 80.0427 79.4107 80.1389 79.3448C80.1516 79.3322 80.1719 79.3195 80.1846 79.3068V79.3144Z" fill="white"/>
<path d="M92.8974 83.2184C93.3534 82.785 93.3914 81.6087 92.5326 81.5504C91.243 81.4668 89.9535 81.4009 88.664 81.3628C87.0527 81.3121 84.9626 80.7823 85.0589 78.7721C85.1551 76.7492 86.9007 75.976 88.6437 75.7808C90.5362 75.5679 92.4338 75.5729 94.3212 75.8062C94.3972 75.8138 94.4504 75.8847 94.4377 75.9608L94.2198 77.5173C94.2148 77.5806 94.1742 77.6389 94.1236 77.6795C93.5966 78.0471 93.0519 77.8164 92.5528 77.7885C91.5065 77.7378 88.3954 77.497 87.7798 77.9685C87.3567 78.2904 87.2604 79.0205 87.7089 79.345C87.8634 79.4616 88.1117 79.5199 88.4537 79.5326C89.7306 79.5782 90.9998 79.6365 92.2691 79.6999C92.9683 79.7379 93.4826 79.8165 93.7891 79.9382C95.6107 80.648 96.1807 83.0638 94.5973 84.344C94.1286 84.7192 93.5079 84.9574 92.7251 85.0487C90.5945 85.2997 88.479 85.3326 86.3737 85.1526C86.2268 85.14 86.1103 85.0158 86.1103 84.8687V83.7052C86.1103 83.5632 86.2192 83.4466 86.3611 83.4466L92.6922 83.3097C92.7682 83.3097 92.834 83.2844 92.8923 83.2261L92.8999 83.2134L92.8974 83.2184Z" fill="white"/>
<path d="M110.145 79.4185C110.165 79.4768 110.216 79.5097 110.279 79.5148L117.373 79.6238C117.482 79.6238 117.533 79.6821 117.528 79.786L117.477 81.2132C117.477 81.2766 117.439 81.3298 117.381 81.3552C117.201 81.4262 117.021 81.4642 116.828 81.4642C114.827 81.4642 112.826 81.4642 110.824 81.4769C109.253 81.4896 109.689 83.3502 111.075 83.3502C112.871 83.3502 114.667 83.3832 116.464 83.4288C116.887 83.4415 117.188 83.5251 117.355 83.6874C117.837 84.1462 117.637 85.0968 116.778 85.1551C115.714 85.2337 114.308 85.2768 112.549 85.292C111.029 85.3047 109.15 85.2008 108.194 83.9155C107.437 82.9015 107.424 81.0662 107.432 79.743C107.439 78.7087 107.483 77.611 108.215 76.8556C108.747 76.3131 109.428 75.9886 110.262 75.8923C112.641 75.6135 115.027 75.6464 117.414 75.9836C117.49 75.9962 117.543 76.0621 117.535 76.1331L117.472 77.5147C117.472 77.5857 117.421 77.644 117.355 77.6567C117.125 77.715 116.899 77.7403 116.676 77.7403C113.712 77.7327 111.718 77.7403 110.705 77.7606C109.697 77.7809 109.93 78.8329 110.148 79.421L110.145 79.4185Z" fill="white"/>
<path d="M102.633 77.9456L102.671 84.9421C102.671 85.0917 102.555 85.2134 102.408 85.226L100.389 85.335C100.229 85.3427 100.092 85.2184 100.08 85.0562V85.0435L100.042 77.8214C100.042 77.7504 100.009 77.7174 99.9404 77.7174L96.3683 77.7631C96.1631 77.7631 96.0592 77.6591 96.0592 77.4589L96.0465 76.2319C96.0465 76.1685 96.0668 76.1153 96.1098 76.0697C96.3024 75.877 96.5709 75.7731 96.918 75.7731C100.138 75.7528 103.358 75.7477 106.578 75.7528C106.649 75.7528 106.72 75.7908 106.75 75.8567C107.052 76.4702 107.064 77.6971 106.059 77.6971C104.962 77.6971 103.865 77.7352 102.775 77.8137C102.687 77.8137 102.641 77.8644 102.646 77.9557L102.633 77.943V77.9456Z" fill="white"/>
<path d="M121.845 78.1206L121.748 84.8712C121.748 85.0512 121.601 85.2084 121.421 85.2134L119.496 85.3098C119.271 85.3225 119.086 85.1475 119.073 84.9295V84.9093L119.06 76.0596C119.06 75.9379 119.124 75.872 119.245 75.867C122.24 75.7123 125.358 75.4538 128.122 76.3309C128.193 76.3511 128.257 76.3435 128.315 76.3106C128.829 76.0267 129.207 75.8771 129.458 75.8594C131.606 75.7098 136.822 75.1622 136.911 78.5794C136.969 80.691 136.969 82.8052 136.924 84.9169C136.924 84.9878 136.891 85.0385 136.827 85.0715C136.179 85.3884 135.525 85.3934 134.864 85.0842C134.785 85.0461 134.735 84.9676 134.73 84.8763L134.57 78.2017C134.563 77.9431 134.36 77.7428 134.101 77.7428C132.832 77.7302 131.535 77.7631 130.22 77.8341C129.65 77.8671 129.366 78.1434 129.374 78.6808C129.394 80.6505 129.399 82.6861 129.399 84.8053C129.399 85.0766 129.181 85.2971 128.905 85.3022H127.213C127 85.3098 126.899 85.2058 126.891 84.9929L126.841 78.118C126.841 78.0597 126.815 78.0268 126.757 78.0141C125.153 77.7175 123.55 77.7175 121.946 78.0065C121.883 78.0192 121.837 78.0699 121.837 78.1358L121.845 78.1155V78.1206Z" fill="white"/>
<path d="M36.5154 94.3521H50.766C55.2883 94.3521 58.6831 95.5891 60.9455 98.0607C63.2433 100.499 64.3909 103.511 64.3909 107.095C64.3909 110.68 63.2078 113.641 60.8416 116.079C58.4753 118.447 54.926 119.631 50.1935 119.631H44.2424V132.95H36.5179V94.3521H36.5154ZM44.2399 112.632H50.4519C52.3647 112.632 53.8518 112.102 54.9158 111.04C55.9774 109.978 56.5069 108.629 56.5069 106.991C56.5069 105.354 55.9925 104.119 54.9665 103.075C53.9404 102.031 52.5724 101.508 50.8699 101.508H44.2399V112.632Z" fill="white"/>
<path d="M87.6683 133.576C81.9275 133.576 77.1596 131.677 73.367 127.882C69.539 124.052 67.6262 119.352 67.6262 113.78C67.6262 108.208 69.5567 103.422 73.4202 99.5209C77.3167 95.6221 82.0846 93.6702 87.7215 93.6702C93.3585 93.6702 98.1087 95.6196 101.972 99.5209C105.869 103.42 107.819 108.14 107.819 113.674C107.819 119.208 105.871 123.91 101.972 127.776C98.1087 131.642 93.3407 133.573 87.6709 133.573L87.6683 133.576ZM99.7782 113.679C99.7782 110.127 98.6129 107.184 96.2821 104.852C93.9158 102.484 91.0632 101.3 87.7215 101.3C84.3799 101.3 81.5272 102.484 79.161 104.852C76.8302 107.184 75.6649 110.127 75.6649 113.679C75.6649 117.23 76.8125 120.12 79.1103 122.452C81.4411 124.785 84.3115 125.951 87.7241 125.951C91.1366 125.951 94.0045 124.785 96.3378 122.452C98.6686 120.12 99.8162 117.195 99.7833 113.679H99.7782Z" fill="white"/>
<path d="M125.095 133.576C122.068 133.576 119.266 132.95 116.692 131.695C114.115 130.44 112.045 128.666 110.479 126.366L114.916 120.987C117.49 124.574 120.9 126.366 125.146 126.366C126.747 126.366 128.069 125.984 129.113 125.218C130.157 124.452 130.679 123.461 130.679 122.242C130.679 120.64 129.513 119.299 127.183 118.221C126.904 118.082 125.635 117.577 123.372 116.705C121.599 116.008 120.084 115.314 118.832 114.617C114.761 112.284 112.724 109.08 112.724 105.007C112.724 101.769 113.943 99.0873 116.377 96.963C118.847 94.8057 122.014 93.7258 125.878 93.7258C130.889 93.7258 135.117 95.4674 138.563 98.9479L134.438 104.588C133.395 103.475 132.097 102.596 130.55 101.949C129.002 101.305 127.479 100.983 125.982 100.983C124.484 100.983 123.24 101.323 122.354 102.003C121.467 102.682 121.024 103.579 121.024 104.692C121.024 106.19 122.068 107.46 124.155 108.505L127.965 110.175C130.124 111.08 131.69 111.76 132.662 112.213C137.048 114.338 139.239 117.542 139.239 121.824C139.239 125.271 137.935 128.09 135.325 130.285C132.716 132.481 129.306 133.576 125.095 133.576Z" fill="white"/>
<defs>
<linearGradient id="paint0_linear_4_56" x1="-2.37057" y1="0.795986" x2="282.555" y2="275.079" gradientUnits="userSpaceOnUse">
<stop stop-color="#2B5083"/>
<stop offset="1" stop-color="#2368A4"/>
</linearGradient>
</defs>
</svg>
