<svg width="50" height="47" viewBox="0 0 50 47" fill="none" xmlns="http://www.w3.org/2000/svg">
<path d="M49.3581 23.4423C49.3581 36.0523 39.105 46.3054 26.5025 46.3054C14.7557 46.3054 5.04306 37.576 3.78206 25.9493H2.36344C1.50776 25.9493 0.742156 25.5064 0.314317 24.7634C-0.106015 24.0203 -0.106015 23.1421 0.321823 22.4065L3.92467 16.1616C4.35251 15.426 5.11812 14.9831 5.96629 14.9831C6.82196 14.9831 7.58757 15.426 8.01541 16.1616L11.6108 22.4065C12.0386 23.1496 12.0386 24.0278 11.6108 24.7709C11.1904 25.5064 10.4173 25.9493 9.56163 25.9493H8.40572C9.62919 34.9714 17.3378 41.7268 26.5025 41.7268C36.583 41.7268 44.7795 33.5228 44.7795 23.4423C44.7795 13.3693 36.583 5.17286 26.5025 5.17286C22.607 5.17286 18.884 6.38132 15.739 8.66312C15.2511 9.02341 14.6507 9.17352 14.0427 9.08345C13.4422 8.98588 12.9093 8.66312 12.5415 8.16773C12.1812 7.67234 12.0386 7.06436 12.1362 6.46388C12.2262 5.86341 12.5565 5.33048 13.0519 4.9702C16.9625 2.11044 21.6162 0.594238 26.5025 0.594238C39.105 0.594238 49.3581 10.8398 49.3581 23.4423Z" fill="#F5A545"/>
<path d="M15.0708 14.6676C15.0708 14.6751 15.0783 14.7126 15.0858 14.7501C15.4236 17.3322 20.3925 19.4263 26.1721 19.4263C31.9592 19.4263 36.9356 17.3322 37.2734 14.7576C37.2809 14.7201 37.2809 14.6826 37.2884 14.6526C37.1007 12.0105 32.1243 9.86377 26.1796 9.86377C20.2199 9.86377 15.2434 12.018 15.0708 14.6676ZM26.1796 11.4851C29.8125 11.4851 32.6347 12.8286 32.7473 14.615C32.7473 14.6225 32.7473 14.63 32.7473 14.6375C32.7473 14.6826 32.7398 14.7351 32.7323 14.7802C32.5071 16.4915 29.6849 17.79 26.1721 17.79C22.6593 17.79 19.8446 16.4915 19.6194 14.7727C19.6119 14.7351 19.6044 14.6826 19.6044 14.6375C19.717 12.8286 22.5467 11.4851 26.1796 11.4851Z" fill="#1261A5"/>
<path d="M26.1723 17.0476C29.58 17.0476 31.8468 15.8167 31.9894 14.6833L32.3722 14.6457L31.9969 14.6683C31.9218 13.4973 29.5649 12.2363 26.1723 12.2363C22.7796 12.2363 20.4227 13.4898 20.3477 14.6683C20.5128 15.8167 22.7721 17.0476 26.1723 17.0476ZM20.4152 26.0097C20.798 27.0455 22.9897 28.1264 26.1723 28.1264C29.3323 28.1264 31.509 27.0681 31.9293 26.0022C30.2255 26.4526 28.2664 26.7078 26.1723 26.7078C24.0706 26.7078 22.1116 26.4526 20.4152 26.0097Z" fill="#1261A5"/>
<path d="M26.1724 25.9565C28.3792 25.9565 30.4583 25.6563 32.2147 25.1459C32.2147 25.1459 32.2147 25.1459 32.2222 25.1459C33.8735 24.6655 35.2246 23.9899 36.1178 23.1943C36.1178 23.1943 36.1178 23.1943 36.1178 23.1868L36.1253 23.1793C36.6507 22.7064 37.026 22.196 37.1912 21.6481C37.2587 21.4379 37.2887 21.2203 37.2887 21.0026V16.499C35.6149 18.6682 31.3065 20.1619 26.1649 20.1619C21.0384 20.1619 16.7375 18.6682 15.0637 16.499L15.0562 20.9951C15.0637 23.6897 20.1527 25.9565 26.1724 25.9565ZM34.3389 20.4547C34.8418 20.4547 35.2546 20.86 35.2546 21.3629C35.2546 21.8658 34.8493 22.2786 34.3389 22.2786C33.836 22.2786 33.4232 21.8733 33.4232 21.3629C33.4232 20.86 33.8285 20.4547 34.3389 20.4547ZM31.4641 21.3629C31.967 21.3629 32.3799 21.7682 32.3799 22.2786C32.3799 22.7815 31.9745 23.1868 31.4641 23.1868C30.9612 23.1868 30.5484 22.7815 30.5484 22.2786C30.5484 21.7757 30.9612 21.3629 31.4641 21.3629ZM28.5894 22.0459C29.0923 22.0459 29.5051 22.4512 29.5051 22.9541C29.5051 23.457 29.0998 23.8699 28.5894 23.8699C28.0865 23.8699 27.6736 23.4645 27.6736 22.9541C27.6736 22.4437 28.0865 22.0459 28.5894 22.0459Z" fill="#1261A5"/>
<path d="M26.1724 30.4978C31.9595 30.4978 36.9359 28.4037 37.2662 25.8366C37.2737 25.7991 37.2812 25.7541 37.2812 25.7165C37.2436 25.1236 36.9284 24.5306 36.3655 23.9526C35.4572 24.6882 34.2112 25.3037 32.7401 25.7691C32.7401 25.8141 32.7401 25.8591 32.7326 25.8967C32.5149 27.578 29.6927 28.8765 26.1799 28.8765C22.6746 28.8765 19.8524 27.578 19.6197 25.8591C19.6197 25.8216 19.6122 25.7991 19.6122 25.7766C18.1335 25.3112 16.9026 24.6882 15.9943 23.9526C15.4314 24.5231 15.1161 25.1236 15.0786 25.7391C15.0786 25.7541 15.0861 25.7916 15.0936 25.8291C15.4239 28.4037 20.4003 30.4978 26.1724 30.4978Z" fill="#1261A5"/>
<path d="M26.1721 37.0354C31.704 37.0354 36.4402 35.189 37.1983 32.7345C37.2659 32.5244 37.2959 32.3067 37.2959 32.089V27.5854C35.6221 29.7547 31.3137 31.2559 26.1796 31.2559C21.053 31.2559 16.7596 29.7622 15.0783 27.593L15.0708 32.089C15.0633 34.7686 20.1523 37.0354 26.1721 37.0354ZM34.3385 31.5411C34.8414 31.5411 35.2543 31.9464 35.2543 32.4493C35.2543 32.9522 34.849 33.365 34.3385 33.365C33.8356 33.365 33.4228 32.9597 33.4228 32.4493C33.4228 31.9464 33.8281 31.5411 34.3385 31.5411ZM31.4638 32.4493C31.9667 32.4493 32.3795 32.8546 32.3795 33.365C32.3795 33.8679 31.9742 34.2732 31.4638 34.2732C30.9609 34.2732 30.548 33.8679 30.548 33.365C30.548 32.8621 30.9609 32.4493 31.4638 32.4493ZM28.589 33.1398C29.0919 33.1398 29.5047 33.5452 29.5047 34.0481C29.5047 34.551 29.0994 34.9638 28.589 34.9638C28.0861 34.9638 27.6733 34.5585 27.6733 34.0481C27.6733 33.5377 28.0861 33.1398 28.589 33.1398Z" fill="#1261A5"/>
</svg>
